SplineFontDB: 3.2
FontName: EggRollItalic
FullName: Egg Roll Italic
FamilyName: Egg Roll 
Weight: Italic
Copyright: 2019 Iconian Fonts - www.iconian.com
Version: 1.1; 2019
ItalicAngle: 0
UnderlinePosition: -175
UnderlineWidth: 50
Ascent: 800
Descent: 200
InvalidEm: 0
sfntRevision: 0x00010001
LayerCount: 2
Layer: 0 0 "Back" 1
Layer: 1 0 "Fore" 0
XUID: [1021 544 -9480482 12516051]
StyleMap: 0x0001
FSType: 0
OS2Version: 3
OS2_WeightWidthSlopeOnly: 0
OS2_UseTypoMetrics: 0
CreationTime: 1562333333
ModificationTime: 1759104205
PfmFamily: 81
TTFWeight: 400
TTFWidth: 5
LineGap: 30
VLineGap: 0
Panose: 0 0 0 0 0 0 0 0 0 0
OS2TypoAscent: 750
OS2TypoAOffset: 0
OS2TypoDescent: -170
OS2TypoDOffset: 0
OS2TypoLinegap: 30
OS2WinAscent: 882
OS2WinAOffset: 0
OS2WinDescent: 143
OS2WinDOffset: 0
HheadAscent: 882
HheadAOffset: 0
HheadDescent: -143
HheadDOffset: 0
OS2SubXSize: 100
OS2SubYSize: 100
OS2SubXOff: 0
OS2SubYOff: 140
OS2SupXSize: 100
OS2SupYSize: 100
OS2SupXOff: 0
OS2SupYOff: 140
OS2StrikeYSize: 50
OS2StrikeYPos: 250
OS2CapHeight: 705
OS2XHeight: 695
OS2Vendor: 'pyrs'
OS2CodePages: 00000001.00000000
OS2UnicodeRanges: 80000007.00000000.00000000.00000000
Lookup: 258 0 0 "'kern' Horizontal Kerning in Latin lookup 0" { "'kern' Horizontal Kerning in Latin lookup 0 subtable"  } ['kern' ('DFLT' <'dflt' > 'latn' <'dflt' > ) ]
MarkAttachClasses: 1
DEI: 91125
LangName: 1033 "" "" "" "" "" "Version 1.1; 2019" "" "" "" "Daniel Zadorozny" "" "" "http://www.iconian.com"
Encoding: UnicodeBmp
UnicodeInterp: none
NameList: AGL For New Fonts
DisplaySize: -48
AntiAlias: 1
FitToEm: 0
WinInfo: 64 16 4
BeginPrivate: 3
BlueValues 15 [-12 5 697 723]
BlueScale 6 0.0375
BlueShift 2 13
EndPrivate
BeginChars: 65540 223

StartChar: exclam
Encoding: 33 33 3
Width: 210
GlyphClass: 2
Flags: W
LayerCount: 2
Fore
SplineSet
213 80 m 2
 211 72.6669921875 209.49609375 67.99609375 208.49609375 65.99609375 c 0
 207.49609375 63.99609375 206.663085938 61.6630859375 205.99609375 58.99609375 c 2
 201.49609375 49.99609375 l 2
 199.829101562 46.6630859375 196.329101562 40.330078125 190.99609375 30.9970703125 c 0
 188.99609375 28.9970703125 187.329101562 26.6640625 185.99609375 23.9970703125 c 0
 184.663085938 21.330078125 182.99609375 18.330078125 180.99609375 14.9970703125 c 2
 176.99609375 9.9970703125 l 2
 173.663085938 4.6640625 170.330078125 -0.3359375 166.997070312 -5.0029296875 c 0
 163.6640625 -9.669921875 159.331054688 -12.0029296875 153.998046875 -12.0029296875 c 0
 152.665039062 -12.0029296875 150.83203125 -11.8359375 148.499023438 -11.5029296875 c 0
 146.166015625 -11.169921875 144.666015625 -11.0029296875 143.999023438 -11.0029296875 c 0
 134.666015625 -9.669921875 123.499023438 -6.669921875 110.499023438 -2.0029296875 c 0
 97.4990234375 2.6640625 84.9990234375 6.6640625 72.9990234375 9.9970703125 c 1
 65.9990234375 34.9970703125 l 1
 69.9990234375 47.9970703125 l 1
 94.9990234375 102.997070312 l 2
 98.33203125 111.6640625 101.33203125 117.331054688 103.999023438 119.998046875 c 0
 106.666015625 122.665039062 112.666015625 126.33203125 121.999023438 130.999023438 c 1
 148.999023438 123.999023438 l 1
 132.999023438 148.666015625 123.33203125 179.166015625 119.999023438 215.499023438 c 0
 116.666015625 251.83203125 117.166015625 290.165039062 121.499023438 330.498046875 c 0
 125.83203125 370.831054688 132.499023438 411.498046875 141.499023438 452.498046875 c 0
 150.499023438 493.498046875 159.33203125 530.998046875 167.999023438 564.998046875 c 2
 171.999023438 581.998046875 l 1
 173.999023438 581.998046875 l 1
 189.999023438 643.998046875 l 1
 194.499023438 652.998046875 l 2
 197.499023438 658.998046875 200.999023438 665.498046875 204.999023438 672.498046875 c 0
 208.999023438 679.498046875 213.33203125 685.831054688 217.999023438 691.498046875 c 0
 222.666015625 697.165039062 226.666015625 699.998046875 229.999023438 699.998046875 c 2
 234.999023438 699.998046875 l 1
 351.999023438 662.998046875 l 1
 337.999023438 627.998046875 l 2
 329.999023438 609.331054688 322.499023438 592.498046875 315.499023438 577.498046875 c 0
 308.499023438 562.498046875 301.33203125 547.331054688 293.999023438 531.998046875 c 0
 286.666015625 516.665039062 278.833007812 499.83203125 270.5 481.499023438 c 0
 262.166992188 463.166015625 252.666992188 441.333007812 242 416 c 0
 230 384 220 352 212 320 c 0
 204.666992188 290 198.5 261 193.5 233 c 0
 188.5 205 184 176 180 146 c 2
 174 120 l 1
 212 112 l 1
 216 93 l 1
 213 80 l 2
EndSplineSet
EndChar

StartChar: quotedbl
Encoding: 34 34 4
Width: 254
GlyphClass: 2
Flags: W
LayerCount: 2
Fore
SplineSet
191 590 m 1
 193.002929688 605.998046875 l 2
 194.3359375 611.998046875 194.668945312 617.165039062 194.001953125 621.498046875 c 0
 193.334960938 625.831054688 192.16796875 629.998046875 190.500976562 633.998046875 c 0
 188.833984375 637.998046875 187.166992188 642.165039062 185.5 646.498046875 c 0
 183.833007812 650.831054688 182.333007812 655.998046875 181 661.998046875 c 2
 190 696.998046875 l 2
 192.666992188 702.331054688 200 705.6640625 212 706.997070312 c 0
 224 708.330078125 233.666992188 708.997070312 241 708.997070312 c 2
 245 708.997070312 l 1
 247 709.997070312 l 1
 278 705.997070312 l 2
 281.333007812 705.997070312 283.333007812 702.997070312 284 696.997070312 c 0
 284.666992188 690.997070312 285 685.330078125 285 679.997070312 c 2
 285 673.997070312 l 1
 275 633.997070312 l 2
 267.666992188 616.6640625 260.666992188 602.331054688 254 590.998046875 c 0
 247.333007812 579.665039062 239.5 569.83203125 230.5 561.499023438 c 0
 221.5 553.166015625 210.833007812 545.833007812 198.5 539.5 c 0
 186.166992188 533.166992188 171 526.666992188 153 520 c 1
 191 590 l 1
310.002929688 589.998046875 m 1
 312.005859375 605.998046875 l 2
 313.338867188 611.998046875 313.671875 617.165039062 313.004882812 621.498046875 c 0
 312.337890625 625.831054688 311.170898438 629.998046875 309.50390625 633.998046875 c 0
 307.836914062 637.998046875 306.169921875 642.165039062 304.502929688 646.498046875 c 0
 302.8359375 650.831054688 301.3359375 655.998046875 300.002929688 661.998046875 c 2
 309.002929688 696.998046875 l 2
 311.669921875 702.331054688 319.002929688 705.6640625 331.002929688 706.997070312 c 0
 343.002929688 708.330078125 352.669921875 708.997070312 360.002929688 708.997070312 c 2
 364.002929688 708.997070312 l 1
 366.002929688 709.997070312 l 1
 399.002929688 705.997070312 l 2
 401.002929688 705.997070312 402.3359375 704.497070312 403.002929688 701.497070312 c 0
 403.669921875 698.497070312 404.169921875 695.1640625 404.502929688 691.497070312 c 0
 404.8359375 687.830078125 404.8359375 684.163085938 404.502929688 680.49609375 c 0
 404.169921875 676.829101562 404.002929688 674.662109375 404.002929688 673.995117188 c 2
 394.002929688 633.995117188 l 2
 386.669921875 616.662109375 379.669921875 602.329101562 373.002929688 590.99609375 c 0
 366.3359375 579.663085938 358.502929688 569.830078125 349.502929688 561.497070312 c 0
 340.502929688 553.1640625 329.8359375 545.831054688 317.502929688 539.498046875 c 0
 305.169921875 533.165039062 290.002929688 526.665039062 272.002929688 519.998046875 c 1
 310.002929688 589.998046875 l 1
EndSplineSet
EndChar

StartChar: numbersign
Encoding: 35 35 5
Width: 558
GlyphClass: 2
Flags: W
LayerCount: 2
Fore
SplineSet
231 414 m 2
 229 414 226.991210938 413.830078125 224.991210938 413.497070312 c 0
 222.991210938 413.1640625 220.658203125 412.6640625 217.991210938 411.997070312 c 2
 114.991210938 402.997070312 l 1
 128.991210938 432.997070312 l 2
 130.32421875 439.6640625 131.32421875 444.831054688 131.991210938 448.498046875 c 0
 132.658203125 452.165039062 133.658203125 455.998046875 134.991210938 459.998046875 c 2
 137.491210938 472.498046875 l 2
 138.491210938 477.498046875 139.658203125 484.331054688 140.991210938 492.998046875 c 2
 144.991210938 512.998046875 l 2
 146.32421875 519.665039062 146.32421875 525.665039062 144.991210938 530.998046875 c 1
 266.991210938 496.998046875 l 1
 270.32421875 504.331054688 272.991210938 510.498046875 274.991210938 515.498046875 c 0
 276.991210938 520.498046875 278.658203125 524.331054688 279.991210938 526.998046875 c 0
 281.32421875 528.998046875 283.991210938 533.998046875 287.991210938 541.998046875 c 2
 301.491210938 568.998046875 l 2
 306.491210938 578.998046875 311.491210938 588.665039062 316.491210938 597.998046875 c 0
 321.491210938 607.331054688 325.658203125 614.331054688 328.991210938 618.998046875 c 0
 332.32421875 624.331054688 336.491210938 631.498046875 341.491210938 640.498046875 c 0
 346.491210938 649.498046875 351.82421875 658.665039062 357.491210938 667.998046875 c 0
 363.158203125 677.331054688 368.991210938 686.1640625 374.991210938 694.497070312 c 0
 380.991210938 702.830078125 386.991210938 708.997070312 392.991210938 712.997070312 c 1
 362.991210938 594.997070312 l 2
 358.32421875 575.6640625 353.991210938 556.331054688 349.991210938 536.998046875 c 0
 345.991210938 517.665039062 342.32421875 498.33203125 338.991210938 478.999023438 c 1
 353.991210938 484.999023438 l 1
 457.991210938 453.999023438 l 1
 461.32421875 461.33203125 463.991210938 467.499023438 465.991210938 472.499023438 c 0
 467.991210938 477.499023438 469.991210938 481.33203125 471.991210938 483.999023438 c 0
 472.658203125 485.999023438 475.158203125 491.666015625 479.491210938 500.999023438 c 0
 483.82421875 510.33203125 488.657226562 520.83203125 493.990234375 532.499023438 c 0
 499.323242188 544.166015625 504.823242188 555.333007812 510.490234375 566 c 0
 516.157226562 576.666992188 520.657226562 584.333984375 523.990234375 589.000976562 c 0
 527.323242188 594.333984375 531.323242188 601.500976562 535.990234375 610.500976562 c 0
 540.657226562 619.500976562 545.82421875 628.66796875 551.491210938 638.000976562 c 0
 557.158203125 647.333984375 562.991210938 656.166992188 568.991210938 664.5 c 0
 574.991210938 672.833007812 580.991210938 679 586.991210938 683 c 1
 549.991210938 565 l 2
 544.658203125 545.666992188 539.825195312 526.333984375 535.4921875 507.000976562 c 0
 531.159179688 487.66796875 527.326171875 468.334960938 523.993164062 449.001953125 c 1
 538.993164062 445.001953125 l 2
 551.66015625 437.668945312 565.493164062 429.668945312 580.493164062 421.001953125 c 0
 595.493164062 412.334960938 605.66015625 404.66796875 610.993164062 398.000976562 c 0
 612.326171875 396.000976562 614.326171875 393.16796875 616.993164062 389.500976562 c 2
 620.993164062 384.000976562 l 1
 629.993164062 374.000976562 l 1
 626.993164062 372.000976562 l 1
 506.993164062 379.000976562 l 1
 505.66015625 365.000976562 504.327148438 351.16796875 502.994140625 337.500976562 c 0
 501.661132812 323.833984375 500.994140625 310.000976562 500.994140625 296.000976562 c 1
 501.661132812 296.66796875 502.994140625 297.000976562 504.994140625 297.000976562 c 0
 506.994140625 297.000976562 508.327148438 297.333984375 508.994140625 298.000976562 c 2
 611.994140625 307.000976562 l 1
 597.994140625 277.000976562 l 2
 596.661132812 270.333984375 595.661132812 265.166992188 594.994140625 261.5 c 0
 594.327148438 257.833007812 593.327148438 254 591.994140625 250 c 2
 589.494140625 237.5 l 2
 588.494140625 232.5 587.327148438 225.666992188 585.994140625 217 c 2
 581.994140625 197 l 2
 580.661132812 190.333007812 580.661132812 184.333007812 581.994140625 179 c 1
 497.994140625 202 l 1
 498.661132812 166 499.828125 130.833007812 501.495117188 96.5 c 0
 503.162109375 62.1669921875 505.662109375 28 508.995117188 -6 c 0
 506.995117188 -9.3330078125 503.162109375 -11.666015625 497.495117188 -12.9990234375 c 0
 491.828125 -14.33203125 477.995117188 -14.9990234375 455.995117188 -14.9990234375 c 2
 426.995117188 -14.9990234375 l 2
 404.995117188 -14.9990234375 388.162109375 -10.666015625 376.495117188 -1.9990234375 c 0
 364.828125 6.66796875 360.328125 25.0009765625 362.995117188 53.0009765625 c 0
 363.662109375 54.333984375 363.829101562 55.6669921875 363.49609375 57 c 0
 363.163085938 58.3330078125 363.330078125 59.666015625 363.997070312 60.9990234375 c 0
 364.6640625 69.666015625 365.6640625 80.166015625 366.997070312 92.4990234375 c 0
 368.330078125 104.83203125 369.830078125 116.999023438 371.497070312 128.999023438 c 0
 373.1640625 140.999023438 374.497070312 151.499023438 375.497070312 160.499023438 c 0
 376.497070312 169.499023438 377.330078125 174.999023438 377.997070312 176.999023438 c 2
 388.997070312 211.999023438 l 1
 313.997070312 231.999023438 l 1
 310.6640625 199.999023438 307.831054688 166.499023438 305.498046875 131.499023438 c 0
 303.165039062 96.4990234375 303.665039062 61.666015625 306.998046875 26.9990234375 c 0
 305.665039062 24.9990234375 303.998046875 23.33203125 301.998046875 21.9990234375 c 0
 299.998046875 20.666015625 296.831054688 19.4990234375 292.498046875 18.4990234375 c 0
 288.165039062 17.4990234375 281.998046875 16.666015625 273.998046875 15.9990234375 c 0
 265.998046875 15.33203125 255.331054688 14.6650390625 241.998046875 13.998046875 c 0
 230.665039062 13.998046875 220.33203125 14.8310546875 210.999023438 16.498046875 c 0
 201.666015625 18.1650390625 193.499023438 21.33203125 186.499023438 25.9990234375 c 0
 179.499023438 30.666015625 174.33203125 37.3330078125 170.999023438 46 c 0
 167.666015625 54.6669921875 166.666015625 66 167.999023438 80 c 0
 168.666015625 87.3330078125 169.833007812 98.3330078125 171.5 113 c 0
 173.166992188 127.666992188 175 142.5 177 157.5 c 0
 179 172.5 181 186.166992188 183 198.5 c 0
 185 210.833007812 186.333007812 218 187 220 c 2
 198 264 l 1
 196 265 l 2
 190 268.333007812 182.833007812 272 174.5 276 c 0
 166.166992188 280 158 284.166992188 150 288.5 c 0
 142 292.833007812 134.833007812 297 128.5 301 c 0
 122.166992188 305 118 308.666992188 116 312 c 0
 114.666992188 314 112.666992188 316.833007812 110 320.5 c 2
 106 326 l 1
 97 336 l 1
 100 338 l 1
 215 331 l 1
 235 414 l 1
 231 414 l 2
402.991210938 312.997070312 m 1
 430.991210938 387.997070312 l 1
 430.32421875 387.997070312 427.657226562 388.497070312 422.990234375 389.497070312 c 0
 418.323242188 390.497070312 412.990234375 391.6640625 406.990234375 392.997070312 c 0
 400.990234375 394.330078125 397.657226562 395.330078125 396.990234375 395.997070312 c 2
 340.990234375 406.997070312 l 1
 322.990234375 407.997070312 l 1
 321.657226562 393.997070312 320.157226562 380.330078125 318.490234375 366.997070312 c 0
 316.823242188 353.6640625 315.990234375 339.997070312 315.990234375 325.997070312 c 1
 316.657226562 326.6640625 318.32421875 326.997070312 320.991210938 326.997070312 c 0
 322.991210938 326.997070312 324.32421875 327.330078125 324.991210938 327.997070312 c 2
 402.991210938 312.997070312 l 1
EndSplineSet
EndChar

StartChar: dollar
Encoding: 36 36 6
Width: 448
GlyphClass: 2
Flags: W
LayerCount: 2
Fore
SplineSet
450 658 m 1
 439.981445312 618.004882812 l 1
 445.981445312 618.671875 452.1484375 619.171875 458.481445312 619.504882812 c 0
 464.814453125 619.837890625 471.314453125 620.004882812 477.981445312 620.004882812 c 0
 485.981445312 620.004882812 491.814453125 612.337890625 495.481445312 597.004882812 c 0
 499.1484375 581.671875 501.315429688 564.004882812 501.982421875 544.004882812 c 0
 502.649414062 524.004882812 502.31640625 504.504882812 500.983398438 485.504882812 c 0
 499.650390625 466.504882812 497.983398438 453.004882812 495.983398438 445.004882812 c 1
 492.983398438 446.004882812 l 1
 471.650390625 460.671875 450.483398438 472.671875 429.483398438 482.004882812 c 0
 408.483398438 491.337890625 383.650390625 496.004882812 354.983398438 496.004882812 c 0
 326.983398438 496.004882812 301.983398438 493.004882812 279.983398438 487.004882812 c 0
 257.983398438 481.004882812 233.31640625 469.337890625 205.983398438 452.004882812 c 1
 201.983398438 445.004882812 l 1
 201.983398438 443.004882812 l 1
 207.31640625 439.004882812 215.483398438 436.504882812 226.483398438 435.504882812 c 0
 237.483398438 434.504882812 251.31640625 433.671875 267.983398438 433.004882812 c 0
 269.983398438 433.004882812 273.483398438 432.837890625 278.483398438 432.504882812 c 0
 283.483398438 432.171875 288.650390625 431.671875 293.983398438 431.004882812 c 0
 299.31640625 430.337890625 304.649414062 429.504882812 309.982421875 428.504882812 c 0
 315.315429688 427.504882812 318.982421875 426.671875 320.982421875 426.004882812 c 0
 330.315429688 420.004882812 339.982421875 415.671875 349.982421875 413.004882812 c 0
 359.982421875 410.337890625 369.982421875 406.337890625 379.982421875 401.004882812 c 0
 405.315429688 388.337890625 425.815429688 372.337890625 441.482421875 353.004882812 c 0
 457.149414062 333.671875 471.31640625 310.004882812 483.983398438 282.004882812 c 0
 485.31640625 280.004882812 487.483398438 276.171875 490.483398438 270.504882812 c 0
 493.483398438 264.837890625 494.650390625 261.337890625 493.983398438 260.004882812 c 0
 496.650390625 254.004882812 497.317382812 247.337890625 495.984375 240.004882812 c 1
 495.984375 241.337890625 494.317382812 237.670898438 490.984375 229.00390625 c 0
 469.651367188 183.670898438 443.651367188 150.00390625 412.984375 128.00390625 c 0
 382.317382812 106.00390625 348.984375 91.00390625 312.984375 83.00390625 c 1
 295.984375 48.00390625 l 1
 286.984375 23.00390625 l 2
 280.984375 9.00390625 275.484375 -2.49609375 270.484375 -11.49609375 c 0
 265.484375 -20.49609375 260.317382812 -28.6630859375 254.984375 -35.99609375 c 0
 249.651367188 -43.3291015625 243.818359375 -50.3291015625 237.485351562 -56.99609375 c 0
 231.15234375 -63.6630859375 223.65234375 -71.99609375 214.985351562 -81.99609375 c 1
 217.65234375 -68.6630859375 219.65234375 -57.49609375 220.985351562 -48.49609375 c 0
 222.318359375 -39.49609375 223.318359375 -29.99609375 223.985351562 -19.99609375 c 0
 224.65234375 -9.99609375 225.319335938 1.3369140625 225.986328125 14.00390625 c 0
 226.653320312 26.6708984375 227.653320312 43.6708984375 228.986328125 65.00390625 c 1
 199.986328125 74.00390625 l 2
 197.319335938 74.00390625 194.986328125 74.1708984375 192.986328125 74.50390625 c 0
 190.986328125 74.8369140625 189.319335938 75.00390625 187.986328125 75.00390625 c 2
 182.986328125 75.00390625 l 2
 180.986328125 75.00390625 176.653320312 75.3369140625 169.986328125 76.00390625 c 0
 163.319335938 76.6708984375 157.319335938 77.6708984375 151.986328125 79.00390625 c 0
 148.653320312 79.00390625 146.153320312 79.3369140625 144.486328125 80.00390625 c 0
 142.819335938 80.6708984375 138.319335938 82.00390625 130.986328125 84.00390625 c 0
 127.653320312 85.3369140625 124.8203125 86.169921875 122.487304688 86.5029296875 c 0
 120.154296875 86.8359375 118.321289062 87.6689453125 116.98828125 89.001953125 c 0
 114.98828125 89.001953125 111.321289062 89.8349609375 105.98828125 91.501953125 c 0
 100.655273438 93.1689453125 97.322265625 94.3359375 95.9892578125 95.0029296875 c 0
 94.65625 96.3359375 91.9892578125 98.3359375 87.9892578125 101.002929688 c 0
 83.9892578125 103.669921875 80.322265625 105.669921875 76.9892578125 107.002929688 c 2
 68.9892578125 111.002929688 l 2
 64.322265625 115.669921875 59.322265625 119.836914062 53.9892578125 123.50390625 c 0
 48.65625 127.170898438 46.65625 132.00390625 47.9892578125 138.00390625 c 0
 50.65625 148.670898438 55.3232421875 161.337890625 61.990234375 176.004882812 c 0
 68.6572265625 190.671875 76.32421875 205.171875 84.9912109375 219.504882812 c 0
 93.658203125 233.837890625 102.825195312 247.170898438 112.4921875 259.50390625 c 0
 122.159179688 271.836914062 131.659179688 281.669921875 140.9921875 289.002929688 c 1
 143.9921875 289.002929688 l 1
 150.659179688 283.002929688 156.326171875 274.002929688 160.993164062 262.002929688 c 0
 165.66015625 250.002929688 170.66015625 240.3359375 175.993164062 233.002929688 c 0
 183.326171875 220.3359375 192.993164062 208.3359375 204.993164062 197.002929688 c 0
 216.993164062 185.669921875 230.493164062 175.669921875 245.493164062 167.002929688 c 0
 260.493164062 158.3359375 276.326171875 151.502929688 292.993164062 146.502929688 c 0
 309.66015625 141.502929688 326.327148438 139.002929688 342.994140625 139.002929688 c 0
 345.661132812 139.002929688 347.661132812 140.669921875 348.994140625 144.002929688 c 0
 355.661132812 171.3359375 357.328125 196.8359375 353.995117188 220.502929688 c 0
 350.662109375 244.169921875 343.995117188 265.502929688 333.995117188 284.502929688 c 0
 323.995117188 303.502929688 311.328125 320.169921875 295.995117188 334.502929688 c 0
 280.662109375 348.8359375 263.995117188 360.668945312 245.995117188 370.001953125 c 0
 225.995117188 380.668945312 204.328125 387.668945312 180.995117188 391.001953125 c 0
 157.662109375 394.334960938 134.329101562 396.001953125 110.99609375 396.001953125 c 1
 114.99609375 412.001953125 122.99609375 427.001953125 134.99609375 441.001953125 c 0
 165.663085938 481.001953125 198.663085938 513.834960938 233.99609375 539.501953125 c 0
 269.329101562 565.168945312 306.99609375 584.668945312 346.99609375 598.001953125 c 0
 347.663085938 601.334960938 347.830078125 604.66796875 347.497070312 608.000976562 c 0
 347.1640625 611.333984375 347.6640625 615.000976562 348.997070312 619.000976562 c 1
 349.6640625 618.333984375 349.831054688 620.833984375 349.498046875 626.500976562 c 0
 349.165039062 632.16796875 348.83203125 639.000976562 348.499023438 647.000976562 c 0
 348.166015625 655.000976562 347.833007812 663.500976562 347.5 672.500976562 c 0
 347.166992188 681.500976562 347 689.000976562 347 695.000976562 c 0
 347 704.333984375 347.333007812 708.666992188 348 708 c 2
 361 709 l 2
 368.333007812 709 374.833007812 708.5 380.5 707.5 c 0
 386.166992188 706.5 391.333984375 706 396.000976562 706 c 0
 399.333984375 706 403.666992188 707 409 709 c 2
 481 728 l 1
 471 703 l 1
 450 658 l 1
EndSplineSet
EndChar

StartChar: percent
Encoding: 37 37 7
Width: 458
GlyphClass: 2
Flags: W
LayerCount: 2
Fore
SplineSet
312 308 m 2
 299.333007812 300.666992188 288.005859375 290.500976562 278.005859375 277.500976562 c 0
 268.005859375 264.500976562 259.172851562 249.833984375 251.505859375 233.500976562 c 0
 243.838867188 217.16796875 237.005859375 199.834960938 231.005859375 181.501953125 c 0
 225.005859375 163.168945312 219.672851562 145.001953125 215.005859375 127.001953125 c 0
 211.005859375 111.668945312 207.172851562 96.501953125 203.505859375 81.501953125 c 0
 199.838867188 66.501953125 197.338867188 53.001953125 196.005859375 41.001953125 c 2
 191.005859375 14.001953125 l 1
 184.505859375 7.501953125 l 2
 182.172851562 5.1689453125 180.33984375 3.6689453125 179.006835938 3.001953125 c 2
 171.006835938 3.001953125 l 2
 159.673828125 3.001953125 148.506835938 5.8349609375 137.506835938 11.501953125 c 0
 126.506835938 17.1689453125 115.83984375 24.1689453125 105.506835938 32.501953125 c 0
 95.173828125 40.8349609375 85.5068359375 49.501953125 76.5068359375 58.501953125 c 2
 53.0068359375 82.001953125 l 1
 50.0068359375 87.001953125 l 1
 52.0068359375 103.001953125 l 2
 54.673828125 114.334960938 60.5068359375 127.501953125 69.5068359375 142.501953125 c 0
 78.5068359375 157.501953125 89.0068359375 172.834960938 101.006835938 188.501953125 c 0
 113.006835938 204.168945312 125.506835938 219.001953125 138.506835938 233.001953125 c 0
 151.506835938 247.001953125 163.33984375 258.334960938 174.006835938 267.001953125 c 0
 222.006835938 309.668945312 260.33984375 346.668945312 289.006835938 378.001953125 c 0
 317.673828125 409.334960938 340.006835938 437.001953125 356.006835938 461.001953125 c 0
 372.006835938 485.001953125 383.506835938 506.168945312 390.506835938 524.501953125 c 0
 397.506835938 542.834960938 403.006835938 560.66796875 407.006835938 578.000976562 c 0
 411.673828125 597.333984375 415.673828125 615.166992188 419.006835938 631.5 c 0
 422.33984375 647.833007812 425.006835938 662.666015625 427.006835938 675.999023438 c 0
 426.33984375 676.666015625 426.672851562 679.999023438 428.005859375 685.999023438 c 2
 431.005859375 695.999023438 l 1
 437.505859375 702.499023438 l 2
 439.838867188 704.83203125 441.671875 706.33203125 443.004882812 706.999023438 c 2
 452.004882812 707.999023438 l 2
 462.671875 707.999023438 473.171875 705.499023438 483.504882812 700.499023438 c 0
 493.837890625 695.499023438 503.670898438 689.166015625 513.00390625 681.499023438 c 0
 522.336914062 673.83203125 531.169921875 665.83203125 539.502929688 657.499023438 c 2
 562.002929688 634.999023438 l 2
 564.002929688 633.666015625 565.002929688 632.333007812 565.002929688 631 c 0
 566.3359375 628.333007812 567.668945312 626.666015625 569.001953125 625.999023438 c 0
 570.334960938 625.33203125 571.334960938 624.665039062 572.001953125 623.998046875 c 2
 569.001953125 607.998046875 l 2
 565.668945312 596.665039062 559.501953125 583.33203125 550.501953125 567.999023438 c 0
 541.501953125 552.666015625 531.168945312 537.333007812 519.501953125 522 c 0
 507.834960938 506.666992188 495.66796875 492 483.000976562 478 c 0
 470.333984375 464 458.666992188 452.666992188 448 444 c 2
 312 308 l 2
356.005859375 604.000976562 m 0
 346.672851562 566.000976562 330.67578125 530.331054688 308.008789062 496.998046875 c 0
 285.341796875 463.665039062 260.008789062 431.665039062 232.008789062 400.998046875 c 1
 222.008789062 392.998046875 l 1
 221.508789062 392.498046875 l 2
 221.17578125 392.165039062 220.67578125 391.998046875 220.008789062 391.998046875 c 0
 219.341796875 391.998046875 218.841796875 392.165039062 218.508789062 392.498046875 c 2
 218.008789062 392.998046875 l 2
 214.008789062 393.665039062 208.841796875 395.665039062 202.508789062 398.998046875 c 0
 196.17578125 402.331054688 190.008789062 406.331054688 184.008789062 410.998046875 c 0
 178.008789062 415.665039062 173.008789062 420.33203125 169.008789062 424.999023438 c 0
 165.008789062 429.666015625 163.341796875 433.666015625 164.008789062 436.999023438 c 0
 165.341796875 440.33203125 167.674804688 442.665039062 171.0078125 443.998046875 c 0
 174.340820312 445.331054688 176.673828125 447.998046875 178.006835938 451.998046875 c 2
 178.006835938 455.998046875 l 1
 168.673828125 481.331054688 162.506835938 506.831054688 159.506835938 532.498046875 c 0
 156.506835938 558.165039062 158.673828125 585.998046875 166.006835938 615.998046875 c 0
 173.33984375 645.998046875 184.672851562 672.498046875 200.005859375 695.498046875 c 0
 215.338867188 718.498046875 238.005859375 736.998046875 268.005859375 750.998046875 c 2
 278.005859375 755.998046875 l 1
 326.005859375 708.998046875 l 1
 332.005859375 713.998046875 l 2
 334.005859375 716.665039062 335.838867188 719.33203125 337.505859375 721.999023438 c 0
 339.172851562 724.666015625 340.33984375 727.333007812 341.006835938 730 c 0
 341.673828125 731.333007812 342.006835938 733 342.006835938 735 c 0
 342.006835938 738.333007812 342.33984375 741 343.006835938 743 c 1
 350.33984375 735.666992188 355.506835938 726.333984375 358.506835938 715.000976562 c 0
 361.506835938 703.66796875 363.33984375 691.500976562 364.006835938 678.500976562 c 0
 364.673828125 665.500976562 364.173828125 652.500976562 362.506835938 639.500976562 c 0
 360.83984375 626.500976562 358.672851562 614.66796875 356.005859375 604.000976562 c 0
292.008789062 634.998046875 m 2
 296.006835938 647.998046875 l 1
 296.006835938 651.998046875 l 2
 296.006835938 655.331054688 295.83984375 657.6640625 295.506835938 658.997070312 c 0
 295.173828125 660.330078125 293.340820312 660.997070312 290.0078125 660.997070312 c 0
 280.674804688 660.997070312 272.5078125 657.1640625 265.5078125 649.497070312 c 0
 258.5078125 641.830078125 252.340820312 632.497070312 247.0078125 621.497070312 c 0
 241.674804688 610.497070312 237.174804688 599.1640625 233.5078125 587.497070312 c 0
 229.840820312 575.830078125 227.0078125 565.997070312 225.0078125 557.997070312 c 2
 222.0078125 544.997070312 l 2
 220.674804688 538.997070312 219.841796875 533.330078125 219.508789062 527.997070312 c 0
 219.17578125 522.6640625 221.008789062 519.997070312 225.008789062 519.997070312 c 0
 231.67578125 519.997070312 238.508789062 524.6640625 245.508789062 533.997070312 c 0
 252.508789062 543.330078125 259.17578125 554.330078125 265.508789062 566.997070312 c 0
 271.841796875 579.6640625 277.341796875 592.331054688 282.008789062 604.998046875 c 0
 286.67578125 617.665039062 290.008789062 627.665039062 292.008789062 634.998046875 c 2
486.006835938 172.998046875 m 0
 476.673828125 134.998046875 460.841796875 99.330078125 438.508789062 65.9970703125 c 0
 416.17578125 32.6640625 391.008789062 0.6640625 363.008789062 -30.0029296875 c 1
 353.008789062 -38.0029296875 l 1
 352.008789062 -38.5029296875 l 2
 351.341796875 -38.8359375 350.674804688 -39.0029296875 350.0078125 -39.0029296875 c 0
 349.340820312 -39.0029296875 349.0078125 -38.669921875 349.0078125 -38.0029296875 c 0
 345.0078125 -37.3359375 339.840820312 -35.1689453125 333.5078125 -31.501953125 c 0
 327.174804688 -27.8349609375 321.0078125 -23.8349609375 315.0078125 -19.501953125 c 0
 309.0078125 -15.1689453125 303.840820312 -10.6689453125 299.5078125 -6.001953125 c 0
 295.174804688 -1.3349609375 293.341796875 2.6650390625 294.008789062 5.998046875 c 0
 295.341796875 9.3310546875 297.674804688 11.6640625 301.0078125 12.9970703125 c 0
 304.340820312 14.330078125 306.673828125 16.9970703125 308.006835938 20.9970703125 c 2
 308.006835938 24.9970703125 l 1
 298.673828125 50.330078125 292.506835938 75.830078125 289.506835938 101.497070312 c 0
 286.506835938 127.1640625 288.673828125 154.997070312 296.006835938 184.997070312 c 0
 303.33984375 214.997070312 314.83984375 241.497070312 330.506835938 264.497070312 c 0
 346.173828125 287.497070312 369.006835938 305.997070312 399.006835938 319.997070312 c 2
 409.006835938 324.997070312 l 1
 456.006835938 277.997070312 l 1
 463.006835938 282.997070312 l 2
 466.33984375 287.6640625 469.33984375 292.997070312 472.006835938 298.997070312 c 0
 472.673828125 300.997070312 472.840820312 302.830078125 472.5078125 304.497070312 c 0
 472.174804688 306.1640625 472.674804688 308.6640625 474.0078125 311.997070312 c 1
 480.674804688 304.6640625 485.5078125 295.331054688 488.5078125 283.998046875 c 0
 491.5078125 272.665039062 493.340820312 260.498046875 494.0078125 247.498046875 c 0
 494.674804688 234.498046875 494.174804688 221.498046875 492.5078125 208.498046875 c 0
 490.840820312 195.498046875 488.673828125 183.665039062 486.006835938 172.998046875 c 0
423.0078125 203.997070312 m 2
 426.006835938 216.997070312 l 1
 426.006835938 220.997070312 l 2
 426.673828125 224.330078125 426.673828125 226.663085938 426.006835938 227.99609375 c 0
 425.33984375 229.329101562 423.33984375 229.99609375 420.006835938 229.99609375 c 0
 410.673828125 229.99609375 402.506835938 226.163085938 395.506835938 218.49609375 c 0
 388.506835938 210.829101562 382.506835938 201.49609375 377.506835938 190.49609375 c 0
 372.506835938 179.49609375 368.173828125 168.163085938 364.506835938 156.49609375 c 0
 360.83984375 144.829101562 358.006835938 134.99609375 356.006835938 126.99609375 c 2
 352.006835938 113.99609375 l 2
 350.673828125 107.99609375 349.840820312 102.329101562 349.5078125 96.99609375 c 0
 349.174804688 91.6630859375 351.0078125 88.99609375 355.0078125 88.99609375 c 0
 361.674804688 88.99609375 368.5078125 93.6630859375 375.5078125 102.99609375 c 0
 382.5078125 112.329101562 389.174804688 123.329101562 395.5078125 135.99609375 c 0
 401.840820312 148.663085938 407.5078125 161.330078125 412.5078125 173.997070312 c 0
 417.5078125 186.6640625 421.0078125 196.6640625 423.0078125 203.997070312 c 2
EndSplineSet
EndChar

StartChar: ampersand
Encoding: 38 38 8
Width: 530
GlyphClass: 2
Flags: W
LayerCount: 2
Fore
SplineSet
489 349 m 2
 491 349 492.994140625 349.166992188 494.994140625 349.5 c 0
 496.994140625 349.833007812 499.661132812 350.333007812 502.994140625 351 c 2
 599.994140625 360 l 1
 585.994140625 330 l 2
 584.661132812 323.333007812 583.828125 318.166015625 583.495117188 314.499023438 c 0
 583.162109375 310.83203125 582.329101562 306.999023438 580.99609375 302.999023438 c 0
 579.663085938 299.666015625 578.663085938 295.499023438 577.99609375 290.499023438 c 0
 577.329101562 285.499023438 575.99609375 278.666015625 573.99609375 269.999023438 c 0
 572.663085938 263.33203125 571.49609375 256.665039062 570.49609375 249.998046875 c 0
 569.49609375 243.331054688 569.329101562 237.331054688 569.99609375 231.998046875 c 1
 514.99609375 247.998046875 l 1
 516.329101562 236.665039062 516.329101562 223.33203125 514.99609375 207.999023438 c 0
 513.663085938 192.666015625 511.330078125 178.333007812 507.997070312 165 c 0
 498.6640625 127.666992188 489.997070312 98.6669921875 481.997070312 78 c 0
 473.997070312 57.3330078125 464.1640625 42 452.497070312 32 c 0
 440.830078125 22 425.830078125 16 407.497070312 14 c 0
 389.1640625 12 364.997070312 11 334.997070312 11 c 2
 318.997070312 11 l 1
 310.997070312 11 l 2
 306.330078125 11 303.663085938 11.3330078125 302.99609375 12 c 2
 266.99609375 63 l 1
 216.99609375 -12 l 1
 180.99609375 0 152.99609375 18 132.99609375 42 c 0
 122.329101562 53.3330078125 112.99609375 68.166015625 104.99609375 86.4990234375 c 0
 96.99609375 104.83203125 90.8291015625 124.499023438 86.49609375 145.499023438 c 0
 82.1630859375 166.499023438 79.830078125 187.999023438 79.4970703125 209.999023438 c 0
 79.1640625 231.999023438 81.3310546875 251.999023438 85.998046875 269.999023438 c 0
 95.3310546875 307.33203125 111.498046875 333.665039062 134.498046875 348.998046875 c 0
 157.498046875 364.331054688 183.665039062 373.331054688 212.998046875 375.998046875 c 1
 204.998046875 387.331054688 197.665039062 398.1640625 190.998046875 408.497070312 c 0
 184.331054688 418.830078125 178.998046875 429.497070312 174.998046875 440.497070312 c 0
 170.998046875 451.497070312 168.665039062 463.1640625 167.998046875 475.497070312 c 0
 167.331054688 487.830078125 168.998046875 501.663085938 172.998046875 516.99609375 c 2
 173.998046875 519.99609375 l 2
 180.665039062 546.663085938 190.665039062 568.99609375 203.998046875 586.99609375 c 0
 217.331054688 604.99609375 233.331054688 619.49609375 251.998046875 630.49609375 c 0
 270.665039062 641.49609375 291.33203125 649.329101562 313.999023438 653.99609375 c 0
 336.666015625 658.663085938 360.666015625 660.99609375 385.999023438 660.99609375 c 2
 417.999023438 663.99609375 l 1
 457.999023438 608.99609375 l 1
 516.999023438 692.99609375 l 1
 530.999023438 686.99609375 l 1
 541.666015625 676.99609375 552.666015625 665.329101562 563.999023438 651.99609375 c 0
 575.33203125 638.663085938 585.499023438 625.330078125 594.499023438 611.997070312 c 0
 603.499023438 598.6640625 610.33203125 585.831054688 614.999023438 573.498046875 c 0
 619.666015625 561.165039062 620.999023438 550.665039062 618.999023438 541.998046875 c 0
 618.33203125 538.665039062 615.83203125 536.33203125 611.499023438 534.999023438 c 0
 607.166015625 533.666015625 601.833007812 532.333007812 595.5 531 c 0
 589.166992188 529.666992188 582.5 528.333984375 575.5 527.000976562 c 0
 568.5 525.66796875 562 523.66796875 556 521.000976562 c 2
 464 454.000976562 l 1
 462.666992188 462.000976562 457 470.333984375 447 479.000976562 c 0
 437 487.66796875 426 498.66796875 414 512.000976562 c 1
 438 563.000976562 l 1
 432 563.000976562 l 2
 420 562.333984375 406.833007812 561.166992188 392.5 559.5 c 0
 378.166992188 557.833007812 364.333984375 554.833007812 351.000976562 550.5 c 0
 337.66796875 546.166992188 326.000976562 540 316.000976562 532 c 0
 306.000976562 524 299.333984375 513 296.000976562 499 c 0
 293.333984375 487 293.666992188 475.5 297 464.5 c 0
 300.333007812 453.5 305.5 443.166992188 312.5 433.5 c 0
 319.5 423.833007812 327.833007812 414.833007812 337.5 406.5 c 0
 347.166992188 398.166992188 357 391 367 385 c 0
 370.333007812 383.666992188 380.333007812 379.5 397 372.5 c 0
 413.666992188 365.5 433 358.333007812 455 351 c 1
 489 349 l 2
331.994140625 106 m 1
 342.994140625 104 l 1
 352.327148438 108 359.16015625 113 363.493164062 119 c 0
 367.826171875 125 370.993164062 131.666992188 372.993164062 139 c 0
 374.326171875 146.333007812 375.826171875 155.666015625 377.493164062 166.999023438 c 0
 379.16015625 178.33203125 380.993164062 187.999023438 382.993164062 195.999023438 c 0
 388.993164062 219.33203125 385.493164062 240.33203125 372.493164062 258.999023438 c 0
 359.493164062 277.666015625 343.326171875 293.666015625 323.993164062 306.999023438 c 0
 317.993164062 308.999023438 312.326171875 311.166015625 306.993164062 313.499023438 c 0
 301.66015625 315.83203125 296.327148438 318.33203125 290.994140625 320.999023438 c 0
 283.661132812 318.999023438 275.994140625 315.999023438 267.994140625 311.999023438 c 0
 259.994140625 307.999023438 252.327148438 303.166015625 244.994140625 297.499023438 c 0
 237.661132812 291.83203125 231.161132812 285.33203125 225.494140625 277.999023438 c 0
 219.827148438 270.666015625 215.994140625 262.999023438 213.994140625 254.999023438 c 0
 207.327148438 229.666015625 208.994140625 206.833007812 218.994140625 186.5 c 0
 228.994140625 166.166992188 242.661132812 148.666992188 259.994140625 134 c 1
 331.994140625 106 l 1
EndSplineSet
EndChar

StartChar: quotesingle
Encoding: 39 39 9
Width: 164
GlyphClass: 2
Flags: W
LayerCount: 2
Fore
SplineSet
204 592 m 1
 204.994140625 606.999023438 l 2
 206.994140625 612.999023438 207.494140625 618.166015625 206.494140625 622.499023438 c 0
 205.494140625 626.83203125 203.994140625 630.999023438 201.994140625 634.999023438 c 0
 199.994140625 638.999023438 197.494140625 643.166015625 194.494140625 647.499023438 c 0
 191.494140625 651.83203125 188.994140625 656.999023438 186.994140625 662.999023438 c 2
 195.994140625 696.999023438 l 2
 196.661132812 699.666015625 199.328125 701.666015625 203.995117188 702.999023438 c 0
 208.662109375 704.33203125 214.329101562 705.499023438 220.99609375 706.499023438 c 0
 227.663085938 707.499023438 234.330078125 708.166015625 240.997070312 708.499023438 c 0
 247.6640625 708.83203125 252.997070312 708.999023438 256.997070312 708.999023438 c 2
 261.997070312 708.999023438 l 1
 264.997070312 709.999023438 l 1
 302.997070312 705.999023438 l 2
 306.330078125 705.999023438 308.663085938 702.666015625 309.99609375 695.999023438 c 0
 311.329101562 689.33203125 311.99609375 683.665039062 311.99609375 678.998046875 c 2
 311.99609375 673.998046875 l 2
 310.663085938 670.665039062 308.663085938 664.33203125 305.99609375 654.999023438 c 0
 303.329101562 645.666015625 301.329101562 638.999023438 299.99609375 634.999023438 c 0
 292.663085938 617.666015625 285.330078125 603.333007812 277.997070312 592 c 0
 270.6640625 580.666992188 261.831054688 571 251.498046875 563 c 0
 241.165039062 555 228.83203125 548 214.499023438 542 c 0
 200.166015625 536 182.333007812 529.666992188 161 523 c 1
 204 592 l 1
EndSplineSet
EndChar

StartChar: parenleft
Encoding: 40 40 10
Width: 309
GlyphClass: 2
Flags: W
LayerCount: 2
Fore
SplineSet
191 234 m 0
 189.666992188 228.666992188 188.665039062 217.166992188 187.998046875 199.5 c 0
 187.331054688 181.833007812 187.498046875 162 188.498046875 140 c 0
 189.498046875 118 191.165039062 95.5 193.498046875 72.5 c 0
 195.831054688 49.5 199.331054688 30 203.998046875 14 c 0
 203.998046875 9.3330078125 204.331054688 7.666015625 204.998046875 8.9990234375 c 1
 203.665039062 5.666015625 200.665039062 2.8330078125 195.998046875 0.5 c 0
 191.331054688 -1.8330078125 187.331054688 -3 183.998046875 -3 c 0
 179.331054688 -3 173.1640625 -1.3330078125 165.497070312 2 c 0
 157.830078125 5.3330078125 153.663085938 9.666015625 152.99609375 14.9990234375 c 0
 145.663085938 52.9990234375 138.163085938 88.33203125 130.49609375 120.999023438 c 0
 122.829101562 153.666015625 116.99609375 186.166015625 112.99609375 218.499023438 c 0
 108.99609375 250.83203125 107.829101562 284.499023438 109.49609375 319.499023438 c 0
 111.163085938 354.499023438 117.330078125 393.666015625 127.997070312 436.999023438 c 0
 143.330078125 497.666015625 166.997070312 550.166015625 198.997070312 594.499023438 c 0
 230.997070312 638.83203125 276.997070312 676.33203125 336.997070312 706.999023438 c 1
 357.997070312 715.999023438 l 1
 451.997070312 623.999023438 l 1
 442.997070312 617.999023438 l 2
 438.997070312 615.33203125 429.830078125 608.33203125 415.497070312 596.999023438 c 0
 401.1640625 585.666015625 383.6640625 569.833007812 362.997070312 549.5 c 0
 342.330078125 529.166992188 319.830078125 503.833984375 295.497070312 473.500976562 c 0
 271.1640625 443.16796875 247.331054688 408.000976562 223.998046875 368.000976562 c 0
 222.665039062 364.66796875 220.83203125 359.16796875 218.499023438 351.500976562 c 0
 216.166015625 343.833984375 213.333007812 333.666992188 210 321 c 0
 207.333007812 310.333007812 204.5 297.833007812 201.5 283.5 c 0
 198.5 269.166992188 195 252.666992188 191 234 c 0
EndSplineSet
EndChar

StartChar: parenright
Encoding: 41 41 11
Width: 315
GlyphClass: 2
Flags: W
LayerCount: 2
Fore
SplineSet
300 480 m 0
 301.333007812 485.333007812 302.333984375 496.831054688 303.000976562 514.498046875 c 0
 303.66796875 532.165039062 303.500976562 551.998046875 302.500976562 573.998046875 c 0
 301.500976562 595.998046875 299.833984375 618.498046875 297.500976562 641.498046875 c 0
 295.16796875 664.498046875 291.66796875 683.998046875 287.000976562 699.998046875 c 0
 287.000976562 704.665039062 286.66796875 706.33203125 286.000976562 704.999023438 c 1
 287.333984375 708.33203125 290.333984375 711.165039062 295.000976562 713.498046875 c 0
 299.66796875 715.831054688 303.66796875 716.998046875 307.000976562 716.998046875 c 0
 311.66796875 716.998046875 317.834960938 715.331054688 325.501953125 711.998046875 c 0
 333.168945312 708.665039062 337.3359375 704.33203125 338.002929688 698.999023438 c 0
 345.3359375 660.999023438 352.668945312 625.666015625 360.001953125 592.999023438 c 0
 367.334960938 560.33203125 373.001953125 527.83203125 377.001953125 495.499023438 c 0
 381.001953125 463.166015625 382.334960938 429.333007812 381.001953125 394 c 0
 379.668945312 358.666992188 373.668945312 319.666992188 363.001953125 277 c 0
 347.668945312 216.333007812 324.001953125 163.833007812 292.001953125 119.5 c 0
 260.001953125 75.1669921875 214.001953125 37.6669921875 154.001953125 7 c 2
 134.001953125 -2 l 1
 39.001953125 90 l 1
 48.001953125 96 l 2
 51.3349609375 98.6669921875 60.3349609375 105.666992188 75.001953125 117 c 0
 89.6689453125 128.333007812 107.3359375 144.166015625 128.002929688 164.499023438 c 0
 148.669921875 184.83203125 171.169921875 209.999023438 195.502929688 239.999023438 c 0
 219.8359375 269.999023438 243.668945312 305.33203125 267.001953125 345.999023438 c 0
 268.334960938 349.33203125 270.16796875 354.83203125 272.500976562 362.499023438 c 0
 274.833984375 370.166015625 277.666992188 380.333007812 281 393 c 0
 283.666992188 403.666992188 286.5 416.166992188 289.5 430.5 c 0
 292.5 444.833007812 296 461.333007812 300 480 c 0
EndSplineSet
EndChar

StartChar: asterisk
Encoding: 42 42 12
Width: 271
GlyphClass: 2
Flags: W
LayerCount: 2
Fore
SplineSet
332 617 m 1
 383.997070312 564 l 1
 358.997070312 553 l 1
 339.997070312 538 l 2
 337.330078125 535.333007812 334.497070312 532.333007812 331.497070312 529 c 0
 328.497070312 525.666992188 324.330078125 521.333984375 318.997070312 516.000976562 c 0
 309.6640625 508.66796875 301.6640625 500.66796875 294.997070312 492.000976562 c 1
 268.997070312 573.000976562 l 1
 248.997070312 560.000976562 l 2
 237.6640625 554.000976562 227.831054688 549.16796875 219.498046875 545.500976562 c 0
 211.165039062 541.833984375 203.33203125 538.666992188 195.999023438 536 c 0
 188.666015625 533.333007812 181.333007812 531.166015625 174 529.499023438 c 0
 166.666992188 527.83203125 158 525.665039062 148 522.998046875 c 1
 156 529.665039062 162.666992188 535.83203125 168 541.499023438 c 0
 173.333007812 547.166015625 178.5 552.999023438 183.5 558.999023438 c 0
 188.5 564.999023438 194 571.499023438 200 578.499023438 c 0
 206 585.499023438 213.666992188 593.666015625 223 602.999023438 c 2
 245 624.999023438 l 1
 237 647.999023438 l 2
 236.333007812 653.33203125 235.5 659.499023438 234.5 666.499023438 c 2
 231.5 687.499023438 l 2
 230.5 694.499023438 230 700.999023438 230 706.999023438 c 0
 230 712.999023438 230.666992188 717.999023438 232 721.999023438 c 2
 236 737.999023438 l 1
 242 750.999023438 l 1
 246 749.999023438 l 1
 294 671.999023438 l 1
 310 690.999023438 l 1
 354 748.999023438 l 1
 372 729.499023438 l 2
 376 725.166015625 380.666992188 722.333007812 386 721 c 2
 427 692 l 1
 410 675 l 1
 372 647 l 1
 372 644 l 1
 332 617 l 1
EndSplineSet
EndChar

StartChar: plus
Encoding: 43 43 13
Width: 374
GlyphClass: 2
Flags: W
LayerCount: 2
Fore
SplineSet
340 407 m 1
 341.333007812 407 343.166992188 407.168945312 345.5 407.501953125 c 0
 347.833007812 407.834960938 350.666015625 408.334960938 353.999023438 409.001953125 c 2
 455.999023438 418.001953125 l 1
 439.999023438 388.001953125 l 2
 437.999023438 381.334960938 436.83203125 376.16796875 436.499023438 372.500976562 c 0
 436.166015625 368.833984375 435.333007812 365.000976562 434 361.000976562 c 0
 432.666992188 357.66796875 431.666992188 353.500976562 431 348.500976562 c 0
 430.333007812 343.500976562 429.333007812 336.66796875 428 328.000976562 c 0
 426.666992188 321.333984375 425.833984375 314.666992188 425.500976562 308 c 0
 425.16796875 301.333007812 425.334960938 295.333007812 426.001953125 290 c 1
 312.001953125 320 l 1
 303.001953125 295 l 2
 290.334960938 267 277.334960938 239.833007812 264.001953125 213.5 c 0
 250.668945312 187.166992188 235.668945312 163.666992188 219.001953125 143 c 1
 224.334960938 169.666992188 229.16796875 198.166992188 233.500976562 228.5 c 0
 237.833984375 258.833007812 241.666992188 295 245 337 c 1
 216 346 l 2
 210 349.333007812 202.833007812 353 194.5 357 c 0
 186.166992188 361 178 365.166992188 170 369.5 c 0
 162 373.833007812 154.833007812 378 148.5 382 c 0
 142.166992188 386 138 389.666992188 136 393 c 0
 134.666992188 395 132.666992188 397.333007812 130 400 c 2
 126 404 l 1
 117 417 l 1
 120 419 l 1
 251 409 l 1
 249.666992188 420.333007812 250 430 252 438 c 1
 252.666992188 437.333007812 252.666992188 441.5 252 450.5 c 0
 251.333007812 459.5 250.666015625 469.166992188 249.999023438 479.5 c 0
 249.33203125 489.833007812 248.83203125 499.333007812 248.499023438 508 c 0
 248.166015625 516.666992188 248.333007812 520.666992188 249 520 c 0
 264.333007812 521.333007812 276 522.333007812 284 523 c 0
 292 523.666992188 299.666992188 525.666992188 307 529 c 2
 375 547 l 1
 374 522 l 1
 358 464 l 1
 359 461 l 1
 340 407 l 1
EndSplineSet
EndChar

StartChar: comma
Encoding: 44 44 14
Width: 172
GlyphClass: 2
Flags: W
LayerCount: 2
Fore
SplineSet
34 -36 m 2
 42.6669921875 -23.3330078125 48.6669921875 -10.6669921875 52 2 c 0
 54 10.6669921875 54.6669921875 17.6669921875 54 23 c 0
 53.3330078125 28.3330078125 51.8330078125 33.166015625 49.5 37.4990234375 c 0
 47.1669921875 41.83203125 44.5 46.4990234375 41.5 51.4990234375 c 0
 38.5 56.4990234375 35.6669921875 63.33203125 33 71.9990234375 c 1
 44 87.9990234375 l 2
 45.3330078125 90.666015625 49 92.9990234375 55 94.9990234375 c 0
 61 96.9990234375 67.6669921875 98.666015625 75 99.9990234375 c 0
 82.3330078125 101.33203125 89.666015625 102.33203125 96.9990234375 102.999023438 c 0
 104.33203125 103.666015625 109.999023438 103.999023438 113.999023438 103.999023438 c 2
 118.999023438 103.999023438 l 1
 121.999023438 104.999023438 l 1
 161.999023438 98.9990234375 l 2
 165.33203125 98.9990234375 167.665039062 95.4990234375 168.998046875 88.4990234375 c 0
 170.331054688 81.4990234375 171.6640625 77.33203125 172.997070312 75.9990234375 c 0
 174.330078125 75.9990234375 174.997070312 75.666015625 174.997070312 74.9990234375 c 2
 173.997070312 73.9990234375 l 2
 174.6640625 72.666015625 174.6640625 70.666015625 173.997070312 67.9990234375 c 2
 172.997070312 65.9990234375 l 1
 174.330078125 65.9990234375 173.830078125 62.9990234375 171.497070312 56.9990234375 c 0
 169.1640625 50.9990234375 167.331054688 45.666015625 165.998046875 40.9990234375 c 0
 158.665039062 23.666015625 150.83203125 9.4990234375 142.499023438 -1.5009765625 c 0
 134.166015625 -12.5009765625 123.666015625 -22.5009765625 110.999023438 -31.5009765625 c 0
 98.33203125 -40.5009765625 82.83203125 -49.66796875 64.4990234375 -59.0009765625 c 0
 46.166015625 -68.333984375 23.3330078125 -79.6669921875 -4 -93 c 1
 34 -36 l 2
EndSplineSet
EndChar

StartChar: hyphen
Encoding: 45 45 15
Width: 299
GlyphClass: 2
Flags: W
LayerCount: 2
Fore
SplineSet
95 280 m 1
 98.3330078125 286 102 292.831054688 106 300.498046875 c 0
 110 308.165039062 113 315.998046875 115 323.998046875 c 2
 120 343.998046875 l 2
 121.333007812 349.331054688 122.5 353.831054688 123.5 357.498046875 c 0
 124.5 361.165039062 125.666992188 364.665039062 127 367.998046875 c 2
 131 383.998046875 l 1
 126 413.998046875 l 1
 191 409.998046875 l 2
 192.333007812 409.998046875 193.833007812 409.665039062 195.5 408.998046875 c 0
 197.166992188 408.331054688 198.333984375 407.998046875 199.000976562 407.998046875 c 0
 206.333984375 406.665039062 212.500976562 405.83203125 217.500976562 405.499023438 c 0
 222.500976562 405.166015625 232.000976562 404.999023438 246.000976562 404.999023438 c 2
 386.000976562 431.999023438 l 2
 386.000976562 432.666015625 385.000976562 431.333007812 383.000976562 428 c 0
 381.000976562 424.666992188 378.833984375 421 376.500976562 417 c 0
 374.16796875 413 371.66796875 409 369.000976562 405 c 0
 366.333984375 401 364.666992188 398.666992188 364 398 c 0
 356.666992188 390.666992188 348.166992188 383 338.5 375 c 0
 328.833007812 367 316.333007812 359.666992188 301 353 c 2
 95 280 l 1
EndSplineSet
EndChar

StartChar: period
Encoding: 46 46 16
Width: 172
GlyphClass: 2
Flags: W
LayerCount: 2
Fore
SplineSet
169 70 m 2
 167 63.3330078125 165.662109375 58.6650390625 164.995117188 55.998046875 c 0
 164.328125 53.3310546875 163.495117188 50.998046875 162.495117188 48.998046875 c 2
 157.995117188 39.998046875 l 2
 155.995117188 35.998046875 152.328125 29.6650390625 146.995117188 20.998046875 c 0
 144.995117188 18.998046875 143.495117188 16.6650390625 142.495117188 13.998046875 c 0
 141.495117188 11.3310546875 139.662109375 8.3310546875 136.995117188 4.998046875 c 2
 133.995117188 -0.001953125 l 2
 130.662109375 -5.3349609375 127.329101562 -10.3349609375 123.99609375 -15.001953125 c 0
 120.663085938 -19.6689453125 116.330078125 -22.001953125 110.997070312 -22.001953125 c 0
 109.6640625 -22.001953125 107.831054688 -21.8349609375 105.498046875 -21.501953125 c 0
 103.165039062 -21.1689453125 101.665039062 -21.001953125 100.998046875 -21.001953125 c 0
 91.6650390625 -19.6689453125 80.33203125 -16.6689453125 66.9990234375 -12.001953125 c 0
 53.666015625 -7.3349609375 41.3330078125 -3.3349609375 30 -0.001953125 c 1
 22 24.998046875 l 1
 26 37.998046875 l 1
 51 92.998046875 l 2
 54.3330078125 101.665039062 57.3330078125 107.33203125 60 109.999023438 c 0
 62.6669921875 112.666015625 68.6669921875 116.333007812 78 121 c 1
 168 102 l 1
 173 83 l 1
 169 70 l 2
EndSplineSet
EndChar

StartChar: slash
Encoding: 47 47 17
Width: 414
GlyphClass: 2
Flags: W
LayerCount: 2
Fore
SplineSet
298 308 m 2
 285.333007812 300.666992188 274.004882812 290.499023438 264.004882812 277.499023438 c 0
 254.004882812 264.499023438 245.171875 249.83203125 237.504882812 233.499023438 c 0
 229.837890625 217.166015625 223.004882812 199.833007812 217.004882812 181.5 c 0
 211.004882812 163.166992188 205.671875 145 201.004882812 127 c 0
 197.004882812 111.666992188 193.171875 96.5 189.504882812 81.5 c 0
 185.837890625 66.5 183.337890625 53 182.004882812 41 c 2
 177.004882812 14 l 1
 170.504882812 7.5 l 2
 168.171875 5.1669921875 166.338867188 3.6669921875 165.005859375 3 c 2
 157.005859375 3 l 2
 145.672851562 3 134.505859375 5.8330078125 123.505859375 11.5 c 0
 112.505859375 17.1669921875 101.838867188 24.1669921875 91.505859375 32.5 c 0
 81.1728515625 40.8330078125 71.505859375 49.5 62.505859375 58.5 c 2
 39.005859375 82 l 1
 36.005859375 87 l 1
 38.005859375 103 l 2
 40.6728515625 114.333007812 46.505859375 127.5 55.505859375 142.5 c 0
 64.505859375 157.5 75.005859375 172.833007812 87.005859375 188.5 c 0
 99.005859375 204.166992188 111.505859375 219 124.505859375 233 c 0
 137.505859375 247 149.338867188 258.333007812 160.005859375 267 c 0
 208.005859375 309.666992188 246.338867188 346.666992188 275.005859375 378 c 0
 303.672851562 409.333007812 326.005859375 437 342.005859375 461 c 0
 358.005859375 485 369.505859375 506.166992188 376.505859375 524.5 c 0
 383.505859375 542.833007812 389.005859375 560.666015625 393.005859375 577.999023438 c 0
 397.672851562 597.33203125 401.672851562 615.165039062 405.005859375 631.498046875 c 0
 408.338867188 647.831054688 411.005859375 662.6640625 413.005859375 675.997070312 c 0
 412.338867188 676.6640625 412.671875 679.997070312 414.004882812 685.997070312 c 2
 417.004882812 695.997070312 l 1
 423.504882812 702.497070312 l 2
 425.837890625 704.830078125 427.670898438 706.330078125 429.00390625 706.997070312 c 2
 438.00390625 707.997070312 l 2
 448.670898438 707.997070312 459.170898438 705.497070312 469.50390625 700.497070312 c 0
 479.836914062 695.497070312 489.669921875 689.1640625 499.002929688 681.497070312 c 0
 508.3359375 673.830078125 517.168945312 665.830078125 525.501953125 657.497070312 c 2
 548.001953125 634.997070312 l 2
 550.001953125 633.6640625 551.001953125 632.331054688 551.001953125 630.998046875 c 2
 554.501953125 623.998046875 l 2
 555.501953125 621.998046875 555.668945312 616.665039062 555.001953125 607.998046875 c 0
 551.668945312 596.665039062 545.501953125 583.33203125 536.501953125 567.999023438 c 0
 527.501953125 552.666015625 517.168945312 537.333007812 505.501953125 522 c 0
 493.834960938 506.666992188 481.66796875 492 469.000976562 478 c 0
 456.333984375 464 444.666992188 452.666992188 434 444 c 2
 298 308 l 2
EndSplineSet
EndChar

StartChar: zero
Encoding: 48 48 18
Width: 423
GlyphClass: 2
Flags: W
LayerCount: 2
Fore
SplineSet
510 423 m 0
 500 385 487.000976562 348.170898438 471.000976562 312.50390625 c 0
 455.000976562 276.836914062 436.333984375 242.169921875 415.000976562 208.502929688 c 0
 393.66796875 174.8359375 370.16796875 142.168945312 344.500976562 110.501953125 c 0
 318.833984375 78.8349609375 292.000976562 47.66796875 264.000976562 17.0009765625 c 1
 243.000976562 0.0009765625 l 1
 242.000976562 -0.4990234375 l 2
 241.333984375 -0.83203125 240.333984375 -0.9990234375 239.000976562 -0.9990234375 c 0
 238.333984375 -0.9990234375 237.500976562 -0.83203125 236.500976562 -0.4990234375 c 2
 235.000976562 0.0009765625 l 2
 227.66796875 2.0009765625 217.66796875 6.5009765625 205.000976562 13.5009765625 c 0
 192.333984375 20.5009765625 180.000976562 28.5009765625 168.000976562 37.5009765625 c 0
 156.000976562 46.5009765625 146.000976562 55.66796875 138.000976562 65.0009765625 c 0
 130.000976562 74.333984375 126.66796875 82.0009765625 128.000976562 88.0009765625 c 0
 128.66796875 91.333984375 130.334960938 94.1669921875 133.001953125 96.5 c 0
 135.668945312 98.8330078125 138.501953125 101 141.501953125 103 c 0
 144.501953125 105 147.168945312 107 149.501953125 109 c 0
 151.834960938 111 153.334960938 114 154.001953125 118 c 0
 154.668945312 118.666992188 155.001953125 120.333984375 155.001953125 123.000976562 c 0
 155.001953125 125.000976562 155.334960938 126.333984375 156.001953125 127.000976562 c 0
 138.001953125 177.000976562 125.668945312 228.16796875 119.001953125 280.500976562 c 0
 112.334960938 332.833984375 116.334960938 388.333984375 131.001953125 447.000976562 c 0
 145.668945312 507.000976562 168.501953125 560.000976562 199.501953125 606.000976562 c 0
 230.501953125 652.000976562 276.334960938 689.000976562 337.001953125 717.000976562 c 2
 356.001953125 726.000976562 l 1
 452.001953125 633.000976562 l 2
 452.668945312 632.333984375 454.168945312 633.166992188 456.501953125 635.5 c 2
 463.001953125 642 l 2
 468.334960938 648 472.334960938 653.5 475.001953125 658.5 c 0
 477.668945312 663.5 479.668945312 669 481.001953125 675 c 0
 482.334960938 678.333007812 483.16796875 682 483.500976562 686 c 0
 483.833984375 690 484.666992188 694.666992188 486 700 c 1
 500.666992188 685.333007812 511.166992188 666.5 517.5 643.5 c 0
 523.833007812 620.5 527.333007812 596.166992188 528 570.5 c 0
 528.666992188 544.833007812 527.166992188 519 523.5 493 c 0
 519.833007812 467 515.333007812 443.666992188 510 423 c 0
434.000976562 516.00390625 m 2
 443.99609375 559.002929688 l 1
 445.99609375 570.002929688 l 2
 444.663085938 578.669921875 442.830078125 585.336914062 440.497070312 590.00390625 c 0
 438.1640625 594.670898438 432.331054688 597.00390625 422.998046875 597.00390625 c 0
 401.665039062 597.00390625 381.998046875 591.50390625 363.998046875 580.50390625 c 0
 345.998046875 569.50390625 329.331054688 555.00390625 313.998046875 537.00390625 c 0
 298.665039062 519.00390625 284.83203125 498.836914062 272.499023438 476.50390625 c 0
 260.166015625 454.170898438 249.333007812 431.50390625 240 408.50390625 c 0
 230.666992188 385.50390625 222.833984375 363.336914062 216.500976562 342.00390625 c 0
 210.16796875 320.670898438 205.334960938 302.337890625 202.001953125 287.004882812 c 0
 200.668945312 283.004882812 199.001953125 277.171875 197.001953125 269.504882812 c 0
 195.001953125 261.837890625 192.668945312 253.337890625 190.001953125 244.004882812 c 0
 188.001953125 235.337890625 186.168945312 226.670898438 184.501953125 218.00390625 c 0
 182.834960938 209.336914062 182.16796875 201.50390625 182.500976562 194.50390625 c 0
 182.833984375 187.50390625 184.500976562 181.670898438 187.500976562 177.00390625 c 0
 190.500976562 172.336914062 195.66796875 170.00390625 203.000976562 170.00390625 c 0
 219.000976562 170.00390625 235.333984375 176.670898438 252.000976562 190.00390625 c 0
 268.66796875 203.336914062 285.000976562 220.50390625 301.000976562 241.50390625 c 0
 317.000976562 262.50390625 332.333984375 286.00390625 347.000976562 312.00390625 c 0
 361.66796875 338.00390625 374.834960938 363.836914062 386.501953125 389.50390625 c 0
 398.168945312 415.170898438 408.168945312 439.170898438 416.501953125 461.50390625 c 0
 424.834960938 483.836914062 430.66796875 502.00390625 434.000976562 516.00390625 c 2
EndSplineSet
EndChar

StartChar: one
Encoding: 49 49 19
Width: 195
GlyphClass: 2
Flags: W
LayerCount: 2
Fore
SplineSet
292 489 m 2
 282.666992188 453 270.831054688 411.5 256.498046875 364.5 c 0
 242.165039062 317.5 224.83203125 270.833007812 204.499023438 224.5 c 0
 184.166015625 178.166992188 160.666015625 134.833984375 133.999023438 94.5009765625 c 0
 107.33203125 54.16796875 76.9990234375 22.0009765625 42.9990234375 -1.9990234375 c 1
 52.9990234375 39.0009765625 l 1
 66.9990234375 74.0009765625 l 1
 125.999023438 309.000976562 l 1
 126.999023438 316.000976562 l 2
 128.999023438 336.000976562 132.33203125 360.000976562 136.999023438 388.000976562 c 0
 141.666015625 416.000976562 146.499023438 444.66796875 151.499023438 474.000976562 c 0
 156.499023438 503.333984375 161.33203125 531.666992188 165.999023438 559 c 0
 170.666015625 586.333007812 173.999023438 609.333007812 175.999023438 628 c 2
 173.999023438 663 l 1
 310.999023438 700 l 1
 315.999023438 700 l 2
 319.33203125 700 321.499023438 697.166992188 322.499023438 691.5 c 0
 323.499023438 685.833007812 323.83203125 679.5 323.499023438 672.5 c 0
 323.166015625 665.5 322.833007812 659 322.5 653 c 2
 322 644 l 2
 320.666992188 624 319.166992188 608 317.5 596 c 0
 315.833007812 584 313.333007812 572.333007812 310 561 c 2
 292 489 l 2
EndSplineSet
EndChar

StartChar: two
Encoding: 50 50 20
Width: 441
GlyphClass: 2
Flags: W
LayerCount: 2
Fore
SplineSet
445 80 m 0
 443 72.6669921875 438.330078125 66.498046875 430.997070312 61.498046875 c 0
 423.6640625 56.498046875 416.331054688 51.3310546875 408.998046875 45.998046875 c 2
 398.998046875 39.998046875 l 2
 394.998046875 38.6650390625 390.165039062 36.33203125 384.498046875 32.9990234375 c 0
 378.831054688 29.666015625 374.998046875 27.3330078125 372.998046875 26 c 0
 370.998046875 24.6669921875 366.998046875 23 360.998046875 21 c 0
 354.998046875 19 350.998046875 18 348.998046875 18 c 0
 346.331054688 16 343.831054688 14.6669921875 341.498046875 14 c 0
 339.165039062 13.3330078125 336.33203125 12.3330078125 332.999023438 11 c 0
 324.33203125 9 318.999023438 7.6669921875 316.999023438 7 c 0
 314.999023438 6.3330078125 312.33203125 5.666015625 308.999023438 4.9990234375 c 0
 302.33203125 3.666015625 295.665039062 2.4990234375 288.998046875 1.4990234375 c 0
 282.331054688 0.4990234375 277.998046875 -0.0009765625 275.998046875 -0.0009765625 c 2
 270.998046875 -0.0009765625 l 2
 268.331054688 -0.0009765625 258.998046875 -1.0009765625 242.998046875 -3.0009765625 c 2
 164.998046875 -3.0009765625 l 2
 147.665039062 -3.0009765625 131.33203125 -2.0009765625 115.999023438 -0.0009765625 c 0
 100.666015625 1.9990234375 87.3330078125 6.83203125 76 14.4990234375 c 0
 64.6669921875 22.166015625 56 33.666015625 50 48.9990234375 c 0
 44 64.33203125 41.6669921875 85.6650390625 43 112.998046875 c 2
 44.5 121.998046875 l 2
 45.5 127.998046875 46.3330078125 131.665039062 47 132.998046875 c 2
 48 133.998046875 l 2
 48.6669921875 134.665039062 49 135.33203125 49 135.999023438 c 2
 61 155.999023438 l 2
 61.6669921875 157.999023438 65 162.666015625 71 169.999023438 c 0
 77 177.33203125 81 182.33203125 83 184.999023438 c 0
 96.3330078125 201.666015625 110.833007812 221.333007812 126.5 244 c 0
 142.166992188 266.666992188 158.333984375 289.333984375 175.000976562 312.000976562 c 0
 191.66796875 334.66796875 208.334960938 355.334960938 225.001953125 374.001953125 c 0
 241.668945312 392.668945312 257.668945312 406.001953125 273.001953125 414.001953125 c 0
 285.668945312 420.668945312 296.3359375 425.668945312 305.002929688 429.001953125 c 0
 313.669921875 432.334960938 324.002929688 437.66796875 336.002929688 445.000976562 c 0
 338.002929688 445.66796875 342.002929688 446.834960938 348.002929688 448.501953125 c 0
 354.002929688 450.168945312 360.169921875 451.8359375 366.502929688 453.502929688 c 0
 372.8359375 455.169921875 378.668945312 456.669921875 384.001953125 458.002929688 c 0
 389.334960938 459.3359375 393.001953125 460.002929688 395.001953125 460.002929688 c 2
 408.001953125 461.002929688 l 2
 418.001953125 461.002929688 428.168945312 461.669921875 438.501953125 463.002929688 c 0
 448.834960938 464.3359375 458.001953125 467.668945312 466.001953125 473.001953125 c 0
 466.668945312 473.001953125 467.001953125 473.668945312 467.001953125 475.001953125 c 2
 468.001953125 484.001953125 l 1
 465.001953125 488.001953125 l 2
 455.668945312 498.001953125 446.8359375 506.834960938 438.502929688 514.501953125 c 0
 430.169921875 522.168945312 421.502929688 528.501953125 412.502929688 533.501953125 c 0
 403.502929688 538.501953125 393.669921875 542.334960938 383.002929688 545.001953125 c 0
 372.3359375 547.668945312 360.002929688 549.001953125 346.002929688 549.001953125 c 0
 332.002929688 549.001953125 318.002929688 546.334960938 304.002929688 541.001953125 c 0
 290.002929688 535.668945312 276.002929688 528.8359375 262.002929688 520.502929688 c 0
 248.002929688 512.169921875 233.8359375 503.169921875 219.502929688 493.502929688 c 0
 205.169921875 483.8359375 190.669921875 474.668945312 176.002929688 466.001953125 c 0
 176.002929688 465.334960938 175.502929688 464.834960938 174.502929688 464.501953125 c 2
 173.002929688 464.001953125 l 1
 175.002929688 474.001953125 179.669921875 491.334960938 187.002929688 516.001953125 c 0
 194.3359375 540.668945312 202.8359375 566.001953125 212.502929688 592.001953125 c 0
 222.169921875 618.001953125 232.002929688 641.001953125 242.002929688 661.001953125 c 0
 252.002929688 681.001953125 261.002929688 691.001953125 269.002929688 691.001953125 c 0
 299.002929688 691.001953125 328.502929688 687.501953125 357.502929688 680.501953125 c 0
 386.502929688 673.501953125 413.002929688 661.668945312 437.002929688 645.001953125 c 0
 461.002929688 628.334960938 481.669921875 606.66796875 499.002929688 580.000976562 c 0
 516.3359375 553.333984375 528.002929688 520.333984375 534.002929688 481.000976562 c 1
 534.002929688 478.000976562 l 2
 535.3359375 470.66796875 535.8359375 461.500976562 535.502929688 450.500976562 c 0
 535.169921875 439.500976562 534.002929688 429.333984375 532.002929688 420.000976562 c 1
 482.002929688 420.000976562 431.669921875 406.66796875 381.002929688 380.000976562 c 0
 335.002929688 356.66796875 298.169921875 320.16796875 270.502929688 270.500976562 c 0
 242.8359375 220.833984375 220.002929688 159.666992188 202.002929688 87 c 0
 200.669921875 83.6669921875 201.669921875 82 205.002929688 82 c 0
 221.669921875 82 236.669921875 85.1669921875 250.002929688 91.5 c 0
 263.3359375 97.8330078125 276.168945312 106.333007812 288.501953125 117 c 0
 300.834960938 127.666992188 313.16796875 140.166992188 325.500976562 154.5 c 0
 337.833984375 168.833007812 351.666992188 184 367 200 c 0
 371.666992188 204.666992188 377.166992188 211.166992188 383.5 219.5 c 0
 389.833007812 227.833007812 396.333007812 236.333007812 403 245 c 0
 409.666992188 253.666992188 416.166992188 262 422.5 270 c 0
 428.833007812 278 434.333007812 284 439 288 c 1
 442 288 l 1
 446.666992188 279.333007812 450 266.333007812 452 249 c 0
 454 231.666992188 455 212.666992188 455 192 c 0
 455 172 454.166992188 151.833007812 452.5 131.5 c 0
 450.833007812 111.166992188 448.333007812 94 445 80 c 0
EndSplineSet
EndChar

StartChar: three
Encoding: 51 51 21
Width: 425
GlyphClass: 2
Flags: W
LayerCount: 2
Fore
SplineSet
371 365 m 1
 335 352.333007812 300.169921875 341.336914062 266.502929688 332.00390625 c 0
 232.8359375 322.670898438 198.668945312 314.00390625 164.001953125 306.00390625 c 1
 167.334960938 312.00390625 170.001953125 318.670898438 172.001953125 326.00390625 c 0
 174.001953125 333.336914062 176.001953125 341.00390625 178.001953125 349.00390625 c 0
 183.334960938 369.00390625 187.66796875 389.00390625 191.000976562 409.00390625 c 0
 194.333984375 429.00390625 196.666992188 445.670898438 198 459.00390625 c 1
 202 466.00390625 l 1
 265 454.00390625 l 2
 273 452.670898438 284.5 451.50390625 299.5 450.50390625 c 0
 314.5 449.50390625 329.666992188 449.00390625 345 449.00390625 c 2
 430 464.00390625 l 1
 431.333007812 469.336914062 432.833007812 474.336914062 434.5 479.00390625 c 0
 436.166992188 483.670898438 437.666992188 488.670898438 439 494.00390625 c 0
 443.666992188 512.00390625 446.833984375 526.00390625 448.500976562 536.00390625 c 0
 450.16796875 546.00390625 449.500976562 553.50390625 446.500976562 558.50390625 c 0
 443.500976562 563.50390625 437.333984375 566.50390625 428.000976562 567.50390625 c 0
 418.66796875 568.50390625 405.66796875 569.00390625 389.000976562 569.00390625 c 0
 353.000976562 569.00390625 319.16796875 563.836914062 287.500976562 553.50390625 c 0
 255.833984375 543.170898438 222.000976562 527.337890625 186.000976562 506.004882812 c 1
 183.000976562 505.004882812 l 2
 178.333984375 505.004882812 174.500976562 509.837890625 171.500976562 519.504882812 c 0
 168.500976562 529.171875 166.16796875 540.004882812 164.500976562 552.004882812 c 0
 162.833984375 564.004882812 162.000976562 575.337890625 162.000976562 586.004882812 c 0
 162.000976562 597.337890625 162.333984375 604.337890625 163.000976562 607.004882812 c 2
 163.000976562 611.004882812 l 1
 177.000976562 664.004882812 l 2
 179.000976562 674.671875 182.000976562 682.671875 186.000976562 688.004882812 c 0
 186.66796875 690.671875 188.334960938 692.004882812 191.001953125 692.004882812 c 0
 205.001953125 695.337890625 215.501953125 697.337890625 222.501953125 698.004882812 c 0
 229.501953125 698.671875 238.668945312 699.004882812 250.001953125 699.004882812 c 0
 292.668945312 699.004882812 329.668945312 689.504882812 361.001953125 670.504882812 c 0
 392.334960938 651.504882812 420.66796875 628.004882812 446.000976562 600.004882812 c 0
 446.000976562 599.337890625 446.333984375 599.337890625 447.000976562 600.004882812 c 0
 447.000976562 600.671875 447.333984375 601.004882812 448.000976562 601.004882812 c 0
 450.000976562 601.004882812 451.66796875 603.004882812 453.000976562 607.004882812 c 2
 465.000976562 664.004882812 l 2
 467.66796875 664.004882812 469.66796875 662.171875 471.000976562 658.504882812 c 0
 472.333984375 654.837890625 473.333984375 650.170898438 474.000976562 644.50390625 c 0
 474.66796875 638.836914062 475.16796875 632.669921875 475.500976562 626.002929688 c 0
 475.833984375 619.3359375 476.000976562 613.3359375 476.000976562 608.002929688 c 0
 476.000976562 600.669921875 477.000976562 596.002929688 479.000976562 594.002929688 c 0
 485.000976562 583.3359375 491.000976562 573.002929688 497.000976562 563.002929688 c 0
 503.000976562 553.002929688 506.66796875 541.3359375 508.000976562 528.002929688 c 1
 502.000976562 531.3359375 498.333984375 534.002929688 497.000976562 536.002929688 c 0
 495.66796875 538.002929688 491.000976562 539.002929688 483.000976562 539.002929688 c 1
 482.000976562 535.002929688 l 1
 482.000976562 503.002929688 l 2
 482.000976562 498.3359375 481.833984375 493.668945312 481.500976562 489.001953125 c 0
 481.16796875 484.334960938 480.66796875 479.334960938 480.000976562 474.001953125 c 1
 503.000976562 478.001953125 l 2
 505.000976562 479.334960938 510.000976562 480.334960938 518.000976562 481.001953125 c 0
 526.000976562 481.668945312 533.333984375 482.001953125 540.000976562 482.001953125 c 2
 551.000976562 482.001953125 l 1
 554.000976562 480.001953125 l 1
 554.000976562 470.001953125 l 1
 547.000976562 464.001953125 l 2
 542.333984375 460.001953125 539.000976562 457.001953125 537.000976562 455.001953125 c 2
 496.000976562 424.001953125 l 2
 495.333984375 423.334960938 494.500976562 421.16796875 493.500976562 417.500976562 c 0
 492.500976562 413.833984375 491.333984375 410.333984375 490.000976562 407.000976562 c 0
 488.66796875 401.66796875 487.500976562 397.500976562 486.500976562 394.500976562 c 0
 485.500976562 391.500976562 484.333984375 388.66796875 483.000976562 386.000976562 c 2
 466.000976562 383.000976562 l 1
 465.000976562 377.000976562 l 2
 455.66796875 341.000976562 444.16796875 305.833984375 430.500976562 271.500976562 c 0
 416.833984375 237.16796875 398.000976562 203.000976562 374.000976562 169.000976562 c 0
 357.333984375 145.000976562 337.166992188 122.66796875 313.5 102.000976562 c 0
 289.833007812 81.333984375 264.666015625 63.333984375 237.999023438 48.0009765625 c 0
 211.33203125 32.66796875 183.999023438 20.66796875 155.999023438 12.0009765625 c 0
 127.999023438 3.333984375 101.33203125 -0.9990234375 75.9990234375 -0.9990234375 c 0
 72.666015625 -0.9990234375 70.8330078125 -0.33203125 70.5 1.0009765625 c 0
 70.1669921875 2.333984375 69.6669921875 4.6669921875 69 8 c 2
 68 13 l 2
 69.3330078125 25.6669921875 70.3330078125 40 71 56 c 0
 71.6669921875 72 72.5 88.1669921875 73.5 104.5 c 0
 74.5 120.833007812 75.8330078125 137 77.5 153 c 0
 79.1669921875 169 81.6669921875 183.666992188 85 197 c 2
 86 202 l 1
 130 204.666992188 172.5 213.333984375 213.5 228.000976562 c 0
 254.5 242.66796875 294 268.000976562 332 304.000976562 c 0
 342 314.000976562 351.333007812 324.16796875 360 334.500976562 c 0
 368.666992188 344.833984375 376.666992188 355.666992188 384 367 c 1
 371 365 l 1
EndSplineSet
EndChar

StartChar: four
Encoding: 52 52 22
Width: 481
GlyphClass: 2
Flags: W
LayerCount: 2
Fore
SplineSet
131 400 m 0
 137.666992188 426 144.34375 450.500976562 151.010742188 473.500976562 c 0
 157.677734375 496.500976562 164.677734375 519.16796875 172.010742188 541.500976562 c 0
 179.34375 563.833984375 187.34375 586.166992188 196.010742188 608.5 c 0
 204.677734375 630.833007812 214.677734375 654.333007812 226.010742188 679 c 0
 226.677734375 680.333007812 227.177734375 681.166015625 227.510742188 681.499023438 c 0
 227.84375 681.83203125 228.010742188 682.33203125 228.010742188 682.999023438 c 2
 230.010742188 686.999023438 l 2
 233.34375 692.999023438 235.676757812 696.666015625 237.009765625 697.999023438 c 0
 238.342773438 699.33203125 242.009765625 699.999023438 248.009765625 699.999023438 c 0
 249.342773438 699.999023438 251.009765625 699.83203125 253.009765625 699.499023438 c 0
 255.009765625 699.166015625 256.342773438 698.999023438 257.009765625 698.999023438 c 0
 261.009765625 698.33203125 267.842773438 696.83203125 277.509765625 694.499023438 c 0
 287.176757812 692.166015625 297.676757812 689.499023438 309.009765625 686.499023438 c 0
 320.342773438 683.499023438 331.17578125 680.499023438 341.508789062 677.499023438 c 0
 351.841796875 674.499023438 359.674804688 671.999023438 365.0078125 669.999023438 c 0
 366.340820312 669.999023438 367.340820312 669.83203125 368.0078125 669.499023438 c 2
 369.0078125 668.999023438 l 1
 365.0078125 648.999023438 l 2
 363.674804688 644.999023438 363.0078125 641.999023438 363.0078125 639.999023438 c 0
 363.0078125 636.666015625 362.674804688 634.666015625 362.0078125 633.999023438 c 0
 361.340820312 630.666015625 360.5078125 628.166015625 359.5078125 626.499023438 c 0
 358.5078125 624.83203125 357.174804688 622.83203125 355.5078125 620.499023438 c 0
 353.840820312 618.166015625 351.840820312 614.666015625 349.5078125 609.999023438 c 0
 347.174804688 605.33203125 344.341796875 598.33203125 341.008789062 588.999023438 c 0
 338.341796875 582.999023438 333.341796875 570.499023438 326.008789062 551.499023438 c 0
 318.67578125 532.499023438 310.842773438 511.999023438 302.509765625 489.999023438 c 0
 294.176757812 467.999023438 286.34375 447.33203125 279.010742188 427.999023438 c 0
 271.677734375 408.666015625 267.010742188 395.999023438 265.010742188 389.999023438 c 1
 274.010742188 389.999023438 l 2
 282.010742188 389.999023438 291.84375 390.83203125 303.510742188 392.499023438 c 0
 315.177734375 394.166015625 327.177734375 396.833007812 339.510742188 400.5 c 0
 351.84375 404.166992188 363.676757812 409.166992188 375.009765625 415.5 c 0
 386.342773438 421.833007812 395.67578125 429.666015625 403.008789062 438.999023438 c 1
 415.008789062 483.999023438 l 2
 423.008789062 515.999023438 430.17578125 548.999023438 436.508789062 582.999023438 c 0
 442.841796875 616.999023438 446.674804688 652.33203125 448.0078125 688.999023438 c 1
 457.0078125 689.999023438 l 2
 470.340820312 689.999023438 480.840820312 684.999023438 488.5078125 674.999023438 c 0
 496.174804688 664.999023438 502.0078125 652.666015625 506.0078125 637.999023438 c 0
 510.0078125 623.33203125 513.174804688 606.999023438 515.5078125 588.999023438 c 0
 517.840820312 570.999023438 520.5078125 554.33203125 523.5078125 538.999023438 c 0
 526.5078125 523.666015625 530.340820312 510.333007812 535.0078125 499 c 0
 539.674804688 487.666992188 547.0078125 481 557.0078125 479 c 2
 561.0078125 479 l 2
 569.0078125 479 575.340820312 480.333007812 580.0078125 483 c 1
 552.0078125 400 l 1
 550.0078125 329 l 2
 550.0078125 327 549.674804688 324.333007812 549.0078125 321 c 2
 548.0078125 315 l 1
 513.0078125 315 l 1
 512.340820312 309 510.673828125 298.166992188 508.006835938 282.5 c 0
 505.33984375 266.833007812 502.172851562 250.333007812 498.505859375 233 c 0
 494.838867188 215.666992188 491.338867188 199 488.005859375 183 c 0
 484.672851562 167 482.005859375 156 480.005859375 150 c 2
 474.005859375 124 l 2
 470.672851562 112.666992188 467.672851562 102.5 465.005859375 93.5 c 2
 457.005859375 66.5 l 2
 454.338867188 57.5 451.171875 47.8330078125 447.504882812 37.5 c 0
 443.837890625 27.1669921875 439.337890625 14.6669921875 434.004882812 0 c 1
 414.004882812 0 l 2
 408.004882812 0 397.004882812 0.5 381.004882812 1.5 c 0
 365.004882812 2.5 348.837890625 4.5 332.504882812 7.5 c 0
 316.171875 10.5 302.004882812 14.5 290.004882812 19.5 c 0
 278.004882812 24.5 273.004882812 31 275.004882812 39 c 2
 278.004882812 50 l 2
 279.337890625 54 282.004882812 60.6669921875 286.004882812 70 c 0
 290.004882812 79.3330078125 293.337890625 86 296.004882812 90 c 2
 387.004882812 300 l 1
 255.004882812 300 l 2
 239.671875 302.666992188 226.171875 304.5 214.504882812 305.5 c 0
 202.837890625 306.5 191.670898438 307.5 181.00390625 308.5 c 0
 170.336914062 309.5 160.169921875 310.833007812 150.502929688 312.5 c 0
 140.8359375 314.166992188 130.668945312 316.666992188 120.001953125 320 c 0
 119.334960938 320 117.66796875 322 115.000976562 326 c 0
 112.333984375 330 109.500976562 334.5 106.500976562 339.5 c 0
 103.500976562 344.5 100.833984375 349 98.5009765625 353 c 0
 96.16796875 357 95.0009765625 359.333007812 95.0009765625 360 c 2
 95.0009765625 364 l 2
 95.66796875 365.333007812 96.16796875 366.5 96.5009765625 367.5 c 2
 97.0009765625 369 l 2
 99.66796875 373 105.16796875 378.5 113.500976562 385.5 c 0
 121.833984375 392.5 127.666992188 397.333007812 131 400 c 0
EndSplineSet
EndChar

StartChar: five
Encoding: 53 53 23
Width: 439
GlyphClass: 2
Flags: W
LayerCount: 2
Fore
SplineSet
575 610 m 0
 571.666992188 596 566.669921875 581.8359375 560.002929688 567.502929688 c 0
 553.3359375 553.169921875 545.8359375 539.336914062 537.502929688 526.00390625 c 0
 529.169921875 512.670898438 520.169921875 500.337890625 510.502929688 489.004882812 c 0
 500.8359375 477.671875 491.3359375 467.671875 482.002929688 459.004882812 c 1
 479.002929688 459.004882812 l 1
 473.669921875 466.337890625 469.002929688 477.504882812 465.002929688 492.504882812 c 0
 461.002929688 507.504882812 457.002929688 520.004882812 453.002929688 530.004882812 c 0
 445.669921875 546.004882812 437.002929688 559.171875 427.002929688 569.504882812 c 0
 417.002929688 579.837890625 405.8359375 587.837890625 393.502929688 593.504882812 c 0
 381.169921875 599.171875 367.669921875 603.004882812 353.002929688 605.004882812 c 0
 338.3359375 607.004882812 322.3359375 608.004882812 305.002929688 608.004882812 c 0
 301.669921875 608.004882812 299.336914062 606.337890625 298.00390625 603.004882812 c 0
 289.336914062 567.671875 284.50390625 537.004882812 283.50390625 511.004882812 c 0
 282.50390625 485.004882812 284.670898438 462.504882812 290.00390625 443.504882812 c 0
 295.336914062 424.504882812 303.836914062 408.171875 315.50390625 394.504882812 c 0
 327.170898438 380.837890625 341.670898438 368.337890625 359.00390625 357.004882812 c 0
 378.336914062 343.671875 399.50390625 334.671875 422.50390625 330.004882812 c 0
 445.50390625 325.337890625 468.670898438 323.004882812 492.00390625 323.004882812 c 1
 490.670898438 317.671875 488.670898438 311.504882812 486.00390625 304.504882812 c 0
 483.336914062 297.504882812 480.50390625 290.337890625 477.50390625 283.004882812 c 0
 474.50390625 275.671875 471.336914062 268.671875 468.00390625 262.004882812 c 0
 464.670898438 255.337890625 461.670898438 249.670898438 459.00390625 245.00390625 c 0
 407.00390625 166.336914062 350.00390625 105.669921875 288.00390625 63.0029296875 c 0
 226.00390625 20.3359375 164.670898438 -0.9970703125 104.00390625 -0.9970703125 c 0
 96.00390625 -0.9970703125 90.6708984375 8.669921875 88.00390625 28.0029296875 c 0
 85.3369140625 47.3359375 84.3369140625 69.6689453125 85.00390625 95.001953125 c 0
 85.6708984375 120.334960938 87.337890625 145.16796875 90.0048828125 169.500976562 c 0
 92.671875 193.833984375 95.3388671875 211.000976562 98.005859375 221.000976562 c 1
 99.505859375 220.500976562 l 2
 100.505859375 220.16796875 101.005859375 219.66796875 101.005859375 219.000976562 c 0
 120.338867188 201.000976562 140.005859375 186.000976562 160.005859375 174.000976562 c 0
 180.005859375 162.000976562 204.005859375 156.000976562 232.005859375 156.000976562 c 0
 246.005859375 156.000976562 259.172851562 159.000976562 271.505859375 165.000976562 c 0
 283.838867188 171.000976562 296.171875 178.66796875 308.504882812 188.000976562 c 0
 320.837890625 197.333984375 333.504882812 207.666992188 346.504882812 219 c 0
 359.504882812 230.333007812 373.337890625 241.333007812 388.004882812 252 c 1
 392.004882812 261 l 1
 392.004882812 263 l 1
 386.671875 268.333007812 379.171875 271.666015625 369.504882812 272.999023438 c 0
 359.837890625 274.33203125 350.004882812 274.999023438 340.004882812 274.999023438 c 0
 334.671875 274.999023438 328.504882812 275.499023438 321.504882812 276.499023438 c 0
 314.504882812 277.499023438 307.837890625 278.499023438 301.504882812 279.499023438 c 0
 295.171875 280.499023438 289.504882812 281.499023438 284.504882812 282.499023438 c 0
 279.504882812 283.499023438 276.004882812 284.33203125 274.004882812 284.999023438 c 0
 259.337890625 291.666015625 245.170898438 298.999023438 231.50390625 306.999023438 c 0
 217.836914062 314.999023438 205.169921875 324.33203125 193.502929688 334.999023438 c 0
 181.8359375 345.666015625 171.3359375 358.499023438 162.002929688 373.499023438 c 0
 152.669921875 388.499023438 145.002929688 406.33203125 139.002929688 426.999023438 c 0
 138.3359375 429.666015625 136.8359375 434.666015625 134.502929688 441.999023438 c 0
 132.169921875 449.33203125 131.336914062 453.999023438 132.00390625 455.999023438 c 2
 129.00390625 473.999023438 l 1
 144.00390625 534.999023438 l 1
 201.00390625 664.999023438 l 2
 207.00390625 678.33203125 211.50390625 687.33203125 214.50390625 691.999023438 c 0
 217.50390625 696.666015625 221.336914062 698.999023438 226.00390625 698.999023438 c 0
 231.336914062 698.999023438 238.336914062 697.666015625 247.00390625 694.999023438 c 0
 255.670898438 692.33203125 269.00390625 690.999023438 287.00390625 690.999023438 c 2
 441.00390625 690.999023438 l 1
 446.00390625 689.999023438 l 2
 448.00390625 689.999023438 452.336914062 689.499023438 459.00390625 688.499023438 c 0
 465.670898438 687.499023438 471.670898438 686.33203125 477.00390625 684.999023438 c 0
 480.336914062 684.33203125 482.669921875 683.665039062 484.002929688 682.998046875 c 0
 485.3359375 682.331054688 489.668945312 680.998046875 497.001953125 678.998046875 c 0
 500.334960938 677.665039062 503.16796875 676.665039062 505.500976562 675.998046875 c 0
 507.833984375 675.331054688 509.666992188 673.998046875 511 671.998046875 c 0
 513 671.998046875 516.333007812 670.998046875 521 668.998046875 c 0
 525.666992188 666.998046875 529 665.331054688 531 663.998046875 c 0
 532.333007812 662.665039062 534.833007812 660.33203125 538.5 656.999023438 c 0
 542.166992188 653.666015625 545.666992188 651.333007812 549 650 c 2
 557 644 l 2
 561 638.666992188 565.5 633.5 570.5 628.5 c 0
 575.5 623.5 577 617.333007812 575 610 c 0
EndSplineSet
EndChar

StartChar: six
Encoding: 54 54 24
Width: 447
GlyphClass: 2
Flags: W
LayerCount: 2
Fore
SplineSet
316 374 m 0
 349.333007812 394 379.504882812 406.666015625 406.504882812 411.999023438 c 0
 433.504882812 417.33203125 460.337890625 420.999023438 487.004882812 422.999023438 c 2
 499.004882812 423.999023438 l 1
 498.337890625 403.999023438 499.504882812 383.83203125 502.504882812 363.499023438 c 0
 505.504882812 343.166015625 504.337890625 322.999023438 499.004882812 302.999023438 c 2
 492.004882812 277.999023438 l 1
 458.004882812 172.999023438 l 1
 485.004882812 172.999023438 l 1
 481.671875 158.999023438 474.338867188 143.83203125 463.005859375 127.499023438 c 0
 451.672851562 111.166015625 438.672851562 94.9990234375 424.005859375 78.9990234375 c 0
 409.338867188 62.9990234375 394.171875 47.9990234375 378.504882812 33.9990234375 c 0
 362.837890625 19.9990234375 349.004882812 8.666015625 337.004882812 -0.0009765625 c 1
 332.337890625 3.33203125 329.837890625 8.9990234375 329.504882812 16.9990234375 c 0
 329.171875 24.9990234375 329.004882812 31.666015625 329.004882812 36.9990234375 c 1
 309.004882812 34.9990234375 290.337890625 33.9990234375 273.004882812 33.9990234375 c 0
 188.337890625 33.9990234375 132.337890625 56.83203125 105.004882812 102.499023438 c 0
 77.671875 148.166015625 75.671875 218.666015625 99.0048828125 313.999023438 c 0
 112.337890625 367.33203125 131.170898438 415.999023438 155.50390625 459.999023438 c 0
 179.836914062 503.999023438 212.669921875 547.999023438 254.002929688 591.999023438 c 1
 243.3359375 594.666015625 239.002929688 599.333007812 241.002929688 606 c 0
 242.3359375 609.333007812 244.168945312 613.833007812 246.501953125 619.5 c 0
 248.834960938 625.166992188 251.334960938 632.666992188 254.001953125 642 c 2
 255.001953125 646 l 1
 269.001953125 652 282.168945312 658.5 294.501953125 665.5 c 0
 306.834960938 672.5 319.16796875 678.833007812 331.500976562 684.5 c 0
 343.833984375 690.166992188 356.166992188 695 368.5 699 c 0
 380.833007812 703 393.666015625 705 406.999023438 705 c 0
 413.666015625 705 419.999023438 704 425.999023438 702 c 2
 446.999023438 696 l 1
 444.999023438 694 443.166015625 690.166992188 441.499023438 684.5 c 0
 439.83203125 678.833007812 438.33203125 675 436.999023438 673 c 2
 434.999023438 665 l 1
 438.999023438 663.666992188 445.33203125 661.333984375 453.999023438 658.000976562 c 0
 462.666015625 654.66796875 471.999023438 651.16796875 481.999023438 647.500976562 c 0
 491.999023438 643.833984375 501.499023438 640.166992188 510.499023438 636.5 c 0
 519.499023438 632.833007812 525.666015625 630 528.999023438 628 c 0
 537.666015625 624 545.666015625 619.333007812 552.999023438 614 c 0
 560.33203125 608.666992188 566.33203125 601.333984375 570.999023438 592.000976562 c 1
 552.999023438 574.66796875 538.166015625 557.66796875 526.499023438 541.000976562 c 0
 514.83203125 524.333984375 501.33203125 506.000976562 485.999023438 486.000976562 c 1
 477.999023438 486.000976562 l 1
 473.999023438 491.333984375 467.33203125 499.333984375 457.999023438 510.000976562 c 0
 448.666015625 520.66796875 437.999023438 531.334960938 425.999023438 542.001953125 c 0
 413.999023438 552.668945312 401.499023438 562.001953125 388.499023438 570.001953125 c 0
 375.499023438 578.001953125 363.666015625 582.001953125 352.999023438 582.001953125 c 0
 348.999023438 582.001953125 346.666015625 581.668945312 345.999023438 581.001953125 c 0
 335.999023438 579.001953125 325.166015625 570.001953125 313.499023438 554.001953125 c 0
 301.83203125 538.001953125 290.83203125 520.001953125 280.499023438 500.001953125 c 0
 270.166015625 480.001953125 261.166015625 460.334960938 253.499023438 441.001953125 c 0
 245.83203125 421.668945312 240.999023438 407.668945312 238.999023438 399.001953125 c 0
 235.666015625 383.001953125 232.833007812 367.168945312 230.5 351.501953125 c 0
 228.166992188 335.834960938 227 320.66796875 227 306.000976562 c 1
 231 309.333984375 236.5 314.000976562 243.5 320.000976562 c 0
 250.5 326.000976562 258 332.500976562 266 339.500976562 c 0
 274 346.500976562 282.333007812 353.16796875 291 359.500976562 c 0
 299.666992188 365.833984375 308 370.666992188 316 374 c 0
350.004882812 158.999023438 m 1
 355.337890625 182.33203125 356.836914062 205.83203125 354.50390625 229.499023438 c 0
 352.170898438 253.166015625 348.00390625 275.999023438 342.00390625 297.999023438 c 1
 296.00390625 288.999023438 l 1
 237.00390625 250.999023438 l 1
 239.670898438 215.666015625 249.337890625 191.499023438 266.004882812 178.499023438 c 0
 282.671875 165.499023438 310.671875 158.999023438 350.004882812 158.999023438 c 1
EndSplineSet
EndChar

StartChar: seven
Encoding: 55 55 25
Width: 462
GlyphClass: 2
Flags: W
LayerCount: 2
Fore
SplineSet
222 26 m 2
 207.333007812 9.3330078125 193.666992188 1.0029296875 181 1.0029296875 c 0
 173.666992188 1.0029296875 165.333984375 3.8359375 156.000976562 9.5029296875 c 0
 146.66796875 15.169921875 137.334960938 22.669921875 128.001953125 32.0029296875 c 0
 118.668945312 41.3359375 110.001953125 52.3359375 102.001953125 65.0029296875 c 0
 94.001953125 77.669921875 87.3349609375 91.0029296875 82.001953125 105.002929688 c 1
 94.001953125 129.002929688 l 2
 96.001953125 131.002929688 98.1689453125 132.8359375 100.501953125 134.502929688 c 0
 102.834960938 136.169921875 105.001953125 137.669921875 107.001953125 139.002929688 c 0
 121.001953125 150.3359375 134.334960938 161.502929688 147.001953125 172.502929688 c 0
 159.668945312 183.502929688 173.168945312 196.002929688 187.501953125 210.002929688 c 0
 201.834960938 224.002929688 217.66796875 240.669921875 235.000976562 260.002929688 c 0
 252.333984375 279.3359375 272.000976562 303.002929688 294.000976562 331.002929688 c 0
 316.000976562 359.002929688 341.16796875 392.002929688 369.500976562 430.002929688 c 0
 397.833984375 468.002929688 430.666992188 512.669921875 468 564.002929688 c 0
 468 565.3359375 464.666992188 566.002929688 458 566.002929688 c 2
 441 566.002929688 l 2
 426.333007812 566.002929688 405.833007812 563.669921875 379.5 559.002929688 c 0
 353.166992188 554.3359375 325.666992188 548.668945312 297 542.001953125 c 0
 268.333007812 535.334960938 240.5 528.001953125 213.5 520.001953125 c 0
 186.5 512.001953125 165 504.668945312 149 498.001953125 c 1
 187 650.001953125 l 2
 187 650.668945312 189.333007812 652.168945312 194 654.501953125 c 0
 198.666992188 656.834960938 203 658.66796875 207 660.000976562 c 0
 216.333007812 664.66796875 227.166015625 669.000976562 239.499023438 673.000976562 c 0
 251.83203125 677.000976562 262.665039062 679.333984375 271.998046875 680.000976562 c 2
 281.998046875 680.000976562 l 2
 286.665039062 680.000976562 292.998046875 680.333984375 300.998046875 681.000976562 c 0
 308.998046875 681.66796875 320.665039062 682.000976562 335.998046875 682.000976562 c 0
 353.998046875 682.000976562 376.331054688 681.16796875 402.998046875 679.500976562 c 0
 429.665039062 677.833984375 455.998046875 673.833984375 481.998046875 667.500976562 c 0
 507.998046875 661.16796875 531.498046875 652.16796875 552.498046875 640.500976562 c 0
 573.498046875 628.833984375 587.665039062 613.000976562 594.998046875 593.000976562 c 1
 581.998046875 576.000976562 l 2
 549.998046875 532.66796875 525.331054688 497.66796875 507.998046875 471.000976562 c 0
 490.665039062 444.333984375 477.33203125 421.833984375 467.999023438 403.500976562 c 0
 458.666015625 385.16796875 451.333007812 369.000976562 446 355.000976562 c 0
 440.666992188 341.000976562 434 325.16796875 426 307.500976562 c 0
 418 289.833984375 406.5 268.166992188 391.5 242.5 c 0
 376.5 216.833007812 354.666992188 183 326 141 c 1
 222 26 l 2
EndSplineSet
EndChar

StartChar: eight
Encoding: 56 56 26
Width: 509
GlyphClass: 2
Flags: W
LayerCount: 2
Fore
SplineSet
217 -12 m 1
 181 0 153 18 133 42 c 0
 122.333007812 53.3330078125 112.833007812 67.666015625 104.5 84.9990234375 c 0
 96.1669921875 102.33203125 89.6669921875 120.83203125 85 140.499023438 c 0
 80.3330078125 160.166015625 77.8330078125 180.499023438 77.5 201.499023438 c 0
 77.1669921875 222.499023438 79.333984375 241.999023438 84.0009765625 259.999023438 c 0
 93.333984375 297.33203125 109.333984375 323.665039062 132.000976562 338.998046875 c 0
 154.66796875 354.331054688 180.66796875 363.331054688 210.000976562 365.998046875 c 1
 202.000976562 376.665039062 194.66796875 387.33203125 188.000976562 397.999023438 c 0
 181.333984375 408.666015625 176.000976562 419.499023438 172.000976562 430.499023438 c 0
 168.000976562 441.499023438 165.66796875 453.166015625 165.000976562 465.499023438 c 0
 164.333984375 477.83203125 166.000976562 491.665039062 170.000976562 506.998046875 c 2
 171.000976562 509.998046875 l 2
 177.66796875 536.665039062 188.16796875 560.665039062 202.500976562 581.998046875 c 0
 216.833984375 603.331054688 233.666992188 621.498046875 253 636.498046875 c 0
 272.333007812 651.498046875 293.833007812 662.998046875 317.5 670.998046875 c 0
 341.166992188 678.998046875 365.666992188 682.998046875 391 682.998046875 c 2
 423 685.998046875 l 1
 449 573.998046875 l 1
 506 648.998046875 l 1
 512 642.998046875 l 2
 526 629.665039062 539.666992188 615.998046875 553 601.998046875 c 0
 566.333007812 587.998046875 577.5 572.831054688 586.5 556.498046875 c 0
 595.5 540.165039062 601.666992188 522.33203125 605 502.999023438 c 0
 608.333007812 483.666015625 607 461.999023438 601 437.999023438 c 0
 591.666992188 399.999023438 575.666992188 373.499023438 553 358.499023438 c 0
 530.333007812 343.499023438 504.333007812 334.666015625 475 331.999023438 c 1
 491 308.666015625 502.5 282.999023438 509.5 254.999023438 c 0
 516.5 226.999023438 516 196.999023438 508 164.999023438 c 0
 500.666992188 135.666015625 490.5 111.333007812 477.5 92 c 0
 464.5 72.6669921875 449 57.1669921875 431 45.5 c 0
 413 33.8330078125 393.166992188 25.5 371.5 20.5 c 0
 349.833007812 15.5 327 12.6669921875 303 12 c 1
 262 63 l 1
 217 -12 l 1
430 553 m 2
 418 552.333007812 404.666992188 551.166992188 390 549.5 c 0
 375.333007812 547.833007812 361.5 544.833007812 348.5 540.5 c 0
 335.5 536.166992188 324 530 314 522 c 0
 304 514 297.333007812 503 294 489 c 0
 290.666992188 477 290.666992188 465.5 294 454.5 c 0
 297.333007812 443.5 302.5 433.166992188 309.5 423.5 c 0
 316.5 413.833007812 324.833007812 404.833007812 334.5 396.5 c 0
 344.166992188 388.166992188 354 381 364 375 c 0
 370 372.333007812 375.833007812 369.833007812 381.5 367.5 c 0
 387.166992188 365.166992188 392.666992188 363 398 361 c 0
 405.333007812 363 412.5 367.333007812 419.5 374 c 0
 426.5 380.666992188 433 388.333984375 439 397.000976562 c 0
 445 405.66796875 450.166992188 415.000976562 454.5 425.000976562 c 0
 458.833007812 435.000976562 462 444.333984375 464 453.000976562 c 0
 466 462.333984375 465.666992188 469.666992188 463 475 c 0
 460.333007812 480.333007812 456.5 485 451.5 489 c 0
 446.5 493 440.666992188 497.166992188 434 501.5 c 0
 427.333007812 505.833007812 421 511.333007812 415 518 c 1
 436 553 l 1
 430 553 l 2
288 104.000976562 m 1
 297.333007812 108.000976562 307.001953125 113.001953125 317.001953125 119.001953125 c 0
 327.001953125 125.001953125 336.334960938 131.668945312 345.001953125 139.001953125 c 0
 353.668945312 146.334960938 361.168945312 154.001953125 367.501953125 162.001953125 c 0
 373.834960938 170.001953125 378.001953125 178.001953125 380.001953125 186.001953125 c 0
 386.001953125 209.334960938 382.501953125 230.334960938 369.501953125 249.001953125 c 0
 356.501953125 267.668945312 340.334960938 283.668945312 321.001953125 297.001953125 c 0
 311.001953125 300.334960938 300.334960938 305.001953125 289.001953125 311.001953125 c 1
 281.668945312 309.001953125 274.001953125 306.001953125 266.001953125 302.001953125 c 0
 258.001953125 298.001953125 250.168945312 293.168945312 242.501953125 287.501953125 c 0
 234.834960938 281.834960938 228.16796875 275.334960938 222.500976562 268.001953125 c 0
 216.833984375 260.668945312 213.000976562 253.001953125 211.000976562 245.001953125 c 0
 207.66796875 232.334960938 208.66796875 221.16796875 214.000976562 211.500976562 c 0
 219.333984375 201.833984375 226.666992188 193.000976562 236 185.000976562 c 0
 245.333007812 177.000976562 255.5 169.333984375 266.5 162.000976562 c 0
 277.5 154.66796875 287.666992188 147.66796875 297 141.000976562 c 1
 288 104.000976562 l 1
EndSplineSet
EndChar

StartChar: nine
Encoding: 57 57 27
Width: 478
GlyphClass: 2
Flags: W
LayerCount: 2
Fore
SplineSet
399 48 m 1
 381.666992188 32.6669921875 363.502929688 20.330078125 344.502929688 10.9970703125 c 0
 325.502929688 1.6640625 301.002929688 -3.0029296875 271.002929688 -3.0029296875 c 0
 259.669921875 -3.0029296875 246.002929688 -2.0029296875 230.002929688 -0.0029296875 c 1
 206.002929688 28.9970703125 l 1
 252.669921875 54.330078125 291.669921875 85.830078125 323.002929688 123.497070312 c 0
 354.3359375 161.1640625 379.002929688 203.331054688 397.002929688 249.998046875 c 2
 398.002929688 252.998046875 l 2
 400.669921875 263.665039062 395.002929688 270.998046875 381.002929688 274.998046875 c 0
 349.002929688 282.998046875 317.002929688 291.498046875 285.002929688 300.498046875 c 0
 253.002929688 309.498046875 227.002929688 322.665039062 207.002929688 339.998046875 c 0
 196.3359375 351.998046875 186.3359375 365.165039062 177.002929688 379.498046875 c 0
 167.669921875 393.831054688 160.002929688 408.998046875 154.002929688 424.998046875 c 0
 148.002929688 440.998046875 144.169921875 457.831054688 142.502929688 475.498046875 c 0
 140.8359375 493.165039062 142.3359375 511.665039062 147.002929688 530.998046875 c 0
 155.002929688 561.665039062 168.002929688 586.33203125 186.002929688 604.999023438 c 0
 204.002929688 623.666015625 224.8359375 637.999023438 248.502929688 647.999023438 c 0
 272.169921875 657.999023438 297.336914062 664.666015625 324.00390625 667.999023438 c 0
 350.670898438 671.33203125 376.670898438 672.999023438 402.00390625 672.999023438 c 0
 414.00390625 672.999023438 425.670898438 672.83203125 437.00390625 672.499023438 c 0
 448.336914062 672.166015625 458.669921875 671.666015625 468.002929688 670.999023438 c 1
 509.002929688 696.999023438 l 1
 511.002929688 692.999023438 515.669921875 687.999023438 523.002929688 681.999023438 c 0
 530.3359375 675.999023438 538.002929688 670.166015625 546.002929688 664.499023438 c 0
 554.002929688 658.83203125 561.002929688 653.83203125 567.002929688 649.499023438 c 2
 576.002929688 642.999023438 l 2
 575.3359375 639.666015625 574.668945312 634.333007812 574.001953125 627 c 0
 573.334960938 619.666992188 572.834960938 611.833984375 572.501953125 603.500976562 c 0
 572.168945312 595.16796875 571.668945312 587.000976562 571.001953125 579.000976562 c 0
 570.334960938 571.000976562 569.66796875 565.000976562 569.000976562 561.000976562 c 0
 567.66796875 557.66796875 566.66796875 556.000976562 566.000976562 556.000976562 c 0
 562.000976562 556.000976562 560.000976562 556.333984375 560.000976562 557.000976562 c 0
 560.000976562 558.333984375 557.000976562 559.000976562 551.000976562 559.000976562 c 1
 547.000976562 541.66796875 543.500976562 522.66796875 540.500976562 502.000976562 c 0
 537.500976562 481.333984375 534.833984375 460.666992188 532.500976562 440 c 0
 530.16796875 419.333007812 528.000976562 399.5 526.000976562 380.5 c 0
 524.000976562 361.5 522.000976562 345 520.000976562 331 c 1
 552.000976562 314 l 1
 550.000976562 306 l 2
 546.000976562 303.333007812 538.833984375 299 528.500976562 293 c 0
 518.16796875 287 511.000976562 282.666992188 507.000976562 280 c 0
 505.66796875 280 503.834960938 279 501.501953125 277 c 0
 499.168945312 275 497.668945312 273.333007812 497.001953125 272 c 0
 490.334960938 251.333007812 483.66796875 231.833007812 477.000976562 213.5 c 0
 470.333984375 195.166992188 463.166992188 177 455.5 159 c 0
 447.833007812 141 439.5 123 430.5 105 c 0
 421.5 87 411 68 399 48 c 1
445.002929688 506.99609375 m 0
 446.3359375 510.329101562 447.502929688 515.163085938 448.502929688 521.49609375 c 0
 449.502929688 527.829101562 450.669921875 533.662109375 452.002929688 538.995117188 c 2
 458.002929688 560.995117188 l 1
 445.002929688 577.995117188 l 1
 436.502929688 578.995117188 l 2
 430.8359375 579.662109375 425.668945312 579.995117188 421.001953125 579.995117188 c 2
 412.001953125 579.995117188 l 2
 400.001953125 579.995117188 387.668945312 579.328125 375.001953125 577.995117188 c 0
 362.334960938 576.662109375 350.501953125 573.495117188 339.501953125 568.495117188 c 0
 328.501953125 563.495117188 318.834960938 556.328125 310.501953125 546.995117188 c 0
 302.168945312 537.662109375 296.001953125 525.329101562 292.001953125 509.99609375 c 0
 288.001953125 493.99609375 289.168945312 478.663085938 295.501953125 463.99609375 c 0
 301.834960938 449.329101562 310.834960938 435.829101562 322.501953125 423.49609375 c 0
 334.168945312 411.163085938 347.3359375 400.163085938 362.002929688 390.49609375 c 0
 376.669921875 380.829101562 390.336914062 372.99609375 403.00390625 366.99609375 c 0
 405.00390625 365.663085938 407.00390625 364.830078125 409.00390625 364.497070312 c 0
 411.00390625 364.1640625 412.670898438 363.331054688 414.00390625 361.998046875 c 1
 419.336914062 367.331054688 423.50390625 373.1640625 426.50390625 379.497070312 c 0
 429.50390625 385.830078125 432.00390625 392.663085938 434.00390625 399.99609375 c 2
 444.00390625 454.99609375 l 2
 446.670898438 464.99609375 447.170898438 474.49609375 445.50390625 483.49609375 c 0
 443.836914062 492.49609375 443.669921875 500.329101562 445.002929688 506.99609375 c 0
EndSplineSet
EndChar

StartChar: colon
Encoding: 58 58 28
Width: 172
GlyphClass: 2
Flags: W
LayerCount: 2
Fore
SplineSet
169 70 m 2
 167 63.3330078125 165.663085938 58.6650390625 164.99609375 55.998046875 c 0
 164.329101562 53.3310546875 163.49609375 50.998046875 162.49609375 48.998046875 c 2
 157.99609375 39.998046875 l 2
 155.99609375 35.998046875 152.329101562 29.6650390625 146.99609375 20.998046875 c 0
 144.99609375 18.998046875 143.49609375 16.6650390625 142.49609375 13.998046875 c 0
 141.49609375 11.3310546875 139.663085938 8.3310546875 136.99609375 4.998046875 c 2
 129.99609375 -6.001953125 l 2
 126.663085938 -10.001953125 123.830078125 -13.6689453125 121.497070312 -17.001953125 c 0
 119.1640625 -20.3349609375 115.6640625 -22.001953125 110.997070312 -22.001953125 c 0
 109.6640625 -22.001953125 107.831054688 -21.8349609375 105.498046875 -21.501953125 c 0
 103.165039062 -21.1689453125 101.665039062 -21.001953125 100.998046875 -21.001953125 c 0
 91.6650390625 -19.6689453125 80.33203125 -16.6689453125 66.9990234375 -12.001953125 c 0
 53.666015625 -7.3349609375 41.3330078125 -3.3349609375 30 -0.001953125 c 1
 22 24.998046875 l 1
 26 37.998046875 l 1
 51 92.998046875 l 2
 54.3330078125 101.665039062 57.3330078125 107.33203125 60 109.999023438 c 0
 62.6669921875 112.666015625 68.6669921875 116.333007812 78 121 c 1
 168 102 l 1
 173 83 l 1
 169 70 l 2
247.99609375 384.999023438 m 2
 245.329101562 378.33203125 243.827148438 373.6640625 243.494140625 370.997070312 c 0
 243.161132812 368.330078125 242.494140625 365.997070312 241.494140625 363.997070312 c 2
 236.994140625 354.997070312 l 2
 234.994140625 350.997070312 231.327148438 344.6640625 225.994140625 335.997070312 c 0
 223.994140625 333.997070312 222.494140625 331.6640625 221.494140625 328.997070312 c 0
 220.494140625 326.330078125 218.661132812 323.330078125 215.994140625 319.997070312 c 2
 207.994140625 308.997070312 l 2
 204.661132812 304.997070312 201.828125 301.330078125 199.495117188 297.997070312 c 0
 197.162109375 294.6640625 193.662109375 292.997070312 188.995117188 292.997070312 c 0
 187.662109375 292.997070312 185.829101562 293.1640625 183.49609375 293.497070312 c 0
 181.163085938 293.830078125 179.663085938 293.997070312 178.99609375 293.997070312 c 0
 169.663085938 295.330078125 158.49609375 298.330078125 145.49609375 302.997070312 c 0
 132.49609375 307.6640625 120.329101562 311.6640625 108.99609375 314.997070312 c 1
 100.99609375 339.997070312 l 1
 104.99609375 352.997070312 l 1
 129.99609375 407.997070312 l 2
 133.329101562 416.6640625 136.329101562 422.331054688 138.99609375 424.998046875 c 0
 141.663085938 427.665039062 147.663085938 431.33203125 156.99609375 435.999023438 c 1
 246.99609375 416.999023438 l 1
 250.99609375 397.999023438 l 1
 247.99609375 384.999023438 l 2
EndSplineSet
EndChar

StartChar: semicolon
Encoding: 59 59 29
Width: 177
GlyphClass: 2
Flags: W
LayerCount: 2
Fore
SplineSet
249 385 m 2
 246.333007812 378.333007812 244.83203125 373.665039062 244.499023438 370.998046875 c 0
 244.166015625 368.331054688 243.499023438 365.998046875 242.499023438 363.998046875 c 2
 237.999023438 354.998046875 l 2
 235.999023438 350.998046875 232.33203125 344.665039062 226.999023438 335.998046875 c 0
 224.999023438 333.998046875 223.499023438 331.665039062 222.499023438 328.998046875 c 0
 221.499023438 326.331054688 219.666015625 323.331054688 216.999023438 319.998046875 c 2
 213.999023438 314.998046875 l 2
 210.666015625 309.665039062 207.166015625 304.665039062 203.499023438 299.998046875 c 0
 199.83203125 295.331054688 195.33203125 292.998046875 189.999023438 292.998046875 c 0
 188.666015625 292.998046875 186.833007812 293.165039062 184.5 293.498046875 c 0
 182.166992188 293.831054688 180.666992188 293.998046875 180 293.998046875 c 0
 170.666992188 295.331054688 159.5 298.331054688 146.5 302.998046875 c 0
 133.5 307.665039062 121.333007812 311.665039062 110 314.998046875 c 1
 102 339.998046875 l 1
 106 352.998046875 l 1
 131 407.998046875 l 2
 134.333007812 416.665039062 137.333007812 422.33203125 140 424.999023438 c 0
 142.666992188 427.666015625 148.666992188 431.333007812 158 436 c 1
 248 417 l 1
 252 398 l 1
 249 385 l 2
33.9990234375 -36.0009765625 m 2
 42.666015625 -23.333984375 48.6650390625 -10.66796875 51.998046875 1.9990234375 c 0
 53.998046875 10.666015625 54.6650390625 17.666015625 53.998046875 22.9990234375 c 0
 53.3310546875 28.33203125 51.998046875 33.1650390625 49.998046875 37.498046875 c 0
 47.998046875 41.8310546875 45.498046875 46.498046875 42.498046875 51.498046875 c 0
 39.498046875 56.498046875 36.6650390625 63.3310546875 33.998046875 71.998046875 c 1
 44.998046875 87.998046875 l 2
 46.3310546875 90.6650390625 49.8310546875 92.998046875 55.498046875 94.998046875 c 0
 61.1650390625 96.998046875 67.498046875 98.6650390625 74.498046875 99.998046875 c 0
 81.498046875 101.331054688 88.6650390625 102.331054688 95.998046875 102.998046875 c 0
 103.331054688 103.665039062 109.331054688 103.998046875 113.998046875 103.998046875 c 2
 118.998046875 103.998046875 l 1
 121.998046875 104.998046875 l 1
 161.998046875 98.998046875 l 2
 165.331054688 98.998046875 167.6640625 95.498046875 168.997070312 88.498046875 c 0
 170.330078125 81.498046875 171.663085938 77.3310546875 172.99609375 75.998046875 c 0
 174.329101562 75.998046875 174.99609375 75.6650390625 174.99609375 74.998046875 c 2
 173.99609375 73.998046875 l 2
 174.663085938 72.6650390625 174.663085938 70.6650390625 173.99609375 67.998046875 c 2
 172.99609375 65.998046875 l 1
 174.329101562 65.998046875 173.829101562 62.998046875 171.49609375 56.998046875 c 0
 169.163085938 50.998046875 167.330078125 45.6650390625 165.997070312 40.998046875 c 0
 158.6640625 23.6650390625 150.831054688 9.498046875 142.498046875 -1.501953125 c 0
 134.165039062 -12.501953125 123.665039062 -22.501953125 110.998046875 -31.501953125 c 0
 98.3310546875 -40.501953125 82.8310546875 -49.6689453125 64.498046875 -59.001953125 c 0
 46.1650390625 -68.3349609375 23.33203125 -79.66796875 -4.0009765625 -93.0009765625 c 1
 33.9990234375 -36.0009765625 l 2
EndSplineSet
EndChar

StartChar: less
Encoding: 60 60 30
Width: 342
GlyphClass: 2
Flags: W
LayerCount: 2
Fore
SplineSet
281 407 m 1
 308 372.999023438 l 1
 308 368.999023438 l 2
 308.666992188 364.33203125 309.333984375 360.33203125 310.000976562 356.999023438 c 0
 310.66796875 353.666015625 311.66796875 347.999023438 313.000976562 339.999023438 c 0
 318.333984375 307.33203125 323.333984375 277.83203125 328.000976562 251.499023438 c 0
 332.66796875 225.166015625 333.66796875 206.333007812 331.000976562 195 c 2
 329.000976562 187 l 2
 326.333984375 177.666992188 321.333984375 164.333984375 314.000976562 147.000976562 c 0
 306.66796875 129.66796875 299.000976562 112.16796875 291.000976562 94.5009765625 c 0
 283.000976562 76.833984375 275.66796875 61.333984375 269.000976562 48.0009765625 c 0
 262.333984375 34.66796875 258.333984375 27.3349609375 257.000976562 26.001953125 c 2
 230.000976562 8.001953125 l 1
 230.000976562 14.001953125 231.833984375 25.501953125 235.500976562 42.501953125 c 0
 239.16796875 59.501953125 243.000976562 77.501953125 247.000976562 96.501953125 c 0
 251.000976562 115.501953125 254.833984375 133.668945312 258.500976562 151.001953125 c 0
 262.16796875 168.334960938 264.000976562 180.66796875 264.000976562 188.000976562 c 2
 264.000976562 206.000976562 l 2
 263.333984375 212.000976562 259.666992188 220.333984375 253 231.000976562 c 0
 246.333007812 241.66796875 239.166015625 252.16796875 231.499023438 262.500976562 c 0
 223.83203125 272.833984375 216.83203125 281.833984375 210.499023438 289.500976562 c 0
 204.166015625 297.16796875 200.999023438 301.334960938 200.999023438 302.001953125 c 2
 192.999023438 311.001953125 l 2
 182.33203125 321.001953125 173.665039062 328.334960938 166.998046875 333.001953125 c 0
 160.331054688 337.668945312 153.998046875 341.168945312 147.998046875 343.501953125 c 0
 141.998046875 345.834960938 135.165039062 347.66796875 127.498046875 349.000976562 c 0
 119.831054688 350.333984375 109.6640625 352.666992188 96.9970703125 356 c 1
 87.9970703125 374 l 1
 187.997070312 407 l 2
 200.6640625 414.333007812 212.1640625 424.166015625 222.497070312 436.499023438 c 0
 232.830078125 448.83203125 241.830078125 462.83203125 249.497070312 478.499023438 c 0
 257.1640625 494.166015625 263.831054688 510.499023438 269.498046875 527.499023438 c 0
 275.165039062 544.499023438 279.998046875 561.33203125 283.998046875 577.999023438 c 0
 285.331054688 582.666015625 290.331054688 592.166015625 298.998046875 606.499023438 c 0
 307.665039062 620.83203125 316.998046875 635.33203125 326.998046875 649.999023438 c 0
 336.998046875 664.666015625 346.165039062 677.833007812 354.498046875 689.5 c 2
 366.998046875 707 l 1
 375.998046875 708 l 2
 386.665039062 708 396.83203125 705.333007812 406.499023438 700 c 0
 416.166015625 694.666992188 425.333007812 688.333984375 434 681.000976562 c 0
 442.666992188 673.66796875 450.833984375 665.66796875 458.500976562 657.000976562 c 0
 466.16796875 648.333984375 473.000976562 640.666992188 479.000976562 634 c 0
 480.333984375 631.333007812 481.500976562 629.166015625 482.500976562 627.499023438 c 0
 483.500976562 625.83203125 484.333984375 624.665039062 485.000976562 623.998046875 c 2
 482.000976562 607.998046875 l 2
 478.66796875 596.665039062 470.66796875 583.33203125 458.000976562 567.999023438 c 0
 445.333984375 552.666015625 431.000976562 537.333007812 415.000976562 522 c 0
 399.000976562 506.666992188 382.66796875 492 366.000976562 478 c 0
 349.333984375 464 335.666992188 452.666992188 325 444 c 0
 320.333007812 440.666992188 314.5 435.666992188 307.5 429 c 0
 300.5 422.333007812 291.666992188 415 281 407 c 1
EndSplineSet
EndChar

StartChar: equal
Encoding: 61 61 31
Width: 385
GlyphClass: 2
Flags: W
LayerCount: 2
Fore
SplineSet
320 296 m 2
 322 296 323.998046875 296.168945312 325.998046875 296.501953125 c 0
 327.998046875 296.834960938 330.331054688 297.334960938 332.998046875 298.001953125 c 2
 435.998046875 307.001953125 l 1
 421.998046875 277.001953125 l 2
 420.665039062 270.334960938 419.665039062 265.16796875 418.998046875 261.500976562 c 0
 418.331054688 257.833984375 417.331054688 254.000976562 415.998046875 250.000976562 c 2
 413.498046875 237.500976562 l 2
 412.498046875 232.500976562 411.331054688 225.66796875 409.998046875 217.000976562 c 2
 405.998046875 197.000976562 l 2
 404.665039062 190.333984375 404.665039062 184.333984375 405.998046875 179.000976562 c 1
 204.998046875 235.000976562 l 2
 198.998046875 238.333984375 191.831054688 242.000976562 183.498046875 246.000976562 c 2
 158.498046875 258.000976562 l 2
 150.165039062 262.000976562 142.83203125 266.16796875 136.499023438 270.500976562 c 0
 130.166015625 274.833984375 125.999023438 278.666992188 123.999023438 282 c 0
 122.666015625 284 120.833007812 286.833007812 118.5 290.5 c 2
 115 296 l 1
 105 306 l 1
 109 308 l 1
 320 296 l 2
241.998046875 399.001953125 m 2
 239.998046875 399.001953125 238 398.833984375 236 398.500976562 c 0
 234 398.16796875 231.666992188 397.66796875 229 397.000976562 c 2
 127 388.000976562 l 1
 140 418.000976562 l 2
 141.333007812 424.66796875 142.333007812 429.834960938 143 433.501953125 c 0
 143.666992188 437.168945312 144.666992188 441.001953125 146 445.001953125 c 0
 147.333007812 448.334960938 148.333007812 452.501953125 149 457.501953125 c 0
 149.666992188 462.501953125 150.666992188 469.334960938 152 478.001953125 c 2
 156 498.001953125 l 2
 157.333007812 504.668945312 157.666015625 510.668945312 156.999023438 516.001953125 c 1
 357.999023438 460.001953125 l 2
 363.999023438 456.668945312 371.166015625 453.001953125 379.499023438 449.001953125 c 0
 387.83203125 445.001953125 395.999023438 440.834960938 403.999023438 436.501953125 c 0
 411.999023438 432.168945312 419.166015625 428.001953125 425.499023438 424.001953125 c 0
 431.83203125 420.001953125 435.999023438 416.334960938 437.999023438 413.001953125 c 0
 439.33203125 411.001953125 441.165039062 408.168945312 443.498046875 404.501953125 c 2
 446.998046875 399.001953125 l 1
 456.998046875 389.001953125 l 1
 452.998046875 387.001953125 l 1
 241.998046875 399.001953125 l 2
EndSplineSet
EndChar

StartChar: greater
Encoding: 62 62 32
Width: 305
GlyphClass: 2
Flags: W
LayerCount: 2
Fore
SplineSet
390 369 m 1
 389.998046875 364.998046875 l 1
 324.998046875 307.998046875 l 2
 312.331054688 300.665039062 299.498046875 290.498046875 286.498046875 277.498046875 c 0
 273.498046875 264.498046875 261.331054688 249.831054688 249.998046875 233.498046875 c 0
 238.665039062 217.165039062 228.498046875 199.83203125 219.498046875 181.499023438 c 0
 210.498046875 163.166015625 203.665039062 144.999023438 198.998046875 126.999023438 c 0
 194.998046875 111.666015625 191.165039062 96.4990234375 187.498046875 81.4990234375 c 0
 183.831054688 66.4990234375 181.331054688 52.9990234375 179.998046875 40.9990234375 c 2
 174.998046875 13.9990234375 l 1
 168.498046875 7.4990234375 l 2
 166.165039062 5.166015625 164.33203125 3.666015625 162.999023438 2.9990234375 c 2
 154.999023438 2.9990234375 l 2
 143.666015625 2.9990234375 132.499023438 5.83203125 121.499023438 11.4990234375 c 0
 110.499023438 17.166015625 99.83203125 24.166015625 89.4990234375 32.4990234375 c 0
 79.166015625 40.83203125 69.4990234375 49.4990234375 60.4990234375 58.4990234375 c 2
 36.9990234375 81.9990234375 l 1
 35.9990234375 102.999023438 l 2
 38.666015625 114.33203125 45.8330078125 127.499023438 57.5 142.499023438 c 0
 69.1669921875 157.499023438 82.6669921875 172.83203125 98 188.499023438 c 0
 113.333007812 204.166015625 128.833007812 218.999023438 144.5 232.999023438 c 0
 160.166992188 246.999023438 173.333984375 258.33203125 184.000976562 266.999023438 c 0
 188.000976562 270.33203125 195.333984375 276.499023438 206.000976562 285.499023438 c 0
 216.66796875 294.499023438 228.334960938 303.999023438 241.001953125 313.999023438 c 1
 230.334960938 325.999023438 219.16796875 336.83203125 207.500976562 346.499023438 c 0
 195.833984375 356.166015625 190.000976562 364.333007812 190.000976562 371 c 2
 190.000976562 374 l 2
 190.000976562 376 188.833984375 379.5 186.500976562 384.5 c 0
 184.16796875 389.5 181.500976562 395 178.500976562 401 c 0
 175.500976562 407 172.833984375 412.833007812 170.500976562 418.5 c 0
 168.16796875 424.166992188 167.000976562 429 167.000976562 433 c 2
 190.000976562 524 l 2
 192.000976562 532.666992188 196.500976562 545.666992188 203.500976562 563 c 0
 210.500976562 580.333007812 218.000976562 597.666015625 226.000976562 614.999023438 c 0
 234.000976562 632.33203125 241.333984375 647.83203125 248.000976562 661.499023438 c 0
 254.66796875 675.166015625 259.000976562 682.666015625 261.000976562 683.999023438 c 2
 288.000976562 701.999023438 l 1
 288.66796875 695.999023438 287.334960938 684.499023438 284.001953125 667.499023438 c 0
 280.668945312 650.499023438 276.668945312 632.499023438 272.001953125 613.499023438 c 0
 267.334960938 594.499023438 263.16796875 576.33203125 259.500976562 558.999023438 c 0
 255.833984375 541.666015625 254.000976562 529.666015625 254.000976562 522.999023438 c 2
 254.000976562 504.999023438 l 2
 254.66796875 498.999023438 258.16796875 490.83203125 264.500976562 480.499023438 c 0
 270.833984375 470.166015625 277.666992188 460.333007812 285 451 c 0
 292.333007812 441.666992188 299 433.5 305 426.5 c 2
 314 416 l 1
 321 407 l 1
 390 369 l 1
EndSplineSet
EndChar

StartChar: question
Encoding: 63 63 33
Width: 453
GlyphClass: 2
Flags: W
LayerCount: 2
Fore
SplineSet
166 610 m 0
 168 617.333007812 172.672851562 623.5 180.005859375 628.5 c 0
 187.338867188 633.5 194.671875 638.666992188 202.004882812 644 c 2
 212.004882812 650 l 2
 216.004882812 651.333007812 220.837890625 653.666015625 226.504882812 656.999023438 c 0
 232.171875 660.33203125 236.004882812 662.665039062 238.004882812 663.998046875 c 0
 240.004882812 665.331054688 244.004882812 666.998046875 250.004882812 668.998046875 c 0
 256.004882812 670.998046875 260.004882812 671.998046875 262.004882812 671.998046875 c 0
 264.671875 673.998046875 267.171875 675.331054688 269.504882812 675.998046875 c 0
 271.837890625 676.665039062 274.670898438 677.665039062 278.00390625 678.998046875 c 0
 286.670898438 680.998046875 292.00390625 682.331054688 294.00390625 682.998046875 c 0
 296.00390625 683.665039062 298.670898438 684.33203125 302.00390625 684.999023438 c 0
 308.670898438 686.33203125 315.337890625 687.499023438 322.004882812 688.499023438 c 0
 328.671875 689.499023438 333.004882812 689.999023438 335.004882812 689.999023438 c 2
 340.004882812 689.999023438 l 2
 342.004882812 689.999023438 344.837890625 690.166015625 348.504882812 690.499023438 c 0
 352.171875 690.83203125 355.671875 690.999023438 359.004882812 690.999023438 c 2
 367.004882812 690.999023438 l 2
 393.671875 690.999023438 418.171875 687.499023438 440.504882812 680.499023438 c 0
 462.837890625 673.499023438 482.170898438 661.999023438 498.50390625 645.999023438 c 0
 514.836914062 629.999023438 527.669921875 608.666015625 537.002929688 581.999023438 c 0
 546.3359375 555.33203125 551.668945312 522.33203125 553.001953125 482.999023438 c 0
 555.001953125 478.33203125 554.001953125 468.999023438 550.001953125 454.999023438 c 0
 546.001953125 437.666015625 538.334960938 420.333007812 527.001953125 403 c 0
 515.668945312 385.666992188 502.001953125 368.333984375 486.001953125 351.000976562 c 0
 470.001953125 333.66796875 452.501953125 316.500976562 433.501953125 299.500976562 c 0
 414.501953125 282.500976562 395.668945312 266.333984375 377.001953125 251.000976562 c 0
 365.001953125 241.66796875 353.001953125 236.16796875 341.001953125 234.500976562 c 0
 329.001953125 232.833984375 317.001953125 228.000976562 305.001953125 220.000976562 c 1
 163.001953125 194.000976562 l 1
 122.001953125 201.000976562 l 2
 116.668945312 202.333984375 113.8359375 206.000976562 113.502929688 212.000976562 c 0
 113.169921875 218.000976562 114.002929688 225.000976562 116.002929688 233.000976562 c 2
 123.002929688 258.000976562 l 1
 146.3359375 258.000976562 170.668945312 260.333984375 196.001953125 265.000976562 c 0
 221.334960938 269.66796875 247.001953125 278.66796875 273.001953125 292.000976562 c 0
 295.668945312 303.333984375 316.668945312 319.166992188 336.001953125 339.5 c 0
 355.334960938 359.833007812 372.66796875 383.666015625 388.000976562 410.999023438 c 0
 403.333984375 438.33203125 417.166992188 468.33203125 429.5 500.999023438 c 0
 441.833007812 533.666015625 452.333007812 567.666015625 461 602.999023438 c 0
 462.333007812 606.33203125 461.333007812 607.999023438 458 607.999023438 c 0
 441.333007812 607.999023438 423.333007812 604.666015625 404 597.999023438 c 0
 384.666992188 591.33203125 365.166992188 582.499023438 345.5 571.499023438 c 0
 325.833007812 560.499023438 306.666015625 547.666015625 287.999023438 532.999023438 c 0
 269.33203125 518.33203125 252.33203125 502.999023438 236.999023438 486.999023438 c 0
 227.666015625 476.999023438 217.499023438 464.499023438 206.499023438 449.499023438 c 0
 195.499023438 434.499023438 185.33203125 423.33203125 175.999023438 415.999023438 c 1
 172.999023438 415.999023438 l 1
 167.666015625 424.666015625 163.666015625 436.999023438 160.999023438 452.999023438 c 0
 158.33203125 468.999023438 156.83203125 486.33203125 156.499023438 504.999023438 c 0
 156.166015625 523.666015625 156.833007812 542.333007812 158.5 561 c 0
 160.166992188 579.666992188 162.666992188 596 166 610 c 0
212.005859375 81 m 2
 210.005859375 73.6669921875 208.674804688 69.1689453125 208.0078125 67.501953125 c 0
 207.340820312 65.8349609375 206.673828125 63.66796875 206.006835938 61.0009765625 c 0
 205.33984375 59.0009765625 204.172851562 56.333984375 202.505859375 53.0009765625 c 0
 200.838867188 49.66796875 197.338867188 43.66796875 192.005859375 35.0009765625 c 0
 190.005859375 33.0009765625 188.672851562 30.833984375 188.005859375 28.5009765625 c 0
 187.338867188 26.16796875 185.671875 23.3349609375 183.004882812 20.001953125 c 2
 175.004882812 10.001953125 l 2
 171.671875 6.001953125 169.004882812 2.501953125 167.004882812 -0.498046875 c 0
 165.004882812 -3.498046875 162.337890625 -4.998046875 159.004882812 -4.998046875 c 0
 157.671875 -4.998046875 155.838867188 -4.8310546875 153.505859375 -4.498046875 c 0
 151.172851562 -4.1650390625 149.672851562 -3.998046875 149.005859375 -3.998046875 c 0
 141.005859375 -2.6650390625 131.005859375 0.16796875 119.005859375 4.5009765625 c 0
 107.005859375 8.833984375 95.6728515625 12.6669921875 85.005859375 16 c 1
 78.005859375 39 l 1
 82.005859375 51 l 1
 105.005859375 103 l 2
 108.338867188 111 111.005859375 116.333007812 113.005859375 119 c 0
 115.005859375 121.666992188 120.338867188 125 129.005859375 129 c 1
 212.005859375 111 l 1
 215.005859375 93 l 1
 212.005859375 81 l 2
EndSplineSet
EndChar

StartChar: at
Encoding: 64 64 34
Width: 449
GlyphClass: 2
Flags: W
LayerCount: 2
Fore
SplineSet
519 367 m 0
 509.666992188 329 493.998046875 294.837890625 471.998046875 264.504882812 c 0
 449.998046875 234.171875 424.998046875 203.671875 396.998046875 173.004882812 c 1
 386.998046875 165.004882812 l 1
 386.498046875 164.504882812 l 2
 386.165039062 164.171875 385.665039062 164.004882812 384.998046875 164.004882812 c 0
 384.331054688 164.004882812 383.831054688 164.171875 383.498046875 164.504882812 c 2
 382.998046875 165.004882812 l 2
 378.998046875 165.671875 373.165039062 167.838867188 365.498046875 171.505859375 c 0
 357.831054688 175.172851562 350.1640625 179.172851562 342.497070312 183.505859375 c 0
 334.830078125 187.838867188 328.163085938 192.338867188 322.49609375 197.005859375 c 0
 316.829101562 201.672851562 314.329101562 205.672851562 314.99609375 209.005859375 c 0
 316.329101562 212.338867188 318.329101562 214.671875 320.99609375 216.004882812 c 0
 323.663085938 217.337890625 325.663085938 220.004882812 326.99609375 224.004882812 c 0
 326.99609375 224.671875 327.329101562 225.504882812 327.99609375 226.504882812 c 2
 328.99609375 228.004882812 l 1
 323.99609375 243.004882812 l 2
 315.99609375 265.004882812 309.49609375 286.671875 304.49609375 308.004882812 c 0
 299.49609375 329.337890625 299.99609375 353.004882812 305.99609375 379.004882812 c 0
 313.329101562 409.004882812 328.329101562 434.504882812 350.99609375 455.504882812 c 0
 373.663085938 476.504882812 399.99609375 494.004882812 429.99609375 508.004882812 c 2
 439.99609375 513.004882812 l 1
 481.99609375 489.004882812 l 1
 487.99609375 494.004882812 l 1
 479.329101562 510.671875 471.829101562 524.171875 465.49609375 534.504882812 c 0
 459.163085938 544.837890625 453.330078125 554.670898438 447.997070312 564.00390625 c 1
 417.997070312 564.00390625 390.497070312 556.50390625 365.497070312 541.50390625 c 0
 340.497070312 526.50390625 317.997070312 507.00390625 297.997070312 483.00390625 c 0
 277.997070312 459.00390625 260.997070312 431.836914062 246.997070312 401.50390625 c 0
 232.997070312 371.170898438 222.330078125 341.00390625 214.997070312 311.00390625 c 0
 212.997070312 301.670898438 210.497070312 285.50390625 207.497070312 262.50390625 c 0
 204.497070312 239.50390625 202.497070312 215.50390625 201.497070312 190.50390625 c 0
 200.497070312 165.50390625 201.1640625 143.170898438 203.497070312 123.50390625 c 0
 205.830078125 103.836914062 211.663085938 93.00390625 220.99609375 91.00390625 c 0
 220.99609375 90.3369140625 222.99609375 90.00390625 226.99609375 90.00390625 c 0
 236.99609375 90.00390625 246.163085938 91.6708984375 254.49609375 95.00390625 c 0
 262.829101562 98.3369140625 270.49609375 102.50390625 277.49609375 107.50390625 c 0
 284.49609375 112.50390625 291.163085938 117.836914062 297.49609375 123.50390625 c 0
 303.829101562 129.170898438 310.329101562 134.670898438 316.99609375 140.00390625 c 1
 324.99609375 140.00390625 l 1
 330.329101562 120.00390625 336.829101562 101.50390625 344.49609375 84.50390625 c 0
 352.163085938 67.50390625 363.330078125 53.3369140625 377.997070312 42.00390625 c 1
 373.997070312 37.3369140625 370.830078125 34.169921875 368.497070312 32.5029296875 c 0
 366.1640625 30.8359375 363.997070312 29.6689453125 361.997070312 29.001953125 c 0
 359.997070312 28.3349609375 357.497070312 27.8349609375 354.497070312 27.501953125 c 0
 351.497070312 27.1689453125 347.6640625 26.001953125 342.997070312 24.001953125 c 0
 338.330078125 22.001953125 332.497070312 19.8349609375 325.497070312 17.501953125 c 0
 318.497070312 15.1689453125 311.330078125 13.001953125 303.997070312 11.001953125 c 0
 296.6640625 9.001953125 289.497070312 7.001953125 282.497070312 5.001953125 c 0
 275.497070312 3.001953125 269.997070312 1.3349609375 265.997070312 0.001953125 c 2
 263.997070312 -7.998046875 l 2
 263.997070312 -9.998046875 263.830078125 -14.6650390625 263.497070312 -21.998046875 c 0
 263.1640625 -29.3310546875 263.6640625 -33.998046875 264.997070312 -35.998046875 c 1
 237.997070312 -41.998046875 l 2
 230.6640625 -43.998046875 224.6640625 -44.998046875 219.997070312 -44.998046875 c 2
 216.997070312 -44.998046875 l 2
 205.6640625 -43.6650390625 196.331054688 -39.83203125 188.998046875 -33.4990234375 c 0
 181.665039062 -27.166015625 174.665039062 -18.8330078125 167.998046875 -8.5 c 0
 161.331054688 1.8330078125 154.498046875 14 147.498046875 28 c 0
 140.498046875 42 131.665039062 57 120.998046875 73 c 0
 110.998046875 95 104.165039062 119.833007812 100.498046875 147.5 c 0
 96.8310546875 175.166992188 95.3310546875 204 95.998046875 234 c 0
 96.6650390625 264 99.1650390625 294 103.498046875 324 c 0
 107.831054688 354 113.331054688 382.333007812 119.998046875 409 c 0
 143.998046875 504.333007812 181.165039062 574.833007812 231.498046875 620.5 c 0
 281.831054688 666.166992188 349.331054688 689 433.998046875 689 c 0
 450.665039062 689 468.665039062 688 487.998046875 686 c 1
 491.331054688 691.333007812 494.331054688 695.833007812 496.998046875 699.5 c 0
 499.665039062 703.166992188 504.33203125 706.666992188 510.999023438 710 c 1
 518.33203125 700.666992188 526.33203125 689 534.999023438 675 c 0
 543.666015625 661 551.333007812 646.166992188 558 630.5 c 0
 564.666992188 614.833007812 569.666992188 598.833007812 573 582.5 c 0
 576.333007812 566.166992188 576.333007812 551 573 537 c 1
 546 537 l 1
 527 429 l 2
 527 418.333007812 526.166992188 407.833007812 524.5 397.5 c 0
 522.833007812 387.166992188 521 377 519 367 c 0
441.998046875 391.004882812 m 2
 445.999023438 404.004882812 l 1
 445.999023438 408.004882812 l 2
 445.999023438 411.337890625 445.83203125 413.670898438 445.499023438 415.00390625 c 0
 445.166015625 416.336914062 443.333007812 417.00390625 440 417.00390625 c 0
 422.666992188 417.00390625 410 410.336914062 402 397.00390625 c 0
 394 383.670898438 388 369.00390625 384 353.00390625 c 2
 381 340.00390625 l 2
 380.333007812 336.670898438 379.666015625 331.837890625 378.999023438 325.504882812 c 0
 378.33203125 319.171875 377.999023438 312.671875 377.999023438 306.004882812 c 0
 377.999023438 300.004882812 378.499023438 294.504882812 379.499023438 289.504882812 c 0
 380.499023438 284.504882812 381.999023438 282.004882812 383.999023438 282.004882812 c 0
 390.666015625 282.004882812 397.166015625 286.337890625 403.499023438 295.004882812 c 0
 409.83203125 303.671875 415.665039062 314.004882812 420.998046875 326.004882812 c 0
 426.331054688 338.004882812 430.831054688 350.004882812 434.498046875 362.004882812 c 0
 438.165039062 374.004882812 440.665039062 383.671875 441.998046875 391.004882812 c 2
EndSplineSet
EndChar

StartChar: A
Encoding: 65 65 35
Width: 455
GlyphClass: 2
Flags: W
LayerCount: 2
Fore
SplineSet
383 166 m 1
 377.666992188 163.333007812 371.1640625 158.669921875 363.497070312 152.002929688 c 0
 355.830078125 145.3359375 347.997070312 138.502929688 339.997070312 131.502929688 c 0
 331.997070312 124.502929688 324.1640625 118.3359375 316.497070312 113.002929688 c 0
 308.830078125 107.669921875 301.997070312 105.002929688 295.997070312 105.002929688 c 2
 293.997070312 105.002929688 l 2
 293.330078125 105.002929688 292.330078125 105.169921875 290.997070312 105.502929688 c 2
 288.997070312 106.002929688 l 1
 216.997070312 187.002929688 l 1
 211.997070312 178.002929688 l 2
 209.330078125 168.002929688 208.330078125 155.502929688 208.997070312 140.502929688 c 0
 209.6640625 125.502929688 210.331054688 113.669921875 210.998046875 105.002929688 c 2
 210.998046875 84.0029296875 l 2
 210.998046875 77.3359375 211.165039062 69.8359375 211.498046875 61.5029296875 c 0
 211.831054688 53.169921875 212.1640625 45.169921875 212.497070312 37.5029296875 c 0
 212.830078125 29.8359375 213.163085938 23.0029296875 213.49609375 17.0029296875 c 0
 213.829101562 11.0029296875 214.329101562 7.0029296875 214.99609375 5.0029296875 c 2
 210.99609375 -2.9970703125 l 1
 201.99609375 -2.9970703125 l 2
 195.329101562 -2.9970703125 187.162109375 -2.830078125 177.495117188 -2.4970703125 c 0
 167.828125 -2.1640625 160.328125 -1.3310546875 154.995117188 0.001953125 c 2
 142.995117188 3.001953125 l 2
 130.995117188 5.001953125 118.162109375 7.501953125 104.495117188 10.501953125 c 0
 90.828125 13.501953125 78.328125 17.501953125 66.9951171875 22.501953125 c 0
 55.662109375 27.501953125 46.9951171875 34.1689453125 40.9951171875 42.501953125 c 0
 34.9951171875 50.8349609375 33.662109375 61.001953125 36.9951171875 73.001953125 c 2
 92.9951171875 263.001953125 l 2
 91.662109375 267.668945312 88.4951171875 271.668945312 83.4951171875 275.001953125 c 0
 78.4951171875 278.334960938 73.328125 280.66796875 67.9951171875 282.000976562 c 0
 65.9951171875 282.66796875 63.162109375 285.66796875 59.4951171875 291.000976562 c 0
 55.828125 296.333984375 51.828125 302.333984375 47.4951171875 309.000976562 c 0
 43.162109375 315.66796875 38.8291015625 321.834960938 34.49609375 327.501953125 c 0
 30.1630859375 333.168945312 26.6630859375 336.668945312 23.99609375 338.001953125 c 1
 26.6630859375 338.668945312 28.49609375 339.168945312 29.49609375 339.501953125 c 0
 30.49609375 339.834960938 31.6630859375 340.001953125 32.99609375 340.001953125 c 0
 37.6630859375 340.001953125 42.330078125 338.334960938 46.9970703125 335.001953125 c 0
 51.6640625 331.668945312 56.4970703125 328.168945312 61.4970703125 324.501953125 c 0
 66.4970703125 320.834960938 71.4970703125 317.334960938 76.4970703125 314.001953125 c 0
 81.4970703125 310.668945312 86.6640625 309.001953125 91.9970703125 309.001953125 c 0
 100.6640625 309.001953125 105.997070312 310.668945312 107.997070312 314.001953125 c 0
 137.330078125 368.001953125 167.163085938 420.001953125 197.49609375 470.001953125 c 0
 227.829101562 520.001953125 264.329101562 570.001953125 306.99609375 620.001953125 c 1
 301.663085938 629.334960938 299.99609375 638.334960938 301.99609375 647.001953125 c 2
 304.99609375 653.001953125 l 1
 422.99609375 728.001953125 l 1
 403.99609375 688.001953125 l 1
 493.99609375 688.001953125 l 2
 498.663085938 684.668945312 502.163085938 682.501953125 504.49609375 681.501953125 c 0
 506.829101562 680.501953125 508.662109375 676.334960938 509.995117188 669.001953125 c 0
 525.995117188 602.334960938 533.162109375 538.001953125 531.495117188 476.001953125 c 0
 529.828125 414.001953125 520.328125 348.668945312 502.995117188 280.001953125 c 0
 492.995117188 240.001953125 480.828125 200.501953125 466.495117188 161.501953125 c 0
 452.162109375 122.501953125 435.329101562 82.6689453125 415.99609375 42.001953125 c 0
 414.663085938 38.6689453125 411.830078125 33.1689453125 407.497070312 25.501953125 c 0
 403.1640625 17.8349609375 399.331054688 9.66796875 395.998046875 1.0009765625 c 0
 388.665039062 -18.33203125 382.33203125 -31.6650390625 376.999023438 -38.998046875 c 1
 378.999023438 9.001953125 l 2
 379.666015625 10.3349609375 379.833007812 11.66796875 379.5 13.0009765625 c 0
 379.166992188 14.333984375 379.666992188 16.6669921875 381 20 c 2
 389 141 l 1
 389 148 l 2
 388.333007812 150 388 153 388 157 c 0
 388 159.666992188 386.333007812 162.666992188 383 166 c 1
234.997070312 298.00390625 m 0
 238.330078125 296.00390625 245.498046875 293.172851562 256.498046875 289.505859375 c 0
 267.498046875 285.838867188 279.331054688 282.171875 291.998046875 278.504882812 c 0
 304.665039062 274.837890625 316.998046875 271.504882812 328.998046875 268.504882812 c 0
 340.998046875 265.504882812 349.665039062 263.671875 354.998046875 263.004882812 c 0
 358.331054688 261.671875 363.1640625 260.171875 369.497070312 258.504882812 c 0
 375.830078125 256.837890625 380.330078125 255.670898438 382.997070312 255.00390625 c 2
 386.997070312 264.00390625 l 2
 386.997070312 265.336914062 387.497070312 271.836914062 388.497070312 283.50390625 c 0
 389.497070312 295.170898438 390.497070312 308.670898438 391.497070312 324.00390625 c 0
 392.497070312 339.336914062 393.330078125 355.00390625 393.997070312 371.00390625 c 0
 394.6640625 387.00390625 394.331054688 400.00390625 392.998046875 410.00390625 c 0
 389.665039062 436.00390625 384.665039062 463.50390625 377.998046875 492.50390625 c 0
 371.331054688 521.50390625 360.6640625 547.670898438 345.997070312 571.00390625 c 1
 338.6640625 564.336914062 331.331054688 558.00390625 323.998046875 552.00390625 c 0
 316.665039062 546.00390625 311.33203125 540.336914062 307.999023438 535.00390625 c 0
 302.666015625 522.336914062 296.666015625 508.336914062 289.999023438 493.00390625 c 0
 283.33203125 477.670898438 276.665039062 462.00390625 269.998046875 446.00390625 c 0
 263.331054688 430.00390625 256.998046875 414.00390625 250.998046875 398.00390625 c 0
 244.998046875 382.00390625 240.331054688 367.336914062 236.998046875 354.00390625 c 0
 233.665039062 340.00390625 231.665039062 328.00390625 230.998046875 318.00390625 c 0
 230.331054688 308.00390625 231.6640625 301.336914062 234.997070312 298.00390625 c 0
EndSplineSet
EndChar

StartChar: B
Encoding: 66 66 36
Width: 519
GlyphClass: 2
Flags: W
LayerCount: 2
Fore
SplineSet
77 0 m 1
 77.6669921875 1.3330078125 77.16796875 3.0029296875 75.5009765625 5.0029296875 c 0
 73.833984375 7.0029296875 72.333984375 8.0029296875 71.0009765625 8.0029296875 c 2
 34.0009765625 34.0029296875 l 1
 36.0009765625 42.0029296875 l 1
 92.0009765625 59.0029296875 l 1
 95.0009765625 71.0029296875 l 2
 96.333984375 75.669921875 98.0009765625 80.669921875 100.000976562 86.0029296875 c 0
 102.000976562 91.3359375 104.66796875 97.0029296875 108.000976562 103.002929688 c 0
 109.333984375 131.669921875 111.666992188 160.002929688 115 188.002929688 c 0
 118.333007812 216.002929688 122.666015625 244.002929688 127.999023438 272.002929688 c 0
 128.666015625 273.3359375 128.166015625 275.002929688 126.499023438 277.002929688 c 0
 124.83203125 279.002929688 123.33203125 280.002929688 121.999023438 280.002929688 c 2
 84.9990234375 306.002929688 l 1
 86.9990234375 314.002929688 l 1
 142.999023438 331.002929688 l 1
 147.666015625 345.002929688 153.833007812 361.502929688 161.5 380.502929688 c 0
 169.166992188 399.502929688 177 419.3359375 185 440.002929688 c 0
 193 460.669921875 200.5 481.336914062 207.5 502.00390625 c 0
 214.5 522.670898438 220 541.670898438 224 559.00390625 c 1
 217.333007812 559.00390625 211.166015625 558.00390625 205.499023438 556.00390625 c 0
 199.83203125 554.00390625 195.33203125 553.00390625 191.999023438 553.00390625 c 0
 188.666015625 553.00390625 186.333007812 554.50390625 185 557.50390625 c 0
 183.666992188 560.50390625 184 566.00390625 186 574.00390625 c 1
 196 582.00390625 l 2
 202.666992188 587.336914062 211.166992188 594.169921875 221.5 602.502929688 c 0
 231.833007812 610.8359375 243 619.8359375 255 629.502929688 c 0
 267 639.169921875 278.5 648.669921875 289.5 658.002929688 c 0
 300.5 667.3359375 310.333007812 675.502929688 319 682.502929688 c 0
 327.666992188 689.502929688 333.333984375 694.3359375 336.000976562 697.002929688 c 2
 363.000976562 671.002929688 l 1
 373.66796875 671.669921875 384.500976562 672.169921875 395.500976562 672.502929688 c 0
 406.500976562 672.8359375 417.66796875 673.002929688 429.000976562 673.002929688 c 0
 454.333984375 673.002929688 479.500976562 671.502929688 504.500976562 668.502929688 c 0
 529.500976562 665.502929688 551.000976562 659.002929688 569.000976562 649.002929688 c 0
 587.000976562 639.002929688 600.16796875 624.669921875 608.500976562 606.002929688 c 0
 616.833984375 587.3359375 617.000976562 562.3359375 609.000976562 531.002929688 c 0
 601.000976562 499.002929688 586.66796875 469.169921875 566.000976562 441.502929688 c 0
 545.333984375 413.8359375 521.000976562 388.3359375 493.000976562 365.002929688 c 1
 507.000976562 363.669921875 519.500976562 361.002929688 530.500976562 357.002929688 c 0
 541.500976562 353.002929688 550.500976562 346.8359375 557.500976562 338.502929688 c 0
 564.500976562 330.169921875 569.000976562 319.502929688 571.000976562 306.502929688 c 0
 573.000976562 293.502929688 571.66796875 277.669921875 567.000976562 259.002929688 c 0
 562.333984375 241.669921875 554.500976562 224.002929688 543.500976562 206.002929688 c 0
 532.500976562 188.002929688 519.833984375 170.669921875 505.500976562 154.002929688 c 0
 491.16796875 137.3359375 475.500976562 121.668945312 458.500976562 107.001953125 c 0
 441.500976562 92.3349609375 424.66796875 79.66796875 408.000976562 69.0009765625 c 0
 386.66796875 54.333984375 361.000976562 42.1669921875 331.000976562 32.5 c 0
 301.000976562 22.8330078125 273.333984375 14.3330078125 248.000976562 7 c 0
 247.333984375 6.3330078125 245.666992188 6 243 6 c 0
 241 6 239.666992188 5.6669921875 239 5 c 2
 222 0 l 1
 77 0 l 1
303.000976562 507.002929688 m 1
 291.000976562 459.002929688 l 2
 287.66796875 443.669921875 285.000976562 428.002929688 283.000976562 412.002929688 c 0
 281.000976562 396.002929688 283.000976562 382.3359375 289.000976562 371.002929688 c 1
 303.66796875 377.002929688 320.66796875 384.3359375 340.000976562 393.002929688 c 0
 359.333984375 401.669921875 378.000976562 411.669921875 396.000976562 423.002929688 c 0
 414.000976562 434.3359375 430.000976562 447.168945312 444.000976562 461.501953125 c 0
 458.000976562 475.834960938 467.000976562 492.001953125 471.000976562 510.001953125 c 0
 475.000976562 525.334960938 474.500976562 537.834960938 469.500976562 547.501953125 c 0
 464.500976562 557.168945312 457.000976562 564.8359375 447.000976562 570.502929688 c 0
 437.000976562 576.169921875 425.66796875 580.002929688 413.000976562 582.002929688 c 0
 400.333984375 584.002929688 388.000976562 585.002929688 376.000976562 585.002929688 c 2
 367.000976562 585.002929688 l 2
 362.333984375 585.002929688 356.833984375 584.669921875 350.500976562 584.002929688 c 2
 341.000976562 583.002929688 l 1
 319.000976562 566.002929688 l 1
 304.000976562 507.002929688 l 1
 303.000976562 507.002929688 l 1
268.000976562 257.002929688 m 2
 262.000976562 233.002929688 259.499023438 207.669921875 260.499023438 181.002929688 c 0
 261.499023438 154.3359375 263.33203125 129.002929688 265.999023438 105.002929688 c 1
 279.999023438 111.669921875 294.666015625 119.836914062 309.999023438 129.50390625 c 0
 325.33203125 139.170898438 339.83203125 150.00390625 353.499023438 162.00390625 c 0
 367.166015625 174.00390625 378.999023438 186.836914062 388.999023438 200.50390625 c 0
 398.999023438 214.170898438 405.999023438 228.670898438 409.999023438 244.00390625 c 0
 418.666015625 278.670898438 410.999023438 300.670898438 386.999023438 310.00390625 c 1
 369.666015625 303.336914062 351.333007812 297.169921875 332 291.502929688 c 0
 312.666992188 285.8359375 293.333984375 281.3359375 274.000976562 278.002929688 c 1
 268.000976562 257.002929688 l 2
EndSplineSet
EndChar

StartChar: C
Encoding: 67 67 37
Width: 397
GlyphClass: 2
Flags: W
LayerCount: 2
Fore
SplineSet
113 377 m 0
 120.333007812 406.333007812 128.668945312 432.499023438 138.001953125 455.499023438 c 0
 147.334960938 478.499023438 159.334960938 503.999023438 174.001953125 531.999023438 c 1
 175.001953125 535.999023438 l 1
 167.001953125 535.999023438 162.001953125 535.499023438 160.001953125 534.499023438 c 0
 158.001953125 533.499023438 153.334960938 531.33203125 146.001953125 527.999023438 c 1
 153.334960938 541.33203125 162.501953125 552.999023438 173.501953125 562.999023438 c 0
 184.501953125 572.999023438 195.668945312 583.33203125 207.001953125 593.999023438 c 0
 209.668945312 595.999023438 213.001953125 600.83203125 217.001953125 608.499023438 c 0
 221.001953125 616.166015625 225.334960938 623.999023438 230.001953125 631.999023438 c 0
 234.668945312 639.999023438 239.3359375 647.33203125 244.002929688 653.999023438 c 0
 248.669921875 660.666015625 253.002929688 663.999023438 257.002929688 663.999023438 c 1
 242.002929688 605.999023438 l 2
 241.3359375 601.33203125 241.668945312 598.999023438 243.001953125 598.999023438 c 0
 245.001953125 598.999023438 246.334960938 599.33203125 247.001953125 599.999023438 c 0
 287.001953125 627.999023438 326.501953125 651.499023438 365.501953125 670.499023438 c 0
 404.501953125 689.499023438 445.334960938 698.999023438 488.001953125 698.999023438 c 2
 503.001953125 698.999023438 l 2
 509.001953125 698.999023438 515.168945312 698.666015625 521.501953125 697.999023438 c 0
 527.834960938 697.33203125 535.66796875 695.33203125 545.000976562 691.999023438 c 0
 546.333984375 691.999023438 547.333984375 690.666015625 548.000976562 687.999023438 c 0
 548.000976562 682.666015625 547.000976562 674.666015625 545.000976562 663.999023438 c 2
 531.000976562 610.999023438 l 1
 529.000976562 606.999023438 l 2
 528.333984375 604.33203125 525.166992188 597.499023438 519.5 586.499023438 c 0
 513.833007812 575.499023438 507.333007812 563.999023438 500 551.999023438 c 0
 492.666992188 539.999023438 485.166992188 529.166015625 477.5 519.499023438 c 0
 469.833007812 509.83203125 463.666015625 504.999023438 458.999023438 504.999023438 c 2
 455.999023438 505.999023438 l 1
 442.666015625 516.666015625 430.166015625 525.833007812 418.499023438 533.5 c 0
 406.83203125 541.166992188 394.999023438 547.333984375 382.999023438 552.000976562 c 0
 370.999023438 556.66796875 357.999023438 560.000976562 343.999023438 562.000976562 c 0
 329.999023438 564.000976562 313.666015625 565.000976562 294.999023438 565.000976562 c 0
 277.666015625 565.000976562 263.999023438 564.500976562 253.999023438 563.500976562 c 0
 243.999023438 562.500976562 235.83203125 559.500976562 229.499023438 554.500976562 c 0
 223.166015625 549.500976562 217.999023438 542.000976562 213.999023438 532.000976562 c 0
 209.999023438 522.000976562 205.666015625 508.000976562 200.999023438 490.000976562 c 0
 192.33203125 455.333984375 188.33203125 422.666992188 188.999023438 392 c 0
 189.666015625 361.333007812 196.666015625 332 209.999023438 304 c 0
 229.33203125 268 255.999023438 242.666992188 289.999023438 228 c 0
 323.999023438 213.333007812 361.999023438 204.666015625 403.999023438 201.999023438 c 1
 402.999023438 196.999023438 l 2
 399.666015625 183.666015625 394.999023438 168.999023438 388.999023438 152.999023438 c 0
 382.999023438 136.999023438 376.33203125 120.83203125 368.999023438 104.499023438 c 0
 361.666015625 88.166015625 354.333007812 71.9990234375 347 55.9990234375 c 0
 339.666992188 39.9990234375 333.333984375 25.666015625 328.000976562 12.9990234375 c 2
 325.000976562 7.9990234375 l 2
 322.333984375 4.666015625 320.666992188 2.3330078125 320 1 c 0
 319.333007812 -0.3330078125 317.333007812 -1 314 -1 c 0
 288.666992188 -1 264.166992188 3.3330078125 240.5 12 c 0
 216.833007812 20.6669921875 195.333007812 32.6669921875 176 48 c 0
 156.666992188 63.3330078125 140.333984375 81.3330078125 127.000976562 102 c 0
 113.66796875 122.666992188 104.66796875 145 100.000976562 169 c 0
 92.66796875 203 90.66796875 237.166992188 94.0009765625 271.5 c 0
 97.333984375 305.833007812 103.666992188 341 113 377 c 0
EndSplineSet
EndChar

StartChar: D
Encoding: 68 68 38
Width: 485
GlyphClass: 2
Flags: W
LayerCount: 2
Fore
SplineSet
76 57 m 1
 76.0048828125 65.0029296875 l 2
 78.671875 75.0029296875 87.671875 81.0029296875 103.004882812 83.0029296875 c 1
 108.337890625 109.002929688 114.004882812 135.8359375 120.004882812 163.502929688 c 0
 126.004882812 191.169921875 132.671875 220.002929688 140.004882812 250.002929688 c 0
 150.671875 292.002929688 161.504882812 333.002929688 172.504882812 373.002929688 c 0
 183.504882812 413.002929688 195.671875 452.002929688 209.004882812 490.002929688 c 1
 193.671875 484.669921875 180.004882812 480.169921875 168.004882812 476.502929688 c 0
 156.004882812 472.8359375 143.337890625 465.668945312 130.004882812 455.001953125 c 1
 131.004882812 460.001953125 l 2
 130.337890625 460.668945312 130.670898438 464.001953125 132.00390625 470.001953125 c 2
 135.00390625 481.001953125 l 2
 140.336914062 503.001953125 152.169921875 525.334960938 170.502929688 548.001953125 c 0
 188.8359375 570.668945312 209.002929688 592.8359375 231.002929688 614.502929688 c 0
 253.002929688 636.169921875 274.3359375 657.169921875 295.002929688 677.502929688 c 0
 315.669921875 697.8359375 330.669921875 716.668945312 340.002929688 734.001953125 c 1
 344.002929688 721.001953125 l 1
 338.002929688 699.001953125 l 1
 337.002929688 688.001953125 l 1
 346.3359375 689.334960938 355.8359375 690.334960938 365.502929688 691.001953125 c 0
 375.169921875 691.668945312 384.669921875 692.001953125 394.002929688 692.001953125 c 0
 420.669921875 692.001953125 445.169921875 689.001953125 467.502929688 683.001953125 c 0
 489.8359375 677.001953125 509.168945312 667.001953125 525.501953125 653.001953125 c 0
 541.834960938 639.001953125 554.66796875 620.834960938 564.000976562 598.501953125 c 0
 573.333984375 576.168945312 578.333984375 549.001953125 579.000976562 517.001953125 c 2
 578.000976562 501.001953125 l 2
 578.66796875 492.334960938 578.834960938 483.834960938 578.501953125 475.501953125 c 0
 578.168945312 467.168945312 578.001953125 462.3359375 578.001953125 461.002929688 c 0
 577.334960938 453.669921875 576.501953125 446.336914062 575.501953125 439.00390625 c 0
 574.501953125 431.670898438 572.668945312 423.670898438 570.001953125 415.00390625 c 0
 561.334960938 378.336914062 545.16796875 342.669921875 521.500976562 308.002929688 c 0
 497.833984375 273.3359375 470.666992188 240.668945312 440 210.001953125 c 0
 409.333007812 179.334960938 377 151.16796875 343 125.500976562 c 0
 309 99.833984375 277 77.6669921875 247 59 c 0
 217 40.3330078125 191 25.8330078125 169 15.5 c 0
 147 5.1669921875 133 0 127 0 c 2
 102 -1 l 1
 102 -2 l 1
 101 -2 l 1
 76 57 l 1
292.004882812 505.002929688 m 2
 291.337890625 504.3359375 289.33984375 497.668945312 286.006835938 485.001953125 c 2
 279.006835938 457.001953125 l 2
 275.006835938 441.668945312 271.506835938 426.168945312 268.506835938 410.501953125 c 0
 265.506835938 394.834960938 264.006835938 383.66796875 264.006835938 377.000976562 c 0
 264.006835938 371.66796875 263.33984375 362.334960938 262.006835938 349.001953125 c 0
 260.673828125 335.668945312 259.006835938 320.3359375 257.006835938 303.002929688 c 0
 255.006835938 285.669921875 252.83984375 267.336914062 250.506835938 248.00390625 c 0
 248.173828125 228.670898438 246.173828125 210.337890625 244.506835938 193.004882812 c 0
 242.83984375 175.671875 241.506835938 160.171875 240.506835938 146.504882812 c 0
 239.506835938 132.837890625 239.33984375 123.337890625 240.006835938 118.004882812 c 1
 260.006835938 124.671875 279.33984375 135.504882812 298.006835938 150.504882812 c 0
 316.673828125 165.504882812 334.006835938 183.337890625 350.006835938 204.004882812 c 0
 366.006835938 224.671875 380.006835938 247.171875 392.006835938 271.504882812 c 0
 404.006835938 295.837890625 413.006835938 320.337890625 419.006835938 345.004882812 c 0
 420.33984375 350.337890625 421.672851562 357.170898438 423.005859375 365.50390625 c 0
 424.338867188 373.836914062 425.671875 382.50390625 427.004882812 391.50390625 c 0
 428.337890625 400.50390625 429.670898438 409.170898438 431.00390625 417.50390625 c 0
 432.336914062 425.836914062 433.336914062 432.669921875 434.00390625 438.002929688 c 0
 433.336914062 468.002929688 429.50390625 490.002929688 422.50390625 504.002929688 c 0
 415.50390625 518.002929688 408.336914062 526.669921875 401.00390625 530.002929688 c 0
 395.670898438 532.669921875 388.50390625 535.002929688 379.50390625 537.002929688 c 0
 370.50390625 539.002929688 361.336914062 540.669921875 352.00390625 542.002929688 c 0
 342.670898438 543.3359375 334.337890625 544.502929688 327.004882812 545.502929688 c 0
 319.671875 546.502929688 315.004882812 547.002929688 313.004882812 547.002929688 c 2
 312.004882812 547.002929688 l 1
 292.004882812 505.002929688 l 2
EndSplineSet
EndChar

StartChar: E
Encoding: 69 69 39
Width: 439
GlyphClass: 2
Flags: W
LayerCount: 2
Fore
SplineSet
71 77 m 1
 77.6669921875 109 83.830078125 137.829101562 89.4970703125 163.49609375 c 0
 95.1640625 189.163085938 101.331054688 215.330078125 107.998046875 241.997070312 c 2
 115.998046875 263.997070312 l 1
 138.998046875 354.997070312 l 2
 138.998046875 357.6640625 139.165039062 360.497070312 139.498046875 363.497070312 c 0
 139.831054688 366.497070312 140.6640625 370.6640625 141.997070312 375.997070312 c 0
 142.6640625 379.330078125 143.331054688 382.830078125 143.998046875 386.497070312 c 0
 144.665039062 390.1640625 144.998046875 392.331054688 144.998046875 392.998046875 c 2
 118.998046875 423.998046875 l 1
 112.998046875 432.998046875 l 1
 108.998046875 438.998046875 l 1
 114.998046875 448.998046875 l 1
 117.998046875 450.998046875 l 1
 128.998046875 450.998046875 l 2
 135.665039062 450.998046875 142.83203125 450.665039062 150.499023438 449.998046875 c 0
 158.166015625 449.331054688 162.666015625 448.331054688 163.999023438 446.998046875 c 1
 247.999023438 620.998046875 l 1
 244.999023438 621.498046875 l 2
 242.999023438 621.831054688 241.33203125 622.331054688 239.999023438 622.998046875 c 0
 234.666015625 624.998046875 230.333007812 625.998046875 227 625.998046875 c 0
 220.333007812 625.998046875 214.333007812 624.998046875 209 622.998046875 c 0
 203.666992188 620.998046875 197.333984375 618.998046875 190.000976562 616.998046875 c 1
 189.000976562 622.998046875 l 1
 269.000976562 671.998046875 l 2
 269.66796875 671.998046875 272.334960938 674.331054688 277.001953125 678.998046875 c 0
 281.668945312 683.665039062 285.001953125 687.665039062 287.001953125 690.998046875 c 0
 288.334960938 691.665039062 290.334960938 693.498046875 293.001953125 696.498046875 c 0
 295.668945312 699.498046875 298.3359375 702.831054688 301.002929688 706.498046875 c 0
 303.669921875 710.165039062 306.169921875 713.498046875 308.502929688 716.498046875 c 0
 310.8359375 719.498046875 312.3359375 721.665039062 313.002929688 722.998046875 c 1
 314.002929688 716.998046875 l 1
 310.002929688 682.998046875 l 1
 311.002929688 680.998046875 l 1
 323.669921875 684.331054688 338.502929688 687.1640625 355.502929688 689.497070312 c 0
 372.502929688 691.830078125 392.3359375 692.997070312 415.002929688 692.997070312 c 0
 431.669921875 692.997070312 448.002929688 691.997070312 464.002929688 689.997070312 c 0
 480.002929688 687.997070312 494.3359375 684.830078125 507.002929688 680.497070312 c 0
 519.669921875 676.1640625 530.169921875 670.331054688 538.502929688 662.998046875 c 0
 546.8359375 655.665039062 551.668945312 646.665039062 553.001953125 635.998046875 c 0
 555.001953125 622.665039062 555.334960938 610.998046875 554.001953125 600.998046875 c 0
 552.668945312 590.998046875 552.001953125 577.331054688 552.001953125 559.998046875 c 0
 551.334960938 553.998046875 550.16796875 546.498046875 548.500976562 537.498046875 c 0
 546.833984375 528.498046875 545.166992188 519.665039062 543.5 510.998046875 c 0
 541.833007812 502.331054688 540.166015625 494.498046875 538.499023438 487.498046875 c 0
 536.83203125 480.498046875 535.665039062 475.998046875 534.998046875 473.998046875 c 1
 534.998046875 474.998046875 l 1
 526.998046875 474.998046875 l 1
 524.998046875 476.998046875 l 2
 521.665039062 479.665039062 516.83203125 483.498046875 510.499023438 488.498046875 c 0
 504.166015625 493.498046875 497.666015625 498.998046875 490.999023438 504.998046875 c 0
 484.33203125 510.998046875 477.999023438 516.831054688 471.999023438 522.498046875 c 0
 465.999023438 528.165039062 461.666015625 532.998046875 458.999023438 536.998046875 c 2
 456.999023438 538.498046875 l 2
 455.666015625 539.498046875 452.333007812 542.665039062 447 547.998046875 c 2
 438 555.998046875 l 2
 429.333007812 562.665039062 420.666015625 569.83203125 411.999023438 577.499023438 c 0
 403.33203125 585.166015625 394.499023438 592.166015625 385.499023438 598.499023438 c 0
 376.499023438 604.83203125 367.166015625 610.165039062 357.499023438 614.498046875 c 0
 347.83203125 618.831054688 337.999023438 620.998046875 327.999023438 620.998046875 c 2
 323.999023438 620.998046875 l 2
 323.33203125 620.998046875 320.999023438 620.331054688 316.999023438 618.998046875 c 0
 315.666015625 618.998046875 314.833007812 618.665039062 314.5 617.998046875 c 2
 314 616.998046875 l 2
 312.666992188 616.998046875 311.666992188 614.998046875 311 610.998046875 c 0
 309.666992188 605.665039062 308.666992188 602.665039062 308 601.998046875 c 0
 300.666992188 585.998046875 293.833984375 569.998046875 287.500976562 553.998046875 c 0
 281.16796875 537.998046875 275.334960938 522.998046875 270.001953125 508.998046875 c 0
 264.668945312 494.998046875 260.3359375 482.331054688 257.002929688 470.998046875 c 0
 253.669921875 459.665039062 251.336914062 450.665039062 250.00390625 443.998046875 c 2
 248.00390625 436.998046875 l 2
 248.00390625 436.331054688 248.170898438 435.498046875 248.50390625 434.498046875 c 0
 248.836914062 433.498046875 248.669921875 432.331054688 248.002929688 430.998046875 c 0
 250.002929688 424.331054688 256.669921875 419.998046875 268.002929688 417.998046875 c 0
 279.3359375 415.998046875 293.002929688 414.998046875 309.002929688 414.998046875 c 0
 324.3359375 414.998046875 339.3359375 415.498046875 354.002929688 416.498046875 c 0
 368.669921875 417.498046875 380.669921875 418.665039062 390.002929688 419.998046875 c 2
 455.002929688 431.998046875 l 1
 455.002929688 424.998046875 l 1
 449.669921875 411.665039062 444.002929688 394.998046875 438.002929688 374.998046875 c 0
 432.002929688 354.998046875 426.3359375 334.998046875 421.002929688 314.998046875 c 0
 419.002929688 306.998046875 417.169921875 299.331054688 415.502929688 291.998046875 c 0
 413.8359375 284.665039062 413.002929688 277.998046875 413.002929688 271.998046875 c 1
 382.3359375 279.998046875 353.3359375 288.665039062 326.002929688 297.998046875 c 0
 298.669921875 307.331054688 270.669921875 318.331054688 242.002929688 330.998046875 c 0
 241.3359375 329.665039062 240.668945312 328.165039062 240.001953125 326.498046875 c 0
 239.334960938 324.831054688 238.66796875 322.331054688 238.000976562 318.998046875 c 0
 235.333984375 310.331054688 234.000976562 297.998046875 234.000976562 281.998046875 c 0
 234.000976562 260.665039062 235.500976562 237.33203125 238.500976562 211.999023438 c 0
 241.500976562 186.666015625 244.66796875 163.666015625 248.000976562 142.999023438 c 2
 252.000976562 113.999023438 l 1
 440.000976562 191.999023438 l 1
 440.000976562 189.999023438 439.66796875 187.33203125 439.000976562 183.999023438 c 0
 437.000976562 175.999023438 432.833984375 165.499023438 426.500976562 152.499023438 c 0
 420.16796875 139.499023438 413.500976562 126.33203125 406.500976562 112.999023438 c 0
 399.500976562 99.666015625 392.66796875 87.4990234375 386.000976562 76.4990234375 c 0
 379.333984375 65.4990234375 374.666992188 57.9990234375 372 53.9990234375 c 0
 368.666992188 50.666015625 363.833984375 46.9990234375 357.500976562 42.9990234375 c 0
 351.16796875 38.9990234375 344.66796875 35.33203125 338.000976562 31.9990234375 c 0
 331.333984375 28.666015625 325.000976562 25.8330078125 319.000976562 23.5 c 0
 313.000976562 21.1669921875 308.66796875 19.6669921875 306.000976562 19 c 0
 305.333984375 19 304.666992188 18.8330078125 304 18.5 c 2
 303 18 l 1
 296 14 l 1
 282.5 9.5 l 1
 269 5 l 1
 261 1 l 1
 215 1 173 7.6669921875 135 21 c 0
 97 34.3330078125 60 51 24 71 c 1
 71 77 l 1
EndSplineSet
EndChar

StartChar: F
Encoding: 70 70 40
Width: 422
GlyphClass: 2
Flags: W
LayerCount: 2
Fore
SplineSet
154 428 m 1
 161.5 445.499023438 l 2
 166.5 457.166015625 172.333007812 470.999023438 179 486.999023438 c 0
 185.666992188 502.999023438 192.5 519.499023438 199.5 536.499023438 c 0
 206.5 553.499023438 212 567.33203125 216 577.999023438 c 2
 219 590.999023438 l 1
 166 590.999023438 l 1
 168 595.999023438 l 2
 168 598.666015625 169 600.999023438 171 602.999023438 c 0
 176.333007812 610.999023438 183.666015625 617.666015625 192.999023438 622.999023438 c 0
 202.33203125 628.33203125 212.33203125 633.33203125 222.999023438 637.999023438 c 0
 233.666015625 642.666015625 244.166015625 647.499023438 254.499023438 652.499023438 c 0
 264.83203125 657.499023438 273.999023438 663.666015625 281.999023438 670.999023438 c 2
 336.999023438 721.999023438 l 1
 349.999023438 721.999023438 l 1
 339.999023438 679.999023438 l 1
 343.999023438 679.999023438 350.83203125 679.666015625 360.499023438 678.999023438 c 0
 370.166015625 678.33203125 380.499023438 677.499023438 391.499023438 676.499023438 c 0
 402.499023438 675.499023438 412.83203125 674.499023438 422.499023438 673.499023438 c 0
 432.166015625 672.499023438 438.999023438 671.666015625 442.999023438 670.999023438 c 0
 444.999023438 670.999023438 449.33203125 670.33203125 455.999023438 668.999023438 c 0
 462.666015625 667.666015625 469.833007812 666.166015625 477.5 664.499023438 c 0
 485.166992188 662.83203125 492.666992188 660.999023438 500 658.999023438 c 0
 507.333007812 656.999023438 512.666015625 655.33203125 515.999023438 653.999023438 c 2
 562.999023438 636.999023438 l 2
 564.33203125 636.999023438 565.83203125 635.999023438 567.499023438 633.999023438 c 0
 569.166015625 631.999023438 569.666015625 630.33203125 568.999023438 628.999023438 c 0
 554.33203125 610.33203125 539.83203125 590.999023438 525.499023438 570.999023438 c 0
 511.166015625 550.999023438 498.666015625 530.666015625 487.999023438 509.999023438 c 1
 484.999023438 509.499023438 l 2
 482.999023438 509.166015625 481.33203125 508.999023438 479.999023438 508.999023438 c 0
 478.666015625 508.999023438 476.999023438 509.166015625 474.999023438 509.499023438 c 0
 472.999023438 509.83203125 471.666015625 509.999023438 470.999023438 509.999023438 c 2
 417.999023438 534.999023438 l 2
 410.666015625 537.666015625 400.833007812 541.166015625 388.5 545.499023438 c 0
 376.166992188 549.83203125 364 553.83203125 352 557.499023438 c 0
 340 561.166015625 329.666992188 564.166015625 321 566.499023438 c 0
 312.333007812 568.83203125 308 569.665039062 308 568.998046875 c 2
 297 560.998046875 l 1
 283 505.998046875 l 2
 281 497.331054688 278.833007812 487.498046875 276.5 476.498046875 c 0
 274.166992188 465.498046875 272.333984375 455.165039062 271.000976562 445.498046875 c 0
 269.66796875 435.831054688 269.334960938 427.6640625 270.001953125 420.997070312 c 0
 270.668945312 414.330078125 272.668945312 410.997070312 276.001953125 410.997070312 c 2
 423.001953125 418.997070312 l 1
 424.501953125 406.997070312 l 2
 425.501953125 398.997070312 426.501953125 389.330078125 427.501953125 377.997070312 c 0
 428.501953125 366.6640625 429.334960938 355.1640625 430.001953125 343.497070312 c 0
 430.668945312 331.830078125 431.001953125 321.997070312 431.001953125 313.997070312 c 0
 431.001953125 311.997070312 430.668945312 307.830078125 430.001953125 301.497070312 c 0
 429.334960938 295.1640625 428.66796875 290.997070312 428.000976562 288.997070312 c 2
 241.000976562 295.997070312 l 1
 235.66796875 273.997070312 233.000976562 251.6640625 233.000976562 228.997070312 c 0
 233.000976562 206.997070312 233.500976562 185.330078125 234.500976562 163.997070312 c 0
 235.500976562 142.6640625 236.16796875 122.331054688 236.500976562 102.998046875 c 0
 236.833984375 83.6650390625 235.000976562 66.33203125 231.000976562 50.9990234375 c 2
 230.000976562 48.9990234375 l 2
 228.66796875 45.666015625 227.500976562 42.666015625 226.500976562 39.9990234375 c 0
 225.500976562 37.33203125 222.000976562 35.33203125 216.000976562 33.9990234375 c 2
 89.0009765625 -0.0009765625 l 1
 83.0009765625 7.9990234375 l 2
 82.333984375 8.666015625 81.833984375 12.3330078125 81.5009765625 19 c 0
 81.16796875 25.6669921875 80.8349609375 33.5 80.501953125 42.5 c 0
 80.1689453125 51.5 79.8359375 60.6669921875 79.5029296875 70 c 0
 79.169921875 79.3330078125 78.669921875 87 78.0029296875 93 c 0
 78.669921875 103 79.669921875 115.333007812 81.0029296875 130 c 0
 82.3359375 144.666992188 83.6689453125 160 85.001953125 176 c 0
 86.3349609375 192 88.001953125 207.666992188 90.001953125 223 c 0
 92.001953125 238.333007812 94.001953125 251.666015625 96.001953125 262.999023438 c 2
 115.001953125 339.999023438 l 2
 117.668945312 345.999023438 119.001953125 349.999023438 119.001953125 351.999023438 c 2
 119.001953125 356.999023438 l 2
 119.001953125 357.666015625 118.334960938 359.833007812 117.001953125 363.5 c 0
 115.668945312 367.166992188 114.168945312 371.166992188 112.501953125 375.5 c 0
 110.834960938 379.833007812 109.16796875 384 107.500976562 388 c 0
 105.833984375 392 104.666992188 395 104 397 c 2
 95 433 l 1
 154 428 l 1
EndSplineSet
EndChar

StartChar: G
Encoding: 71 71 41
Width: 451
GlyphClass: 2
Flags: W
LayerCount: 2
Fore
SplineSet
322 21 m 1
 302 19 283.328125 18 265.995117188 18 c 0
 181.328125 18 125.328125 41.3330078125 97.9951171875 88 c 0
 70.662109375 134.666992188 68.9951171875 205.666992188 92.9951171875 301 c 0
 106.328125 355 125.328125 405.666992188 149.995117188 453 c 0
 174.662109375 500.333007812 207.995117188 546 249.995117188 590 c 1
 237.328125 594.666992188 224.161132812 598.333984375 210.494140625 601.000976562 c 0
 196.827148438 603.66796875 183.327148438 606.000976562 169.994140625 608.000976562 c 1
 171.994140625 617.000976562 l 1
 229.994140625 644.000976562 l 2
 243.327148438 650.000976562 257.494140625 656.66796875 272.494140625 664.000976562 c 0
 287.494140625 671.333984375 302.661132812 678.333984375 317.994140625 685.000976562 c 0
 333.327148438 691.66796875 348.327148438 697.16796875 362.994140625 701.500976562 c 0
 377.661132812 705.833984375 391.661132812 708.000976562 404.994140625 708.000976562 c 0
 410.327148438 708.000976562 416.66015625 707.000976562 423.993164062 705.000976562 c 2
 447.993164062 699.000976562 l 1
 445.993164062 697.000976562 443.326171875 692.333984375 439.993164062 685.000976562 c 0
 436.66015625 677.66796875 434.327148438 673.000976562 432.994140625 671.000976562 c 2
 430.994140625 663.000976562 l 1
 434.994140625 661.66796875 441.327148438 659.334960938 449.994140625 656.001953125 c 0
 458.661132812 652.668945312 467.994140625 649.168945312 477.994140625 645.501953125 c 0
 487.994140625 641.834960938 497.494140625 638.16796875 506.494140625 634.500976562 c 0
 515.494140625 630.833984375 521.661132812 628.000976562 524.994140625 626.000976562 c 0
 533.661132812 622.000976562 541.828125 617.333984375 549.495117188 612.000976562 c 0
 557.162109375 606.66796875 562.995117188 599.334960938 566.995117188 590.001953125 c 1
 548.995117188 572.668945312 530.328125 553.501953125 510.995117188 532.501953125 c 0
 491.662109375 511.501953125 474.329101562 491.001953125 458.99609375 471.001953125 c 1
 450.99609375 471.001953125 l 1
 446.99609375 476.334960938 441.663085938 485.834960938 434.99609375 499.501953125 c 0
 428.329101562 513.168945312 420.829101562 527.001953125 412.49609375 541.001953125 c 0
 404.163085938 555.001953125 394.830078125 567.501953125 384.497070312 578.501953125 c 0
 374.1640625 589.501953125 363.6640625 595.001953125 352.997070312 595.001953125 c 0
 348.997070312 595.001953125 346.6640625 594.668945312 345.997070312 594.001953125 c 0
 339.330078125 592.668945312 332.163085938 587.501953125 324.49609375 578.501953125 c 0
 316.829101562 569.501953125 308.99609375 558.168945312 300.99609375 544.501953125 c 0
 292.99609375 530.834960938 285.163085938 516.16796875 277.49609375 500.500976562 c 0
 269.829101562 484.833984375 262.99609375 469.500976562 256.99609375 454.500976562 c 0
 250.99609375 439.500976562 245.829101562 425.833984375 241.49609375 413.500976562 c 0
 237.163085938 401.16796875 234.330078125 392.000976562 232.997070312 386.000976562 c 0
 225.6640625 356.000976562 221.6640625 326.333984375 220.997070312 297.000976562 c 0
 220.330078125 267.66796875 223.997070312 241.66796875 231.997070312 219.000976562 c 0
 239.997070312 196.333984375 252.997070312 178.000976562 270.997070312 164.000976562 c 0
 288.997070312 150.000976562 312.997070312 143.000976562 342.997070312 143.000976562 c 1
 346.997070312 159.000976562 348.997070312 175.333984375 348.997070312 192.000976562 c 0
 348.997070312 217.333984375 346.1640625 242.166992188 340.497070312 266.5 c 0
 334.830078125 290.833007812 328.997070312 313 322.997070312 333 c 1
 352.997070312 336.333007812 381.330078125 341.666015625 407.997070312 348.999023438 c 0
 434.6640625 356.33203125 461.331054688 365.999023438 487.998046875 377.999023438 c 1
 492.665039062 375.33203125 495.83203125 370.665039062 497.499023438 363.998046875 c 0
 499.166015625 357.331054688 499.999023438 349.6640625 499.999023438 340.997070312 c 0
 499.999023438 332.330078125 499.166015625 323.330078125 497.499023438 313.997070312 c 0
 495.83203125 304.6640625 493.999023438 295.6640625 491.999023438 286.997070312 c 2
 484.999023438 261.997070312 l 1
 450.999023438 156.997070312 l 1
 477.999023438 156.997070312 l 1
 474.666015625 142.997070312 467.333007812 127.497070312 456 110.497070312 c 0
 444.666992188 93.4970703125 431.5 76.830078125 416.5 60.4970703125 c 0
 401.5 44.1640625 386.166992188 28.8310546875 370.5 14.498046875 c 0
 354.833007812 0.1650390625 341 -11.66796875 329 -21.0009765625 c 1
 324.333007812 -18.333984375 322 -11.6669921875 322 -1 c 2
 322 21 l 1
EndSplineSet
EndChar

StartChar: H
Encoding: 72 72 42
Width: 478
GlyphClass: 2
Flags: W
LayerCount: 2
Fore
SplineSet
106 299 m 0
 104.666992188 299.666992188 103.00390625 301.330078125 101.00390625 303.997070312 c 0
 99.00390625 306.6640625 97.00390625 309.831054688 95.00390625 313.498046875 c 0
 93.00390625 317.165039062 91.1708984375 320.498046875 89.50390625 323.498046875 c 0
 87.8369140625 326.498046875 87.00390625 328.665039062 87.00390625 329.998046875 c 2
 87.00390625 330.998046875 l 2
 87.00390625 332.998046875 87.3369140625 334.331054688 88.00390625 334.998046875 c 0
 88.00390625 335.665039062 88.3369140625 336.498046875 89.00390625 337.498046875 c 2
 90.00390625 338.998046875 l 2
 90.6708984375 339.665039062 93.1708984375 341.83203125 97.50390625 345.499023438 c 0
 101.836914062 349.166015625 106.50390625 353.333007812 111.50390625 358 c 0
 116.50390625 362.666992188 121.336914062 367 126.00390625 371 c 0
 130.670898438 375 133.337890625 377.666992188 134.004882812 379 c 0
 144.671875 395 154.838867188 414.833007812 164.505859375 438.5 c 0
 174.172851562 462.166992188 183.672851562 487 193.005859375 513 c 0
 202.338867188 539 212.171875 564.833007812 222.504882812 590.5 c 0
 232.837890625 616.166992188 244.004882812 639 256.004882812 659 c 0
 258.671875 663.666992188 262.171875 669.333984375 266.504882812 676.000976562 c 0
 270.837890625 682.66796875 275.170898438 689.16796875 279.50390625 695.500976562 c 0
 283.836914062 701.833984375 287.669921875 707.333984375 291.002929688 712.000976562 c 2
 296.002929688 719.000976562 l 1
 304.002929688 719.000976562 l 1
 260.002929688 399.000976562 l 1
 409.002929688 399.000976562 l 1
 414.3359375 411.66796875 418.8359375 424.334960938 422.502929688 437.001953125 c 0
 426.169921875 449.668945312 429.669921875 462.668945312 433.002929688 476.001953125 c 0
 438.3359375 497.334960938 441.168945312 518.834960938 441.501953125 540.501953125 c 0
 441.834960938 562.168945312 442.334960938 585.001953125 443.001953125 609.001953125 c 0
 442.334960938 613.001953125 442.16796875 619.668945312 442.500976562 629.001953125 c 0
 442.833984375 638.334960938 443.666992188 645.001953125 445 649.001953125 c 2
 447 660.001953125 l 2
 449 668.001953125 457 674.501953125 471 679.501953125 c 0
 485 684.501953125 500.5 688.501953125 517.5 691.501953125 c 0
 534.5 694.501953125 551 696.501953125 567 697.501953125 c 0
 583 698.501953125 594 699.001953125 600 699.001953125 c 2
 608 699.001953125 l 1
 606.666992188 684.334960938 605.333984375 671.834960938 604.000976562 661.501953125 c 0
 602.66796875 651.168945312 601.16796875 641.501953125 599.500976562 632.501953125 c 0
 597.833984375 623.501953125 595.833984375 614.501953125 593.500976562 605.501953125 c 0
 591.16796875 596.501953125 588.66796875 586.334960938 586.000976562 575.001953125 c 2
 580.000976562 549.001953125 l 2
 578.66796875 543.001953125 575.66796875 532.001953125 571.000976562 516.001953125 c 0
 566.333984375 500.001953125 561.333984375 483.334960938 556.000976562 466.001953125 c 0
 550.66796875 448.668945312 545.500976562 432.168945312 540.500976562 416.501953125 c 0
 535.500976562 400.834960938 532.000976562 390.001953125 530.000976562 384.001953125 c 1
 565.000976562 384.001953125 l 1
 563.000976562 378.001953125 l 2
 562.333984375 374.001953125 561.333984375 371.334960938 560.000976562 370.001953125 c 2
 527.000976562 299.001953125 l 1
 508.000976562 194.001953125 l 1
 490.66796875 194.001953125 475.334960938 189.501953125 462.001953125 180.501953125 c 0
 448.668945312 171.501953125 436.168945312 160.001953125 424.501953125 146.001953125 c 0
 412.834960938 132.001953125 402.001953125 117.168945312 392.001953125 101.501953125 c 0
 382.001953125 85.8349609375 372.001953125 71.001953125 362.001953125 57.001953125 c 0
 352.001953125 43.001953125 341.501953125 31.501953125 330.501953125 22.501953125 c 0
 319.501953125 13.501953125 307.668945312 9.001953125 295.001953125 9.001953125 c 2
 290.001953125 10.001953125 l 1
 296.001953125 22.001953125 l 2
 304.001953125 38.001953125 310.834960938 52.1689453125 316.501953125 64.501953125 c 0
 322.168945312 76.8349609375 327.168945312 88.66796875 331.501953125 100.000976562 c 0
 335.834960938 111.333984375 339.834960938 122.833984375 343.501953125 134.500976562 c 0
 347.168945312 146.16796875 351.001953125 159.66796875 355.001953125 175.000976562 c 2
 366.001953125 220.000976562 l 1
 362.668945312 229.333984375 356.168945312 237.166992188 346.501953125 243.5 c 0
 336.834960938 249.833007812 325.834960938 254.833007812 313.501953125 258.5 c 0
 301.168945312 262.166992188 288.668945312 264.833984375 276.001953125 266.500976562 c 0
 263.334960938 268.16796875 252.66796875 269.000976562 244.000976562 269.000976562 c 2
 235.000976562 269.000976562 l 1
 231.500976562 237.500976562 l 2
 229.833984375 222.500976562 228.333984375 206.500976562 227.000976562 189.500976562 c 0
 225.66796875 172.500976562 224.334960938 156.500976562 223.001953125 141.500976562 c 0
 221.668945312 126.500976562 221.001953125 116.000976562 221.001953125 110.000976562 c 0
 219.001953125 96.0009765625 218.501953125 87.0009765625 219.501953125 83.0009765625 c 0
 220.501953125 79.0009765625 221.001953125 75.333984375 221.001953125 72.0009765625 c 0
 221.001953125 69.333984375 220.668945312 67.0009765625 220.001953125 65.0009765625 c 0
 219.334960938 63.66796875 218.66796875 61.66796875 218.000976562 59.0009765625 c 0
 217.333984375 56.333984375 216.333984375 53.333984375 215.000976562 50.0009765625 c 2
 209.000976562 30.0009765625 l 1
 208.000976562 29.5009765625 l 2
 207.333984375 29.16796875 206.333984375 29.0009765625 205.000976562 29.0009765625 c 0
 199.000976562 27.0009765625 190.000976562 24.5009765625 178.000976562 21.5009765625 c 0
 166.000976562 18.5009765625 153.66796875 15.5009765625 141.000976562 12.5009765625 c 0
 128.333984375 9.5009765625 116.500976562 6.833984375 105.500976562 4.5009765625 c 0
 94.5009765625 2.16796875 87.0009765625 0.66796875 83.0009765625 0.0009765625 c 0
 82.333984375 0.0009765625 80.833984375 -0.166015625 78.5009765625 -0.4990234375 c 0
 76.16796875 -0.83203125 74.3349609375 -0.9990234375 73.001953125 -0.9990234375 c 0
 67.6689453125 -0.9990234375 64.6689453125 -0.4990234375 64.001953125 0.5009765625 c 0
 63.3349609375 1.5009765625 62.66796875 4.333984375 62.0009765625 9.0009765625 c 2
 62.0009765625 16.0009765625 l 2
 62.0009765625 16.66796875 61.833984375 17.16796875 61.5009765625 17.5009765625 c 0
 61.16796875 17.833984375 61.3349609375 18.6669921875 62.001953125 20 c 0
 63.3349609375 68.6669921875 67.66796875 114.5 75.0009765625 157.5 c 0
 82.333984375 200.5 92.6669921875 247.666992188 106 299 c 0
EndSplineSet
EndChar

StartChar: I
Encoding: 73 73 43
Width: 193
GlyphClass: 2
Flags: W
LayerCount: 2
Fore
SplineSet
71 211 m 2
 77 235 84.171875 261.668945312 92.5048828125 291.001953125 c 0
 100.837890625 320.334960938 110.337890625 350.501953125 121.004882812 381.501953125 c 0
 131.671875 412.501953125 143.838867188 443.668945312 157.505859375 475.001953125 c 0
 171.172851562 506.334960938 186.172851562 536.16796875 202.505859375 564.500976562 c 0
 218.838867188 592.833984375 236.671875 618.833984375 256.004882812 642.500976562 c 0
 275.337890625 666.16796875 296.337890625 686.000976562 319.004882812 702.000976562 c 1
 309.004882812 661.000976562 l 1
 307.004882812 651.000976562 l 1
 295.671875 615.000976562 284.504882812 579.16796875 273.504882812 543.500976562 c 0
 262.504882812 507.833984375 252.337890625 471.000976562 243.004882812 433.000976562 c 2
 232.004882812 391.000976562 l 1
 232.004882812 384.000976562 l 1
 228.004882812 364.000976562 224.171875 339.16796875 220.504882812 309.500976562 c 0
 216.837890625 279.833984375 213.170898438 249.166992188 209.50390625 217.5 c 0
 205.836914062 185.833007812 202.669921875 155.5 200.002929688 126.5 c 0
 197.3359375 97.5 195.002929688 74 193.002929688 56 c 2
 187.002929688 37 l 1
 56.0029296875 0 l 1
 51.0029296875 0 l 2
 47.669921875 -0 45.5029296875 2.8330078125 44.5029296875 8.5 c 0
 43.5029296875 14.1669921875 43.169921875 20.5 43.5029296875 27.5 c 0
 43.8359375 34.5 44.1689453125 41 44.501953125 47 c 2
 45.001953125 56 l 2
 46.3349609375 76 47.16796875 92 47.5009765625 104 c 0
 47.833984375 116 49.6669921875 127.666992188 53 139 c 2
 71 211 l 2
EndSplineSet
EndChar

StartChar: J
Encoding: 74 74 44
Width: 453
GlyphClass: 2
Flags: W
LayerCount: 2
Fore
SplineSet
29 80 m 0
 32.3330078125 94 38.1669921875 110.165039062 46.5 128.498046875 c 0
 54.8330078125 146.831054688 64.3330078125 165.1640625 75 183.497070312 c 0
 85.6669921875 201.830078125 96.833984375 218.830078125 108.500976562 234.497070312 c 0
 120.16796875 250.1640625 131.000976562 262.331054688 141.000976562 270.998046875 c 1
 144.000976562 270.998046875 l 1
 151.333984375 263.665039062 157.166992188 252.498046875 161.5 237.498046875 c 0
 165.833007812 222.498046875 170.666015625 209.998046875 175.999023438 199.998046875 c 0
 185.33203125 182.665039062 198.499023438 165.998046875 215.499023438 149.998046875 c 0
 232.499023438 133.998046875 250.33203125 119.998046875 268.999023438 107.998046875 c 0
 269.666015625 107.331054688 272.333007812 106.998046875 277 106.998046875 c 2
 302 106.998046875 l 2
 308.666992188 106.998046875 315.833984375 115.665039062 323.500976562 132.998046875 c 0
 331.16796875 150.331054688 338.500976562 170.331054688 345.500976562 192.998046875 c 0
 352.500976562 215.665039062 358.66796875 237.498046875 364.000976562 258.498046875 c 0
 369.333984375 279.498046875 373.000976562 293.998046875 375.000976562 301.998046875 c 0
 383.000976562 334.665039062 389.16796875 366.33203125 393.500976562 396.999023438 c 0
 397.833984375 427.666015625 400.833984375 457.833007812 402.500976562 487.5 c 0
 404.16796875 517.166992188 404.834960938 546.666992188 404.501953125 576 c 0
 404.168945312 605.333007812 403.3359375 635.333007812 402.002929688 666 c 2
 402.002929688 697 l 1
 404.002929688 705 l 1
 429.3359375 693 455.168945312 681.833007812 481.501953125 671.5 c 0
 507.834960938 661.166992188 533.66796875 651.666992188 559.000976562 643 c 0
 563.000976562 641.666992188 565.66796875 637.833984375 567.000976562 631.500976562 c 0
 568.333984375 625.16796875 569.166992188 618.000976562 569.5 610.000976562 c 0
 569.833007812 602.000976562 569.666015625 594.333984375 568.999023438 587.000976562 c 0
 568.33203125 579.66796875 567.665039062 574.66796875 566.998046875 572.000976562 c 2
 492.998046875 275.000976562 l 2
 492.998046875 274.333984375 490.165039062 267.666992188 484.498046875 255 c 0
 478.831054688 242.333007812 471.831054688 227.5 463.498046875 210.5 c 0
 455.165039062 193.5 446.665039062 176.166992188 437.998046875 158.5 c 0
 429.331054688 140.833007812 421.998046875 126.666015625 415.998046875 115.999023438 c 2
 400.998046875 88.9990234375 l 1
 398.998046875 79.9990234375 l 1
 448.998046875 61.9990234375 l 1
 451.998046875 61.4990234375 l 2
 453.998046875 61.166015625 455.665039062 60.9990234375 456.998046875 60.9990234375 c 1
 454.998046875 53.9990234375 l 2
 452.998046875 47.33203125 447.498046875 41.33203125 438.498046875 35.9990234375 c 0
 429.498046875 30.666015625 418.498046875 25.9990234375 405.498046875 21.9990234375 c 0
 392.498046875 17.9990234375 378.498046875 14.4990234375 363.498046875 11.4990234375 c 0
 348.498046875 8.4990234375 333.998046875 6.166015625 319.998046875 4.4990234375 c 0
 305.998046875 2.83203125 293.498046875 1.4990234375 282.498046875 0.4990234375 c 0
 271.498046875 -0.5009765625 263.665039062 -1.0009765625 258.998046875 -1.0009765625 c 2
 229.998046875 -0.0009765625 l 2
 224.665039062 -0.0009765625 215.83203125 0.4990234375 203.499023438 1.4990234375 c 0
 191.166015625 2.4990234375 171.333007812 3.666015625 144 4.9990234375 c 0
 139.333007812 5.666015625 136.333007812 6.3330078125 135 7 c 0
 133.666992188 7.6669921875 129 9 121 11 c 0
 117.666992188 12.3330078125 114.5 13.3330078125 111.5 14 c 0
 108.5 14.6669921875 106.333007812 16 105 18 c 0
 101.666992188 18 97.5 19 92.5 21 c 0
 87.5 23 84 24.6669921875 82 26 c 2
 79 29 l 1
 63 34.3330078125 50.5 40 41.5 46 c 0
 32.5 52 28.6669921875 58.3330078125 30 65 c 2
 31 68 l 2
 29 73.3330078125 28.3330078125 77.3330078125 29 80 c 0
EndSplineSet
EndChar

StartChar: K
Encoding: 75 75 45
Width: 480
GlyphClass: 2
Flags: W
LayerCount: 2
Fore
SplineSet
122 296 m 2
 122.666992188 297.333007812 122.158203125 299.166015625 120.491210938 301.499023438 c 0
 118.82421875 303.83203125 117.32421875 304.999023438 115.991210938 304.999023438 c 2
 73.9912109375 304.999023438 l 1
 47.9912109375 310.999023438 l 1
 66.658203125 319.666015625 84.658203125 329.833007812 101.991210938 341.5 c 0
 119.32421875 353.166992188 135.657226562 366.666992188 150.990234375 382 c 1
 151.990234375 386 l 2
 153.323242188 390.666992188 154.490234375 395.666992188 155.490234375 401 c 0
 156.490234375 406.333007812 157.990234375 413.333007812 159.990234375 422 c 2
 160.990234375 427 l 2
 162.990234375 432.333007812 165.157226562 438 167.490234375 444 c 0
 169.823242188 450 172.65625 456.666992188 175.989257812 464 c 0
 180.65625 474.666992188 185.65625 485.666992188 190.989257812 497 c 0
 196.322265625 508.333007812 201.489257812 519 206.489257812 529 c 0
 211.489257812 539 215.989257812 547.666992188 219.989257812 555 c 0
 223.989257812 562.333007812 226.989257812 567.666015625 228.989257812 570.999023438 c 0
 233.65625 580.33203125 241.65625 592.999023438 252.989257812 608.999023438 c 0
 264.322265625 624.999023438 275.822265625 640.83203125 287.489257812 656.499023438 c 0
 299.15625 672.166015625 309.823242188 685.999023438 319.490234375 697.999023438 c 0
 329.157226562 709.999023438 334.657226562 716.666015625 335.990234375 717.999023438 c 2
 363.990234375 729.999023438 l 1
 361.323242188 723.33203125 355.990234375 711.83203125 347.990234375 695.499023438 c 0
 339.990234375 679.166015625 331.490234375 661.833007812 322.490234375 643.5 c 0
 313.490234375 625.166992188 305.157226562 607.666992188 297.490234375 591 c 0
 289.823242188 574.333007812 284.65625 562 281.989257812 554 c 2
 276.989257812 536 l 2
 275.65625 529.333007812 274.65625 521.666015625 273.989257812 512.999023438 c 0
 273.322265625 504.33203125 272.822265625 496.33203125 272.489257812 488.999023438 c 0
 272.15625 481.666015625 272.15625 475.333007812 272.489257812 470 c 2
 272.989257812 462 l 1
 277.989257812 450 l 1
 298.65625 457.333007812 318.823242188 471 338.490234375 491 c 0
 358.157226562 511 376.32421875 533.166992188 392.991210938 557.5 c 0
 409.658203125 581.833007812 424.325195312 606.333007812 436.9921875 631 c 0
 449.659179688 655.666992188 459.659179688 676.333984375 466.9921875 693.000976562 c 0
 468.9921875 694.333984375 471.4921875 695.833984375 474.4921875 697.500976562 c 0
 477.4921875 699.16796875 479.659179688 700.000976562 480.9921875 700.000976562 c 2
 485.9921875 700.000976562 l 2
 495.9921875 698.000976562 505.325195312 692.333984375 513.9921875 683.000976562 c 0
 522.659179688 673.66796875 530.326171875 662.834960938 536.993164062 650.501953125 c 0
 543.66015625 638.168945312 549.493164062 625.668945312 554.493164062 613.001953125 c 0
 559.493164062 600.334960938 563.66015625 589.66796875 566.993164062 581.000976562 c 1
 560.993164062 567.000976562 l 2
 554.993164062 556.333984375 545.66015625 544.166992188 532.993164062 530.5 c 0
 520.326171875 516.833007812 506.326171875 503.5 490.993164062 490.5 c 0
 475.66015625 477.5 460.327148438 465.5 444.994140625 454.5 c 0
 429.661132812 443.5 416.328125 435.333007812 404.995117188 430 c 0
 400.328125 426.666992188 391.661132812 421.333984375 378.994140625 414.000976562 c 0
 366.327148438 406.66796875 352.827148438 399.000976562 338.494140625 391.000976562 c 0
 324.161132812 383.000976562 310.494140625 375.66796875 297.494140625 369.000976562 c 0
 284.494140625 362.333984375 275.327148438 358.000976562 269.994140625 356.000976562 c 2
 264.994140625 346.000976562 l 2
 264.994140625 345.333984375 266.994140625 343.166992188 270.994140625 339.5 c 0
 274.994140625 335.833007812 279.994140625 331.333007812 285.994140625 326 c 0
 291.994140625 320.666992188 298.161132812 315.166992188 304.494140625 309.5 c 0
 310.827148438 303.833007812 315.994140625 299 319.994140625 295 c 2
 320.994140625 293 l 1
 350.994140625 269 380.494140625 247 409.494140625 227 c 0
 438.494140625 207 470.994140625 188.666992188 506.994140625 172 c 0
 509.661132812 168.666992188 511.328125 166 511.995117188 164 c 0
 512.662109375 162 512.329101562 159.333007812 510.99609375 156 c 2
 507.99609375 150 l 2
 503.329101562 140 495.99609375 128.666992188 485.99609375 116 c 0
 475.99609375 103.333007812 464.829101562 90.8330078125 452.49609375 78.5 c 0
 440.163085938 66.1669921875 427.330078125 55 413.997070312 45 c 0
 400.6640625 35 388.331054688 27.6669921875 376.998046875 23 c 1
 351.665039062 40.3330078125 330.33203125 64.3330078125 312.999023438 95 c 0
 295.666015625 125.666992188 280.333007812 155.666992188 267 185 c 2
 257 208 l 2
 255 216.666992188 252.333007812 221 249 221 c 0
 245.666992188 221 243 217.333007812 241 210 c 2
 240 206 l 2
 237.333007812 197.333007812 236 185 236 169 c 0
 236 147.666992188 237.666992188 125.5 241 102.5 c 0
 244.333007812 79.5 247 62.3330078125 249 51 c 1
 237 44 l 1
 77 5 l 1
 67 8 l 1
 67 32 l 2
 67 40.6669921875 67.8330078125 52 69.5 66 c 0
 71.1669921875 80 73.6669921875 97 77 117 c 2
 122 296 l 2
EndSplineSet
EndChar

StartChar: L
Encoding: 76 76 46
Width: 434
GlyphClass: 2
Flags: W
LayerCount: 2
Fore
SplineSet
157 19 m 1
 155.994140625 19.5068359375 l 2
 155.327148438 19.83984375 154.994140625 20.6728515625 154.994140625 22.005859375 c 0
 154.994140625 22.6728515625 154.661132812 25.1728515625 153.994140625 29.505859375 c 0
 153.327148438 33.8388671875 152.327148438 36.671875 150.994140625 38.0048828125 c 2
 146.994140625 38.0048828125 l 2
 121.661132812 38.0048828125 96.6611328125 36.837890625 71.994140625 34.5048828125 c 0
 47.3271484375 32.171875 21.994140625 26.0048828125 -4.005859375 16.0048828125 c 1
 -3.005859375 19.0048828125 l 1
 12.3271484375 36.337890625 29.3271484375 51.6708984375 47.994140625 65.00390625 c 0
 66.6611328125 78.3369140625 85.6611328125 90.3369140625 104.994140625 101.00390625 c 0
 109.661132812 104.336914062 116.161132812 107.169921875 124.494140625 109.502929688 c 0
 132.827148438 111.8359375 137.66015625 115.668945312 138.993164062 121.001953125 c 2
 138.993164062 125.001953125 l 1
 116.326171875 247.668945312 121.326171875 374.668945312 153.993164062 506.001953125 c 2
 166.993164062 559.001953125 l 1
 187.993164062 621.001953125 l 2
 188.66015625 621.668945312 190.16015625 624.501953125 192.493164062 629.501953125 c 0
 194.826171875 634.501953125 197.493164062 640.168945312 200.493164062 646.501953125 c 0
 203.493164062 652.834960938 206.66015625 659.16796875 209.993164062 665.500976562 c 0
 213.326171875 671.833984375 215.993164062 676.666992188 217.993164062 680 c 0
 218.66015625 683.333007812 220.493164062 687.5 223.493164062 692.5 c 0
 226.493164062 697.5 229.66015625 700 232.993164062 700 c 0
 238.993164062 700 246.826171875 698.166992188 256.493164062 694.5 c 0
 266.16015625 690.833007812 276.327148438 686.5 286.994140625 681.5 c 0
 297.661132812 676.5 307.661132812 671.666992188 316.994140625 667 c 0
 326.327148438 662.333007812 333.994140625 659 339.994140625 657 c 0
 342.661132812 655.666992188 347.328125 653.5 353.995117188 650.5 c 0
 360.662109375 647.5 367.829101562 644.5 375.49609375 641.5 c 0
 383.163085938 638.5 390.330078125 635.5 396.997070312 632.5 c 0
 403.6640625 629.5 408.6640625 627.333007812 411.997070312 626 c 2
 413.997070312 624 l 1
 365.330078125 559.333007812 325.830078125 494.833007812 295.497070312 430.5 c 0
 265.1640625 366.166992188 240.997070312 297.666992188 222.997070312 225 c 2
 212.997070312 185 l 2
 212.997070312 184.333007812 212.830078125 182 212.497070312 178 c 0
 212.1640625 174 211.831054688 169.5 211.498046875 164.5 c 0
 211.165039062 159.5 210.665039062 154.666992188 209.998046875 150 c 0
 209.331054688 145.333007812 208.6640625 142 207.997070312 140 c 0
 208.6640625 136.666992188 208.831054688 133.833984375 208.498046875 131.500976562 c 0
 208.165039062 129.16796875 209.665039062 128.000976562 212.998046875 128.000976562 c 0
 215.665039062 128.66796875 220.83203125 130.000976562 228.499023438 132.000976562 c 0
 236.166015625 134.000976562 244.166015625 136.16796875 252.499023438 138.500976562 c 0
 260.83203125 140.833984375 268.83203125 143.000976562 276.499023438 145.000976562 c 0
 284.166015625 147.000976562 289.666015625 148.333984375 292.999023438 149.000976562 c 0
 310.33203125 154.333984375 326.999023438 157.666992188 342.999023438 159 c 0
 358.999023438 160.333007812 373.999023438 161 387.999023438 161 c 2
 460.999023438 155 l 1
 459.999023438 153 l 1
 429.999023438 117 403.999023438 80.6669921875 381.999023438 44 c 0
 379.999023438 40.6669921875 377.499023438 36 374.499023438 30 c 2
 365.499023438 12 l 2
 362.499023438 6 359.83203125 0.8330078125 357.499023438 -3.5 c 0
 355.166015625 -7.8330078125 353.666015625 -10 352.999023438 -10 c 2
 351.999023438 -10 l 1
 325.999023438 1.3330078125 300.999023438 10 276.999023438 16 c 0
 252.999023438 22 225.999023438 27.3330078125 195.999023438 32 c 1
 191.999023438 32 l 2
 190.666015625 32 189.333007812 31.3330078125 188 30 c 2
 174 -30 l 1
 157 19 l 1
EndSplineSet
EndChar

StartChar: M
Encoding: 77 77 47
Width: 549
GlyphClass: 2
Flags: W
LayerCount: 2
Fore
SplineSet
550 139 m 1
 534 92.9990234375 l 2
 532.666992188 87.666015625 530.5 80.3330078125 527.5 71 c 0
 524.5 61.6669921875 521.333007812 52.5 518 43.5 c 0
 514.666992188 34.5 511.666992188 26.6669921875 509 20 c 0
 506.333007812 13.3330078125 504.666015625 9.666015625 503.999023438 8.9990234375 c 2
 493.999023438 -0.0009765625 l 1
 477.999023438 7.33203125 461.83203125 13.6650390625 445.499023438 18.998046875 c 0
 429.166015625 24.3310546875 412.333007812 29.6640625 395 34.9970703125 c 2
 386 36.9970703125 l 1
 390 55.9970703125 l 2
 394.666992188 75.330078125 401 95.4970703125 409 116.497070312 c 0
 417 137.497070312 425.5 158.830078125 434.5 180.497070312 c 0
 443.5 202.1640625 452 223.497070312 460 244.497070312 c 0
 468 265.497070312 474.333007812 285.6640625 479 304.997070312 c 2
 490 357.997070312 l 1
 481.333007812 353.330078125 472.333007812 345.163085938 463 333.49609375 c 0
 453.666992188 321.829101562 444.333984375 308.829101562 435.000976562 294.49609375 c 0
 425.66796875 280.163085938 416.334960938 265.163085938 407.001953125 249.49609375 c 0
 397.668945312 233.829101562 388.668945312 219.662109375 380.001953125 206.995117188 c 2
 371.001953125 187.995117188 l 2
 355.668945312 157.995117188 341.168945312 127.828125 327.501953125 97.4951171875 c 0
 313.834960938 67.162109375 301.001953125 34.662109375 289.001953125 -0.0048828125 c 1
 283.668945312 2.662109375 279.668945312 12.3291015625 277.001953125 28.99609375 c 0
 274.334960938 45.6630859375 272.16796875 65.830078125 270.500976562 89.4970703125 c 0
 268.833984375 113.1640625 267.500976562 138.997070312 266.500976562 166.997070312 c 0
 265.500976562 194.997070312 263.833984375 221.497070312 261.500976562 246.497070312 c 0
 259.16796875 271.497070312 255.834960938 293.6640625 251.501953125 312.997070312 c 0
 247.168945312 332.330078125 241.001953125 345.330078125 233.001953125 351.997070312 c 1
 215.001953125 288.997070312 l 2
 210.334960938 269.6640625 207.001953125 250.331054688 205.001953125 230.998046875 c 0
 203.001953125 211.665039062 201.168945312 192.165039062 199.501953125 172.498046875 c 0
 197.834960938 152.831054688 196.001953125 133.331054688 194.001953125 113.998046875 c 0
 192.001953125 94.6650390625 188.668945312 75.33203125 184.001953125 55.9990234375 c 2
 178.001953125 36.9990234375 l 1
 169.001953125 34.9990234375 l 2
 149.001953125 29.666015625 129.501953125 24.3330078125 110.501953125 19 c 0
 91.501953125 13.6669921875 72.001953125 7.333984375 52.001953125 0.0009765625 c 1
 45.001953125 9.0009765625 l 2
 45.001953125 9.66796875 45.501953125 13.3349609375 46.501953125 20.001953125 c 0
 47.501953125 26.6689453125 48.6689453125 34.501953125 50.001953125 43.501953125 c 0
 51.3349609375 52.501953125 52.66796875 61.6689453125 54.0009765625 71.001953125 c 0
 55.333984375 80.3349609375 56.6669921875 87.66796875 58 93.0009765625 c 2
 71 156.000976562 l 2
 85.6669921875 214.66796875 103.5 272.16796875 124.5 328.500976562 c 0
 145.5 384.833984375 163.333007812 442.333984375 178 501.000976562 c 0
 180.666992188 511.66796875 180.833984375 521.334960938 178.500976562 530.001953125 c 0
 176.16796875 538.668945312 173.334960938 547.168945312 170.001953125 555.501953125 c 0
 166.668945312 563.834960938 163.668945312 572.001953125 161.001953125 580.001953125 c 0
 158.334960938 588.001953125 158.001953125 596.668945312 160.001953125 606.001953125 c 0
 160.668945312 607.334960938 166.8359375 611.834960938 178.502929688 619.501953125 c 0
 190.169921875 627.168945312 203.502929688 635.668945312 218.502929688 645.001953125 c 0
 233.502929688 654.334960938 248.002929688 663.334960938 262.002929688 672.001953125 c 0
 276.002929688 680.668945312 286.002929688 687.001953125 292.002929688 691.001953125 c 0
 294.669921875 692.334960938 298.502929688 694.16796875 303.502929688 696.500976562 c 0
 308.502929688 698.833984375 311.3359375 700.000976562 312.002929688 700.000976562 c 0
 316.669921875 698.66796875 321.002929688 690.334960938 325.002929688 675.001953125 c 0
 329.002929688 659.668945312 332.669921875 640.501953125 336.002929688 617.501953125 c 0
 339.3359375 594.501953125 342.3359375 569.168945312 345.002929688 541.501953125 c 0
 347.669921875 513.834960938 350.002929688 487.16796875 352.002929688 461.500976562 c 0
 354.002929688 435.833984375 355.502929688 412.500976562 356.502929688 391.500976562 c 0
 357.502929688 370.500976562 358.002929688 355.000976562 358.002929688 345.000976562 c 1
 360.002929688 345.000976562 l 1
 365.3359375 355.000976562 373.8359375 370.66796875 385.502929688 392.000976562 c 0
 397.169921875 413.333984375 410.502929688 437.000976562 425.502929688 463.000976562 c 0
 440.502929688 489.000976562 456.002929688 515.66796875 472.002929688 543.000976562 c 0
 488.002929688 570.333984375 503.502929688 595.333984375 518.502929688 618.000976562 c 0
 533.502929688 640.66796875 546.8359375 659.66796875 558.502929688 675.000976562 c 0
 570.169921875 690.333984375 578.669921875 698.666992188 584.002929688 700 c 0
 584.669921875 700 586.836914062 698.833007812 590.50390625 696.5 c 0
 594.170898438 694.166992188 596.670898438 692.333984375 598.00390625 691.000976562 c 0
 601.336914062 687.000976562 608.00390625 680.66796875 618.00390625 672.000976562 c 0
 628.00390625 663.333984375 638.170898438 654.333984375 648.50390625 645.000976562 c 0
 658.836914062 635.66796875 668.00390625 627.16796875 676.00390625 619.500976562 c 0
 684.00390625 611.833984375 687.670898438 607.333984375 687.00390625 606.000976562 c 0
 685.00390625 596.66796875 680.836914062 588.000976562 674.50390625 580.000976562 c 0
 668.170898438 572.000976562 661.170898438 563.833984375 653.50390625 555.500976562 c 0
 645.836914062 547.16796875 638.669921875 538.66796875 632.002929688 530.000976562 c 0
 625.3359375 521.333984375 620.668945312 511.666992188 618.001953125 501 c 0
 610.668945312 471.666992188 604.668945312 442.666992188 600.001953125 414 c 0
 595.334960938 385.333007812 590.66796875 356.833007812 586.000976562 328.5 c 0
 581.333984375 300.166992188 576.666992188 271.666992188 572 243 c 0
 567.333007812 214.333007812 561.333007812 185.333007812 554 156 c 2
 550 139 l 1
EndSplineSet
EndChar

StartChar: N
Encoding: 78 78 48
Width: 437
GlyphClass: 2
Flags: W
LayerCount: 2
Fore
SplineSet
178 503 m 2
 180.666992188 513.666992188 180.8359375 523.331054688 178.502929688 531.998046875 c 0
 176.169921875 540.665039062 173.336914062 549.165039062 170.00390625 557.498046875 c 0
 166.670898438 565.831054688 163.670898438 573.998046875 161.00390625 581.998046875 c 0
 158.336914062 589.998046875 158.336914062 598.665039062 161.00390625 607.998046875 c 0
 161.00390625 609.331054688 166.836914062 613.831054688 178.50390625 621.498046875 c 0
 190.170898438 629.165039062 203.50390625 637.665039062 218.50390625 646.998046875 c 0
 233.50390625 656.331054688 248.170898438 665.331054688 262.50390625 673.998046875 c 0
 276.836914062 682.665039062 287.00390625 688.998046875 293.00390625 692.998046875 c 2
 304.00390625 698.498046875 l 2
 308.670898438 700.831054688 311.337890625 701.998046875 312.004882812 701.998046875 c 0
 317.337890625 701.331054688 322.337890625 692.831054688 327.004882812 676.498046875 c 0
 331.671875 660.165039062 336.004882812 639.33203125 340.004882812 613.999023438 c 0
 344.004882812 588.666015625 347.671875 560.833007812 351.004882812 530.5 c 0
 354.337890625 500.166992188 357.170898438 471 359.50390625 443 c 0
 361.836914062 415 363.836914062 389.666992188 365.50390625 367 c 0
 367.170898438 344.333007812 368.337890625 328.333007812 369.004882812 319 c 1
 370.337890625 321.666992188 372.670898438 327.5 376.00390625 336.5 c 0
 379.336914062 345.5 383.00390625 355.5 387.00390625 366.5 c 0
 391.00390625 377.5 394.670898438 388.166992188 398.00390625 398.5 c 0
 401.336914062 408.833007812 403.669921875 416.666015625 405.002929688 421.999023438 c 2
 406.002929688 424.999023438 l 2
 406.669921875 426.999023438 407.669921875 429.666015625 409.002929688 432.999023438 c 2
 412.002929688 443.999023438 l 1
 417.002929688 466.999023438 l 2
 425.669921875 499.666015625 431.502929688 532.999023438 434.502929688 566.999023438 c 0
 437.502929688 600.999023438 440.3359375 633.33203125 443.002929688 663.999023438 c 1
 451.669921875 665.33203125 461.836914062 667.499023438 473.50390625 670.499023438 c 0
 485.170898438 673.499023438 497.00390625 676.499023438 509.00390625 679.499023438 c 0
 521.00390625 682.499023438 533.00390625 685.166015625 545.00390625 687.499023438 c 0
 557.00390625 689.83203125 567.670898438 690.999023438 577.00390625 690.999023438 c 2
 580.00390625 690.999023438 l 2
 581.336914062 689.666015625 582.669921875 686.666015625 584.002929688 681.999023438 c 0
 585.3359375 677.33203125 585.668945312 674.33203125 585.001953125 672.999023438 c 2
 561.001953125 575.999023438 l 2
 535.668945312 474.666015625 503.501953125 375.499023438 464.501953125 278.499023438 c 0
 425.501953125 181.499023438 373.334960938 88.666015625 308.001953125 -0.0009765625 c 1
 302.001953125 2.666015625 297.334960938 12.9990234375 294.001953125 30.9990234375 c 0
 290.668945312 48.9990234375 288.001953125 70.9990234375 286.001953125 96.9990234375 c 0
 284.001953125 122.999023438 282.001953125 150.999023438 280.001953125 180.999023438 c 0
 278.001953125 210.999023438 275.501953125 239.666015625 272.501953125 266.999023438 c 0
 269.501953125 294.33203125 265.501953125 318.33203125 260.501953125 338.999023438 c 0
 255.501953125 359.666015625 248.668945312 373.333007812 240.001953125 380 c 1
 206.001953125 291 l 1
 173.001953125 56 l 1
 167.001953125 37 l 1
 145.668945312 31.6669921875 124.501953125 26.1669921875 103.501953125 20.5 c 0
 82.501953125 14.8330078125 61.3349609375 8 40.001953125 0 c 1
 33.001953125 9 l 2
 33.001953125 9.6669921875 33.501953125 13.333984375 34.501953125 20.0009765625 c 0
 35.501953125 26.66796875 36.6689453125 34.5009765625 38.001953125 43.5009765625 c 0
 39.3349609375 52.5009765625 40.66796875 61.66796875 42.0009765625 71.0009765625 c 0
 43.333984375 80.333984375 44.6669921875 87.6669921875 46 93 c 2
 47 101 l 1
 61 156 l 1
 178 503 l 2
EndSplineSet
EndChar

